<mxfile host="app.diagrams.net" agent="Mozilla/5.0 (Windows NT 10.0; Win64; x64) AppleWebKit/537.36 (KHTML, like Gecko) Chrome/128.0.0.0 Safari/537.36" version="24.7.8" pages="6">
  <diagram id="c4obY4Xv-Zgl2g7OE5Ge" name="ER-модель в нотации Чена">
    <mxGraphModel dx="1877" dy="565" grid="1" gridSize="10" guides="1" tooltips="1" connect="1" arrows="1" fold="1" page="1" pageScale="1" pageWidth="827" pageHeight="1169" math="0" shadow="0">
      <root>
        <mxCell id="0" />
        <mxCell id="1" parent="0" />
        <mxCell id="MZJGiQRWaNMhP6PaIQoo-1" value="Пользователь" style="rounded=0;whiteSpace=wrap;html=1;" parent="1" vertex="1">
          <mxGeometry x="10" y="355" width="120" height="60" as="geometry" />
        </mxCell>
        <mxCell id="MZJGiQRWaNMhP6PaIQoo-2" value="Логин" style="ellipse;whiteSpace=wrap;html=1;" parent="1" vertex="1">
          <mxGeometry x="-70" y="290" width="120" height="40" as="geometry" />
        </mxCell>
        <mxCell id="MZJGiQRWaNMhP6PaIQoo-3" value="id" style="ellipse;whiteSpace=wrap;html=1;" parent="1" vertex="1">
          <mxGeometry x="-70" y="120" width="120" height="40" as="geometry" />
        </mxCell>
        <mxCell id="MZJGiQRWaNMhP6PaIQoo-4" value="Пароль" style="ellipse;whiteSpace=wrap;html=1;" parent="1" vertex="1">
          <mxGeometry x="-70" y="170" width="120" height="40" as="geometry" />
        </mxCell>
        <mxCell id="MZJGiQRWaNMhP6PaIQoo-5" value="Роль" style="ellipse;whiteSpace=wrap;html=1;" parent="1" vertex="1">
          <mxGeometry x="-70" y="232.5" width="120" height="40" as="geometry" />
        </mxCell>
        <mxCell id="MZJGiQRWaNMhP6PaIQoo-17" style="edgeStyle=none;rounded=0;html=1;exitX=0.5;exitY=0;exitDx=0;exitDy=0;entryX=0;entryY=0.5;entryDx=0;entryDy=0;endArrow=none;endFill=0;" parent="1" source="MZJGiQRWaNMhP6PaIQoo-10" target="MZJGiQRWaNMhP6PaIQoo-16" edge="1">
          <mxGeometry relative="1" as="geometry">
            <Array as="points">
              <mxPoint x="560" y="80" />
            </Array>
          </mxGeometry>
        </mxCell>
        <mxCell id="MZJGiQRWaNMhP6PaIQoo-19" style="edgeStyle=none;rounded=0;html=1;exitX=0.5;exitY=0;exitDx=0;exitDy=0;entryX=0;entryY=0.5;entryDx=0;entryDy=0;endArrow=none;endFill=0;" parent="1" source="MZJGiQRWaNMhP6PaIQoo-10" target="MZJGiQRWaNMhP6PaIQoo-18" edge="1">
          <mxGeometry relative="1" as="geometry">
            <Array as="points">
              <mxPoint x="560" y="140" />
            </Array>
          </mxGeometry>
        </mxCell>
        <mxCell id="MZJGiQRWaNMhP6PaIQoo-23" style="edgeStyle=none;rounded=0;html=1;exitX=0.5;exitY=0;exitDx=0;exitDy=0;entryX=1;entryY=0.5;entryDx=0;entryDy=0;endArrow=none;endFill=0;" parent="1" source="MZJGiQRWaNMhP6PaIQoo-10" target="MZJGiQRWaNMhP6PaIQoo-22" edge="1">
          <mxGeometry relative="1" as="geometry">
            <Array as="points">
              <mxPoint x="560" y="140" />
            </Array>
          </mxGeometry>
        </mxCell>
        <mxCell id="MZJGiQRWaNMhP6PaIQoo-26" style="edgeStyle=none;rounded=0;html=1;exitX=1;exitY=0.5;exitDx=0;exitDy=0;entryX=0;entryY=0.5;entryDx=0;entryDy=0;endArrow=none;endFill=0;startArrow=ERmany;startFill=0;" parent="1" source="MZJGiQRWaNMhP6PaIQoo-10" target="MZJGiQRWaNMhP6PaIQoo-25" edge="1">
          <mxGeometry relative="1" as="geometry" />
        </mxCell>
        <mxCell id="MZJGiQRWaNMhP6PaIQoo-10" value="Турнир" style="rounded=0;whiteSpace=wrap;html=1;" parent="1" vertex="1">
          <mxGeometry x="500" y="200" width="120" height="60" as="geometry" />
        </mxCell>
        <mxCell id="MZJGiQRWaNMhP6PaIQoo-11" value="Создавает" style="rhombus;whiteSpace=wrap;html=1;" parent="1" vertex="1">
          <mxGeometry x="160" y="220" width="106.5" height="50" as="geometry" />
        </mxCell>
        <mxCell id="MZJGiQRWaNMhP6PaIQoo-15" value="N" style="text;html=1;align=center;verticalAlign=middle;resizable=0;points=[];autosize=1;strokeColor=none;fillColor=none;" parent="1" vertex="1">
          <mxGeometry x="473" y="190" width="30" height="30" as="geometry" />
        </mxCell>
        <mxCell id="MZJGiQRWaNMhP6PaIQoo-16" value="id" style="ellipse;whiteSpace=wrap;html=1;" parent="1" vertex="1">
          <mxGeometry x="590" y="60" width="120" height="40" as="geometry" />
        </mxCell>
        <mxCell id="MZJGiQRWaNMhP6PaIQoo-18" value="id страны" style="ellipse;whiteSpace=wrap;html=1;" parent="1" vertex="1">
          <mxGeometry x="590" y="120" width="120" height="40" as="geometry" />
        </mxCell>
        <mxCell id="MZJGiQRWaNMhP6PaIQoo-21" style="edgeStyle=none;rounded=0;html=1;exitX=1;exitY=0.5;exitDx=0;exitDy=0;entryX=0.5;entryY=0;entryDx=0;entryDy=0;endArrow=none;endFill=0;" parent="1" source="MZJGiQRWaNMhP6PaIQoo-20" target="MZJGiQRWaNMhP6PaIQoo-10" edge="1">
          <mxGeometry relative="1" as="geometry">
            <Array as="points">
              <mxPoint x="560" y="80" />
            </Array>
          </mxGeometry>
        </mxCell>
        <mxCell id="MZJGiQRWaNMhP6PaIQoo-20" value="Название" style="ellipse;whiteSpace=wrap;html=1;" parent="1" vertex="1">
          <mxGeometry x="413" y="60" width="120" height="40" as="geometry" />
        </mxCell>
        <mxCell id="MZJGiQRWaNMhP6PaIQoo-22" value="id пользователя" style="ellipse;whiteSpace=wrap;html=1;" parent="1" vertex="1">
          <mxGeometry x="413" y="120" width="120" height="40" as="geometry" />
        </mxCell>
        <mxCell id="MZJGiQRWaNMhP6PaIQoo-24" value="Команда" style="rounded=0;whiteSpace=wrap;html=1;" parent="1" vertex="1">
          <mxGeometry x="680" y="340" width="120" height="60" as="geometry" />
        </mxCell>
        <mxCell id="MZJGiQRWaNMhP6PaIQoo-33" style="edgeStyle=none;rounded=0;html=1;exitX=1;exitY=0.5;exitDx=0;exitDy=0;entryX=0.25;entryY=0;entryDx=0;entryDy=0;startArrow=none;startFill=0;endArrow=ERmany;endFill=0;" parent="1" source="MZJGiQRWaNMhP6PaIQoo-25" target="MZJGiQRWaNMhP6PaIQoo-24" edge="1">
          <mxGeometry relative="1" as="geometry">
            <Array as="points">
              <mxPoint x="780" y="230" />
              <mxPoint x="780" y="280" />
              <mxPoint x="740" y="280" />
              <mxPoint x="710" y="280" />
              <mxPoint x="710" y="320" />
            </Array>
          </mxGeometry>
        </mxCell>
        <mxCell id="MZJGiQRWaNMhP6PaIQoo-25" value="Играет в" style="rhombus;whiteSpace=wrap;html=1;" parent="1" vertex="1">
          <mxGeometry x="660" y="205" width="106.5" height="50" as="geometry" />
        </mxCell>
        <mxCell id="MZJGiQRWaNMhP6PaIQoo-27" value="N" style="text;html=1;align=center;verticalAlign=middle;resizable=0;points=[];autosize=1;strokeColor=none;fillColor=none;" parent="1" vertex="1">
          <mxGeometry x="620" y="200" width="30" height="30" as="geometry" />
        </mxCell>
        <mxCell id="MZJGiQRWaNMhP6PaIQoo-28" value="id" style="ellipse;whiteSpace=wrap;html=1;" parent="1" vertex="1">
          <mxGeometry x="736.75" y="60" width="120" height="40" as="geometry" />
        </mxCell>
        <mxCell id="MZJGiQRWaNMhP6PaIQoo-30" value="Название" style="ellipse;whiteSpace=wrap;html=1;" parent="1" vertex="1">
          <mxGeometry x="736.75" y="120" width="120" height="40" as="geometry" />
        </mxCell>
        <mxCell id="MZJGiQRWaNMhP6PaIQoo-34" value="М" style="text;html=1;align=center;verticalAlign=middle;resizable=0;points=[];autosize=1;strokeColor=none;fillColor=none;" parent="1" vertex="1">
          <mxGeometry x="680" y="310" width="30" height="30" as="geometry" />
        </mxCell>
        <mxCell id="MZJGiQRWaNMhP6PaIQoo-44" style="edgeStyle=none;rounded=0;html=1;exitX=0.5;exitY=1;exitDx=0;exitDy=0;entryX=0;entryY=0.5;entryDx=0;entryDy=0;startArrow=none;startFill=0;endArrow=none;endFill=0;" parent="1" source="MZJGiQRWaNMhP6PaIQoo-36" target="MZJGiQRWaNMhP6PaIQoo-38" edge="1">
          <mxGeometry relative="1" as="geometry">
            <Array as="points">
              <mxPoint x="223" y="490" />
            </Array>
          </mxGeometry>
        </mxCell>
        <mxCell id="MZJGiQRWaNMhP6PaIQoo-52" style="edgeStyle=none;rounded=0;html=1;exitX=1;exitY=0.5;exitDx=0;exitDy=0;entryX=0;entryY=0.5;entryDx=0;entryDy=0;startArrow=ERmany;startFill=0;endArrow=none;endFill=0;" parent="1" source="MZJGiQRWaNMhP6PaIQoo-36" target="MZJGiQRWaNMhP6PaIQoo-51" edge="1">
          <mxGeometry relative="1" as="geometry" />
        </mxCell>
        <mxCell id="MZJGiQRWaNMhP6PaIQoo-58" style="edgeStyle=none;rounded=0;html=1;exitX=0.5;exitY=0;exitDx=0;exitDy=0;entryX=0;entryY=0.5;entryDx=0;entryDy=0;startArrow=ERmany;startFill=0;endArrow=none;endFill=0;" parent="1" source="MZJGiQRWaNMhP6PaIQoo-36" target="MZJGiQRWaNMhP6PaIQoo-56" edge="1">
          <mxGeometry relative="1" as="geometry">
            <Array as="points">
              <mxPoint x="223" y="305" />
            </Array>
          </mxGeometry>
        </mxCell>
        <mxCell id="MZJGiQRWaNMhP6PaIQoo-36" value="Матч" style="rounded=0;whiteSpace=wrap;html=1;" parent="1" vertex="1">
          <mxGeometry x="163" y="370" width="120" height="60" as="geometry" />
        </mxCell>
        <mxCell id="MZJGiQRWaNMhP6PaIQoo-38" value="id" style="ellipse;whiteSpace=wrap;html=1;" parent="1" vertex="1">
          <mxGeometry x="265" y="470" width="120" height="40" as="geometry" />
        </mxCell>
        <mxCell id="MZJGiQRWaNMhP6PaIQoo-46" style="edgeStyle=none;rounded=0;html=1;exitX=0;exitY=0.5;exitDx=0;exitDy=0;entryX=0.5;entryY=1;entryDx=0;entryDy=0;startArrow=none;startFill=0;endArrow=none;endFill=0;" parent="1" source="MZJGiQRWaNMhP6PaIQoo-39" target="MZJGiQRWaNMhP6PaIQoo-36" edge="1">
          <mxGeometry relative="1" as="geometry">
            <Array as="points">
              <mxPoint x="223" y="555" />
            </Array>
          </mxGeometry>
        </mxCell>
        <mxCell id="MZJGiQRWaNMhP6PaIQoo-39" value="id турнира" style="ellipse;whiteSpace=wrap;html=1;" parent="1" vertex="1">
          <mxGeometry x="265" y="535" width="120" height="40" as="geometry" />
        </mxCell>
        <mxCell id="MZJGiQRWaNMhP6PaIQoo-47" style="edgeStyle=none;rounded=0;html=1;exitX=1;exitY=0.5;exitDx=0;exitDy=0;entryX=0.5;entryY=1;entryDx=0;entryDy=0;startArrow=none;startFill=0;endArrow=none;endFill=0;" parent="1" source="MZJGiQRWaNMhP6PaIQoo-40" target="MZJGiQRWaNMhP6PaIQoo-36" edge="1">
          <mxGeometry relative="1" as="geometry">
            <Array as="points">
              <mxPoint x="223" y="490" />
            </Array>
          </mxGeometry>
        </mxCell>
        <mxCell id="MZJGiQRWaNMhP6PaIQoo-40" value="id домашней команды" style="ellipse;whiteSpace=wrap;html=1;" parent="1" vertex="1">
          <mxGeometry x="70" y="470" width="120" height="40" as="geometry" />
        </mxCell>
        <mxCell id="MZJGiQRWaNMhP6PaIQoo-49" style="edgeStyle=none;rounded=0;html=1;exitX=1;exitY=0.5;exitDx=0;exitDy=0;entryX=0.5;entryY=1;entryDx=0;entryDy=0;startArrow=none;startFill=0;endArrow=none;endFill=0;" parent="1" source="MZJGiQRWaNMhP6PaIQoo-41" target="MZJGiQRWaNMhP6PaIQoo-36" edge="1">
          <mxGeometry relative="1" as="geometry">
            <Array as="points">
              <mxPoint x="223" y="555" />
            </Array>
          </mxGeometry>
        </mxCell>
        <mxCell id="MZJGiQRWaNMhP6PaIQoo-41" value="id гостевой команды" style="ellipse;whiteSpace=wrap;html=1;" parent="1" vertex="1">
          <mxGeometry x="70" y="535" width="120" height="40" as="geometry" />
        </mxCell>
        <mxCell id="MZJGiQRWaNMhP6PaIQoo-50" style="edgeStyle=none;rounded=0;html=1;exitX=1;exitY=0.5;exitDx=0;exitDy=0;entryX=0.5;entryY=1;entryDx=0;entryDy=0;startArrow=none;startFill=0;endArrow=none;endFill=0;" parent="1" source="MZJGiQRWaNMhP6PaIQoo-42" target="MZJGiQRWaNMhP6PaIQoo-36" edge="1">
          <mxGeometry relative="1" as="geometry">
            <Array as="points">
              <mxPoint x="223" y="620" />
            </Array>
          </mxGeometry>
        </mxCell>
        <mxCell id="MZJGiQRWaNMhP6PaIQoo-42" value="Голы гостевой команды" style="ellipse;whiteSpace=wrap;html=1;" parent="1" vertex="1">
          <mxGeometry x="70" y="600" width="120" height="40" as="geometry" />
        </mxCell>
        <mxCell id="MZJGiQRWaNMhP6PaIQoo-45" style="edgeStyle=none;rounded=0;html=1;exitX=0;exitY=0.5;exitDx=0;exitDy=0;entryX=0.5;entryY=1;entryDx=0;entryDy=0;startArrow=none;startFill=0;endArrow=none;endFill=0;" parent="1" source="MZJGiQRWaNMhP6PaIQoo-43" target="MZJGiQRWaNMhP6PaIQoo-36" edge="1">
          <mxGeometry relative="1" as="geometry">
            <Array as="points">
              <mxPoint x="223" y="620" />
            </Array>
          </mxGeometry>
        </mxCell>
        <mxCell id="MZJGiQRWaNMhP6PaIQoo-43" value="Голы домашней команды" style="ellipse;whiteSpace=wrap;html=1;" parent="1" vertex="1">
          <mxGeometry x="265" y="600" width="120" height="40" as="geometry" />
        </mxCell>
        <mxCell id="MZJGiQRWaNMhP6PaIQoo-53" style="edgeStyle=none;rounded=0;html=1;exitX=1;exitY=0.5;exitDx=0;exitDy=0;entryX=0;entryY=0.5;entryDx=0;entryDy=0;startArrow=none;startFill=0;endArrow=none;endFill=0;" parent="1" source="MZJGiQRWaNMhP6PaIQoo-51" target="MZJGiQRWaNMhP6PaIQoo-24" edge="1">
          <mxGeometry relative="1" as="geometry">
            <Array as="points">
              <mxPoint x="660" y="400" />
              <mxPoint x="660" y="370" />
            </Array>
          </mxGeometry>
        </mxCell>
        <mxCell id="MZJGiQRWaNMhP6PaIQoo-51" value="Играет" style="rhombus;whiteSpace=wrap;html=1;" parent="1" vertex="1">
          <mxGeometry x="431.75" y="375" width="106.5" height="50" as="geometry" />
        </mxCell>
        <mxCell id="MZJGiQRWaNMhP6PaIQoo-54" value="N" style="text;html=1;align=center;verticalAlign=middle;resizable=0;points=[];autosize=1;strokeColor=none;fillColor=none;" parent="1" vertex="1">
          <mxGeometry x="283" y="370" width="30" height="30" as="geometry" />
        </mxCell>
        <mxCell id="MZJGiQRWaNMhP6PaIQoo-55" value="2" style="text;html=1;align=center;verticalAlign=middle;resizable=0;points=[];autosize=1;strokeColor=none;fillColor=none;" parent="1" vertex="1">
          <mxGeometry x="650" y="340" width="30" height="30" as="geometry" />
        </mxCell>
        <mxCell id="MZJGiQRWaNMhP6PaIQoo-59" style="edgeStyle=none;rounded=0;html=1;exitX=1;exitY=0.5;exitDx=0;exitDy=0;entryX=0.5;entryY=1;entryDx=0;entryDy=0;startArrow=none;startFill=0;endArrow=none;endFill=0;" parent="1" source="MZJGiQRWaNMhP6PaIQoo-56" target="MZJGiQRWaNMhP6PaIQoo-10" edge="1">
          <mxGeometry relative="1" as="geometry">
            <Array as="points">
              <mxPoint x="560" y="305" />
              <mxPoint x="560" y="280" />
            </Array>
          </mxGeometry>
        </mxCell>
        <mxCell id="MZJGiQRWaNMhP6PaIQoo-56" value="Состоит из" style="rhombus;whiteSpace=wrap;html=1;" parent="1" vertex="1">
          <mxGeometry x="244.75" y="280" width="106.5" height="50" as="geometry" />
        </mxCell>
        <mxCell id="MZJGiQRWaNMhP6PaIQoo-60" value="1" style="text;html=1;align=center;verticalAlign=middle;resizable=0;points=[];autosize=1;strokeColor=none;fillColor=none;" parent="1" vertex="1">
          <mxGeometry x="533" y="255" width="30" height="30" as="geometry" />
        </mxCell>
        <mxCell id="MZJGiQRWaNMhP6PaIQoo-61" value="N" style="text;html=1;align=center;verticalAlign=middle;resizable=0;points=[];autosize=1;strokeColor=none;fillColor=none;" parent="1" vertex="1">
          <mxGeometry x="190" y="340" width="30" height="30" as="geometry" />
        </mxCell>
        <mxCell id="MZJGiQRWaNMhP6PaIQoo-78" style="edgeStyle=none;rounded=0;html=1;exitX=1;exitY=0.5;exitDx=0;exitDy=0;startArrow=none;startFill=0;endArrow=none;endFill=0;" parent="1" source="MZJGiQRWaNMhP6PaIQoo-62" target="MZJGiQRWaNMhP6PaIQoo-75" edge="1">
          <mxGeometry relative="1" as="geometry" />
        </mxCell>
        <mxCell id="MZJGiQRWaNMhP6PaIQoo-62" value="Стадион" style="rounded=0;whiteSpace=wrap;html=1;" parent="1" vertex="1">
          <mxGeometry x="913" y="230" width="120" height="60" as="geometry" />
        </mxCell>
        <mxCell id="MZJGiQRWaNMhP6PaIQoo-72" style="edgeStyle=none;rounded=0;html=1;exitX=1;exitY=0.5;exitDx=0;exitDy=0;entryX=0.5;entryY=1;entryDx=0;entryDy=0;startArrow=none;startFill=0;endArrow=none;endFill=0;" parent="1" source="MZJGiQRWaNMhP6PaIQoo-70" target="MZJGiQRWaNMhP6PaIQoo-62" edge="1">
          <mxGeometry relative="1" as="geometry">
            <Array as="points">
              <mxPoint x="973" y="370" />
            </Array>
          </mxGeometry>
        </mxCell>
        <mxCell id="MZJGiQRWaNMhP6PaIQoo-70" value="Имеет" style="rhombus;whiteSpace=wrap;html=1;" parent="1" vertex="1">
          <mxGeometry x="860" y="345" width="106.5" height="50" as="geometry" />
        </mxCell>
        <mxCell id="MZJGiQRWaNMhP6PaIQoo-74" value="1" style="text;html=1;align=center;verticalAlign=middle;resizable=0;points=[];autosize=1;strokeColor=none;fillColor=none;" parent="1" vertex="1">
          <mxGeometry x="970" y="290" width="30" height="30" as="geometry" />
        </mxCell>
        <mxCell id="MZJGiQRWaNMhP6PaIQoo-75" value="id" style="ellipse;whiteSpace=wrap;html=1;" parent="1" vertex="1">
          <mxGeometry x="1090" y="240" width="120" height="40" as="geometry" />
        </mxCell>
        <mxCell id="MZJGiQRWaNMhP6PaIQoo-79" style="edgeStyle=none;rounded=0;html=1;exitX=0;exitY=0.5;exitDx=0;exitDy=0;startArrow=none;startFill=0;endArrow=none;endFill=0;" parent="1" source="MZJGiQRWaNMhP6PaIQoo-76" edge="1">
          <mxGeometry relative="1" as="geometry">
            <mxPoint x="1030" y="260" as="targetPoint" />
            <Array as="points">
              <mxPoint x="1060" y="335" />
              <mxPoint x="1060" y="260" />
            </Array>
          </mxGeometry>
        </mxCell>
        <mxCell id="MZJGiQRWaNMhP6PaIQoo-76" value="Название" style="ellipse;whiteSpace=wrap;html=1;" parent="1" vertex="1">
          <mxGeometry x="1090" y="315" width="120" height="40" as="geometry" />
        </mxCell>
        <mxCell id="MZJGiQRWaNMhP6PaIQoo-80" style="edgeStyle=none;rounded=0;html=1;exitX=0;exitY=0.5;exitDx=0;exitDy=0;entryX=1;entryY=0.5;entryDx=0;entryDy=0;startArrow=none;startFill=0;endArrow=none;endFill=0;" parent="1" source="MZJGiQRWaNMhP6PaIQoo-77" target="MZJGiQRWaNMhP6PaIQoo-62" edge="1">
          <mxGeometry relative="1" as="geometry">
            <Array as="points">
              <mxPoint x="1060" y="405" />
              <mxPoint x="1060" y="260" />
            </Array>
          </mxGeometry>
        </mxCell>
        <mxCell id="MZJGiQRWaNMhP6PaIQoo-77" value="Город" style="ellipse;whiteSpace=wrap;html=1;" parent="1" vertex="1">
          <mxGeometry x="1090" y="385" width="120" height="40" as="geometry" />
        </mxCell>
        <mxCell id="Ouhq65F0EKyfV9j2BLgb-1" value="Количество мест" style="ellipse;whiteSpace=wrap;html=1;" parent="1" vertex="1">
          <mxGeometry x="1096.75" y="450" width="120" height="40" as="geometry" />
        </mxCell>
        <mxCell id="Ouhq65F0EKyfV9j2BLgb-2" value="" style="endArrow=none;html=1;rounded=0;exitX=0;exitY=0.5;exitDx=0;exitDy=0;" parent="1" source="Ouhq65F0EKyfV9j2BLgb-1" edge="1">
          <mxGeometry width="50" height="50" relative="1" as="geometry">
            <mxPoint x="970" y="520" as="sourcePoint" />
            <mxPoint x="1060" y="260" as="targetPoint" />
            <Array as="points">
              <mxPoint x="1060" y="470" />
            </Array>
          </mxGeometry>
        </mxCell>
        <mxCell id="Ouhq65F0EKyfV9j2BLgb-3" value="Год создание" style="ellipse;whiteSpace=wrap;html=1;" parent="1" vertex="1">
          <mxGeometry x="916.75" y="60" width="120" height="40" as="geometry" />
        </mxCell>
        <mxCell id="Ouhq65F0EKyfV9j2BLgb-4" value="id_тренера" style="ellipse;whiteSpace=wrap;html=1;" parent="1" vertex="1">
          <mxGeometry x="916.75" y="120" width="120" height="40" as="geometry" />
        </mxCell>
        <mxCell id="Ouhq65F0EKyfV9j2BLgb-5" value="id cтадиона" style="ellipse;whiteSpace=wrap;html=1;" parent="1" vertex="1">
          <mxGeometry x="916.75" y="172.5" width="120" height="40" as="geometry" />
        </mxCell>
        <mxCell id="E7wvHHjbwRv63QAG3eaN-5" value="1" style="text;html=1;align=center;verticalAlign=middle;resizable=0;points=[];autosize=1;strokeColor=none;fillColor=none;" parent="1" vertex="1">
          <mxGeometry x="685" y="398" width="30" height="30" as="geometry" />
        </mxCell>
        <mxCell id="MZJGiQRWaNMhP6PaIQoo-32" value="Страна" style="ellipse;whiteSpace=wrap;html=1;" parent="1" vertex="1">
          <mxGeometry x="736.75" y="175" width="120" height="35" as="geometry" />
        </mxCell>
        <mxCell id="E7wvHHjbwRv63QAG3eaN-11" value="" style="endArrow=none;html=1;rounded=0;exitX=0.915;exitY=0.015;exitDx=0;exitDy=0;exitPerimeter=0;" parent="1" source="MZJGiQRWaNMhP6PaIQoo-24" edge="1">
          <mxGeometry width="50" height="50" relative="1" as="geometry">
            <mxPoint x="760.48" y="349.61" as="sourcePoint" />
            <mxPoint x="894" y="80.39" as="targetPoint" />
            <Array as="points">
              <mxPoint x="790" y="340" />
              <mxPoint x="790" y="260" />
              <mxPoint x="894" y="260" />
              <mxPoint x="894" y="210.39" />
            </Array>
          </mxGeometry>
        </mxCell>
        <mxCell id="E7wvHHjbwRv63QAG3eaN-12" value="" style="endArrow=none;html=1;rounded=0;entryX=0;entryY=0.5;entryDx=0;entryDy=0;exitX=1;exitY=0.5;exitDx=0;exitDy=0;" parent="1" source="MZJGiQRWaNMhP6PaIQoo-28" target="Ouhq65F0EKyfV9j2BLgb-3" edge="1">
          <mxGeometry width="50" height="50" relative="1" as="geometry">
            <mxPoint x="716.75" y="290" as="sourcePoint" />
            <mxPoint x="766.75" y="240" as="targetPoint" />
          </mxGeometry>
        </mxCell>
        <mxCell id="E7wvHHjbwRv63QAG3eaN-13" value="" style="endArrow=none;html=1;rounded=0;entryX=0;entryY=0.5;entryDx=0;entryDy=0;exitX=1;exitY=0.5;exitDx=0;exitDy=0;" parent="1" source="MZJGiQRWaNMhP6PaIQoo-30" target="Ouhq65F0EKyfV9j2BLgb-4" edge="1">
          <mxGeometry width="50" height="50" relative="1" as="geometry">
            <mxPoint x="776.75" y="200" as="sourcePoint" />
            <mxPoint x="826.75" y="150" as="targetPoint" />
          </mxGeometry>
        </mxCell>
        <mxCell id="E7wvHHjbwRv63QAG3eaN-14" value="" style="endArrow=none;html=1;rounded=0;entryX=0;entryY=0.5;entryDx=0;entryDy=0;exitX=1;exitY=0.5;exitDx=0;exitDy=0;" parent="1" source="MZJGiQRWaNMhP6PaIQoo-32" target="Ouhq65F0EKyfV9j2BLgb-5" edge="1">
          <mxGeometry width="50" height="50" relative="1" as="geometry">
            <mxPoint x="866.75" y="200" as="sourcePoint" />
            <mxPoint x="826.75" y="150" as="targetPoint" />
          </mxGeometry>
        </mxCell>
        <mxCell id="E7wvHHjbwRv63QAG3eaN-22" value="1" style="text;html=1;align=center;verticalAlign=middle;resizable=0;points=[];autosize=1;strokeColor=none;fillColor=none;" parent="1" vertex="1">
          <mxGeometry x="750" y="395" width="30" height="30" as="geometry" />
        </mxCell>
        <mxCell id="E7wvHHjbwRv63QAG3eaN-28" value="" style="endArrow=none;html=1;rounded=0;entryX=0;entryY=0.5;entryDx=0;entryDy=0;exitX=1;exitY=0.5;exitDx=0;exitDy=0;" parent="1" source="MZJGiQRWaNMhP6PaIQoo-24" target="MZJGiQRWaNMhP6PaIQoo-70" edge="1">
          <mxGeometry width="50" height="50" relative="1" as="geometry">
            <mxPoint x="800" y="390" as="sourcePoint" />
            <mxPoint x="850" y="340" as="targetPoint" />
          </mxGeometry>
        </mxCell>
        <mxCell id="E7wvHHjbwRv63QAG3eaN-30" value="1" style="text;html=1;align=center;verticalAlign=middle;resizable=0;points=[];autosize=1;strokeColor=none;fillColor=none;" parent="1" vertex="1">
          <mxGeometry x="795" y="348" width="30" height="30" as="geometry" />
        </mxCell>
        <mxCell id="E7wvHHjbwRv63QAG3eaN-32" value="Страна" style="rounded=0;whiteSpace=wrap;html=1;" parent="1" vertex="1">
          <mxGeometry x="160" y="140" width="120" height="60" as="geometry" />
        </mxCell>
        <mxCell id="E7wvHHjbwRv63QAG3eaN-33" value="id" style="ellipse;whiteSpace=wrap;html=1;" parent="1" vertex="1">
          <mxGeometry x="30" y="60" width="120" height="40" as="geometry" />
        </mxCell>
        <mxCell id="E7wvHHjbwRv63QAG3eaN-34" value="Название" style="ellipse;whiteSpace=wrap;html=1;" parent="1" vertex="1">
          <mxGeometry x="160" y="60" width="120" height="40" as="geometry" />
        </mxCell>
        <mxCell id="E7wvHHjbwRv63QAG3eaN-35" value="Континент" style="ellipse;whiteSpace=wrap;html=1;" parent="1" vertex="1">
          <mxGeometry x="290" y="60" width="120" height="40" as="geometry" />
        </mxCell>
        <mxCell id="E7wvHHjbwRv63QAG3eaN-37" value="" style="endArrow=none;html=1;rounded=0;entryX=0.5;entryY=1;entryDx=0;entryDy=0;exitX=0.5;exitY=0;exitDx=0;exitDy=0;" parent="1" source="E7wvHHjbwRv63QAG3eaN-32" target="E7wvHHjbwRv63QAG3eaN-33" edge="1">
          <mxGeometry width="50" height="50" relative="1" as="geometry">
            <mxPoint x="450" y="290" as="sourcePoint" />
            <mxPoint x="500" y="240" as="targetPoint" />
            <Array as="points">
              <mxPoint x="220" y="120" />
              <mxPoint x="90" y="120" />
            </Array>
          </mxGeometry>
        </mxCell>
        <mxCell id="E7wvHHjbwRv63QAG3eaN-38" value="" style="endArrow=none;html=1;rounded=0;entryX=0.5;entryY=1;entryDx=0;entryDy=0;" parent="1" target="E7wvHHjbwRv63QAG3eaN-35" edge="1">
          <mxGeometry width="50" height="50" relative="1" as="geometry">
            <mxPoint x="220" y="140" as="sourcePoint" />
            <mxPoint x="500" y="240" as="targetPoint" />
            <Array as="points">
              <mxPoint x="220" y="120" />
              <mxPoint x="350" y="120" />
            </Array>
          </mxGeometry>
        </mxCell>
        <mxCell id="E7wvHHjbwRv63QAG3eaN-39" value="" style="endArrow=none;html=1;rounded=0;entryX=0.5;entryY=1;entryDx=0;entryDy=0;exitX=0.5;exitY=0;exitDx=0;exitDy=0;" parent="1" source="E7wvHHjbwRv63QAG3eaN-32" target="E7wvHHjbwRv63QAG3eaN-34" edge="1">
          <mxGeometry width="50" height="50" relative="1" as="geometry">
            <mxPoint x="450" y="290" as="sourcePoint" />
            <mxPoint x="500" y="240" as="targetPoint" />
            <Array as="points">
              <mxPoint x="220" y="120" />
            </Array>
          </mxGeometry>
        </mxCell>
        <mxCell id="E7wvHHjbwRv63QAG3eaN-41" value="" style="endArrow=none;html=1;rounded=0;exitX=1;exitY=0.5;exitDx=0;exitDy=0;entryX=0.5;entryY=0;entryDx=0;entryDy=0;" parent="1" source="MZJGiQRWaNMhP6PaIQoo-2" target="MZJGiQRWaNMhP6PaIQoo-1" edge="1">
          <mxGeometry width="50" height="50" relative="1" as="geometry">
            <mxPoint x="470" y="310" as="sourcePoint" />
            <mxPoint x="520" y="260" as="targetPoint" />
            <Array as="points">
              <mxPoint x="70" y="310" />
            </Array>
          </mxGeometry>
        </mxCell>
        <mxCell id="E7wvHHjbwRv63QAG3eaN-43" value="" style="endArrow=none;html=1;rounded=0;exitX=1;exitY=0.5;exitDx=0;exitDy=0;entryX=0.5;entryY=0;entryDx=0;entryDy=0;" parent="1" source="MZJGiQRWaNMhP6PaIQoo-3" target="MZJGiQRWaNMhP6PaIQoo-1" edge="1">
          <mxGeometry width="50" height="50" relative="1" as="geometry">
            <mxPoint x="470" y="310" as="sourcePoint" />
            <mxPoint x="520" y="260" as="targetPoint" />
            <Array as="points">
              <mxPoint x="70" y="140" />
            </Array>
          </mxGeometry>
        </mxCell>
        <mxCell id="E7wvHHjbwRv63QAG3eaN-44" value="" style="endArrow=none;html=1;rounded=0;exitX=1;exitY=0.5;exitDx=0;exitDy=0;entryX=0.5;entryY=0;entryDx=0;entryDy=0;" parent="1" source="MZJGiQRWaNMhP6PaIQoo-4" target="MZJGiQRWaNMhP6PaIQoo-1" edge="1">
          <mxGeometry width="50" height="50" relative="1" as="geometry">
            <mxPoint x="470" y="310" as="sourcePoint" />
            <mxPoint x="70" y="350" as="targetPoint" />
            <Array as="points">
              <mxPoint x="70" y="190" />
            </Array>
          </mxGeometry>
        </mxCell>
        <mxCell id="E7wvHHjbwRv63QAG3eaN-45" value="" style="endArrow=none;html=1;rounded=0;exitX=1;exitY=0.5;exitDx=0;exitDy=0;entryX=0.5;entryY=0;entryDx=0;entryDy=0;" parent="1" source="MZJGiQRWaNMhP6PaIQoo-5" target="MZJGiQRWaNMhP6PaIQoo-1" edge="1">
          <mxGeometry width="50" height="50" relative="1" as="geometry">
            <mxPoint x="470" y="310" as="sourcePoint" />
            <mxPoint x="520" y="260" as="targetPoint" />
            <Array as="points">
              <mxPoint x="70" y="253" />
            </Array>
          </mxGeometry>
        </mxCell>
        <mxCell id="E7wvHHjbwRv63QAG3eaN-47" value="Проводится в" style="rhombus;whiteSpace=wrap;html=1;" parent="1" vertex="1">
          <mxGeometry x="351.25" y="190" width="106.5" height="50" as="geometry" />
        </mxCell>
        <mxCell id="E7wvHHjbwRv63QAG3eaN-48" value="" style="edgeStyle=orthogonalEdgeStyle;fontSize=12;html=1;endArrow=ERmany;rounded=0;entryX=0;entryY=0.5;entryDx=0;entryDy=0;" parent="1" edge="1">
          <mxGeometry width="100" height="100" relative="1" as="geometry">
            <mxPoint x="460" y="215" as="sourcePoint" />
            <mxPoint x="500" y="215" as="targetPoint" />
            <Array as="points">
              <mxPoint x="458" y="215" />
            </Array>
          </mxGeometry>
        </mxCell>
        <mxCell id="E7wvHHjbwRv63QAG3eaN-53" value="" style="endArrow=none;html=1;rounded=0;entryX=0;entryY=0.5;entryDx=0;entryDy=0;exitX=1;exitY=0.5;exitDx=0;exitDy=0;" parent="1" source="MZJGiQRWaNMhP6PaIQoo-1" target="MZJGiQRWaNMhP6PaIQoo-11" edge="1">
          <mxGeometry width="50" height="50" relative="1" as="geometry">
            <mxPoint x="100" y="320" as="sourcePoint" />
            <mxPoint x="150" y="270" as="targetPoint" />
            <Array as="points">
              <mxPoint x="160" y="385" />
            </Array>
          </mxGeometry>
        </mxCell>
        <mxCell id="E7wvHHjbwRv63QAG3eaN-55" value="" style="endArrow=none;html=1;rounded=0;exitX=1;exitY=0.5;exitDx=0;exitDy=0;entryX=0;entryY=0.5;entryDx=0;entryDy=0;" parent="1" source="E7wvHHjbwRv63QAG3eaN-32" target="E7wvHHjbwRv63QAG3eaN-47" edge="1">
          <mxGeometry width="50" height="50" relative="1" as="geometry">
            <mxPoint x="390" y="320" as="sourcePoint" />
            <mxPoint x="440" y="270" as="targetPoint" />
            <Array as="points">
              <mxPoint x="310" y="170" />
              <mxPoint x="310" y="215" />
            </Array>
          </mxGeometry>
        </mxCell>
        <mxCell id="E7wvHHjbwRv63QAG3eaN-56" value="" style="edgeStyle=orthogonalEdgeStyle;fontSize=12;html=1;endArrow=ERmany;rounded=0;entryX=0;entryY=0.75;entryDx=0;entryDy=0;exitX=1;exitY=0.5;exitDx=0;exitDy=0;" parent="1" source="MZJGiQRWaNMhP6PaIQoo-11" target="MZJGiQRWaNMhP6PaIQoo-10" edge="1">
          <mxGeometry width="100" height="100" relative="1" as="geometry">
            <mxPoint x="460" y="370" as="sourcePoint" />
            <mxPoint x="560" y="270" as="targetPoint" />
            <Array as="points" />
          </mxGeometry>
        </mxCell>
        <mxCell id="E7wvHHjbwRv63QAG3eaN-57" value="N" style="text;html=1;align=center;verticalAlign=middle;resizable=0;points=[];autosize=1;strokeColor=none;fillColor=none;" parent="1" vertex="1">
          <mxGeometry x="473" y="220" width="30" height="30" as="geometry" />
        </mxCell>
        <mxCell id="E7wvHHjbwRv63QAG3eaN-59" value="1" style="text;html=1;align=center;verticalAlign=middle;resizable=0;points=[];autosize=1;strokeColor=none;fillColor=none;" parent="1" vertex="1">
          <mxGeometry x="120" y="355" width="30" height="30" as="geometry" />
        </mxCell>
        <mxCell id="Kz7M87pStebf-G6dgFen-3" value="1" style="text;html=1;align=center;verticalAlign=middle;resizable=0;points=[];autosize=1;strokeColor=none;fillColor=none;" parent="1" vertex="1">
          <mxGeometry x="275" y="148" width="30" height="30" as="geometry" />
        </mxCell>
        <mxCell id="Kz7M87pStebf-G6dgFen-4" style="edgeStyle=none;rounded=0;html=1;exitX=1;exitY=0.5;exitDx=0;exitDy=0;startArrow=none;startFill=0;endArrow=none;endFill=0;" parent="1" source="Kz7M87pStebf-G6dgFen-5" target="Kz7M87pStebf-G6dgFen-8" edge="1">
          <mxGeometry relative="1" as="geometry" />
        </mxCell>
        <mxCell id="Kz7M87pStebf-G6dgFen-5" value="Отзыв" style="rounded=0;whiteSpace=wrap;html=1;" parent="1" vertex="1">
          <mxGeometry x="1290" y="270" width="120" height="60" as="geometry" />
        </mxCell>
        <mxCell id="Kz7M87pStebf-G6dgFen-6" style="edgeStyle=none;rounded=0;html=1;exitX=1;exitY=0.5;exitDx=0;exitDy=0;entryX=0.5;entryY=1;entryDx=0;entryDy=0;startArrow=none;startFill=0;endArrow=none;endFill=0;" parent="1" target="Kz7M87pStebf-G6dgFen-5" edge="1">
          <mxGeometry relative="1" as="geometry">
            <Array as="points">
              <mxPoint x="1350" y="410" />
            </Array>
            <mxPoint x="1344" y="410" as="sourcePoint" />
          </mxGeometry>
        </mxCell>
        <mxCell id="Kz7M87pStebf-G6dgFen-7" value="1" style="text;html=1;align=center;verticalAlign=middle;resizable=0;points=[];autosize=1;strokeColor=none;fillColor=none;" parent="1" vertex="1">
          <mxGeometry x="1347" y="330" width="30" height="30" as="geometry" />
        </mxCell>
        <mxCell id="Kz7M87pStebf-G6dgFen-8" value="id" style="ellipse;whiteSpace=wrap;html=1;" parent="1" vertex="1">
          <mxGeometry x="1467" y="280" width="120" height="40" as="geometry" />
        </mxCell>
        <mxCell id="Kz7M87pStebf-G6dgFen-9" style="edgeStyle=none;rounded=0;html=1;exitX=0;exitY=0.5;exitDx=0;exitDy=0;startArrow=none;startFill=0;endArrow=none;endFill=0;" parent="1" source="Kz7M87pStebf-G6dgFen-10" edge="1">
          <mxGeometry relative="1" as="geometry">
            <mxPoint x="1407" y="300" as="targetPoint" />
            <Array as="points">
              <mxPoint x="1437" y="375" />
              <mxPoint x="1437" y="300" />
            </Array>
          </mxGeometry>
        </mxCell>
        <mxCell id="Kz7M87pStebf-G6dgFen-10" value="id_тунир" style="ellipse;whiteSpace=wrap;html=1;" parent="1" vertex="1">
          <mxGeometry x="1467" y="355" width="120" height="40" as="geometry" />
        </mxCell>
        <mxCell id="Kz7M87pStebf-G6dgFen-11" style="edgeStyle=none;rounded=0;html=1;exitX=0;exitY=0.5;exitDx=0;exitDy=0;entryX=1;entryY=0.5;entryDx=0;entryDy=0;startArrow=none;startFill=0;endArrow=none;endFill=0;" parent="1" source="Kz7M87pStebf-G6dgFen-12" target="Kz7M87pStebf-G6dgFen-5" edge="1">
          <mxGeometry relative="1" as="geometry">
            <Array as="points">
              <mxPoint x="1437" y="445" />
              <mxPoint x="1437" y="300" />
            </Array>
          </mxGeometry>
        </mxCell>
        <mxCell id="Kz7M87pStebf-G6dgFen-12" value="Коментарий" style="ellipse;whiteSpace=wrap;html=1;" parent="1" vertex="1">
          <mxGeometry x="1467" y="425" width="120" height="40" as="geometry" />
        </mxCell>
        <mxCell id="Kz7M87pStebf-G6dgFen-13" value="Оценка" style="ellipse;whiteSpace=wrap;html=1;" parent="1" vertex="1">
          <mxGeometry x="1473.75" y="490" width="120" height="40" as="geometry" />
        </mxCell>
        <mxCell id="Kz7M87pStebf-G6dgFen-14" value="" style="endArrow=none;html=1;rounded=0;exitX=0;exitY=0.5;exitDx=0;exitDy=0;" parent="1" source="Kz7M87pStebf-G6dgFen-13" edge="1">
          <mxGeometry width="50" height="50" relative="1" as="geometry">
            <mxPoint x="1347" y="560" as="sourcePoint" />
            <mxPoint x="1437" y="300" as="targetPoint" />
            <Array as="points">
              <mxPoint x="1437" y="510" />
            </Array>
          </mxGeometry>
        </mxCell>
        <mxCell id="Kz7M87pStebf-G6dgFen-16" style="edgeStyle=none;rounded=0;html=1;exitX=1;exitY=0.5;exitDx=0;exitDy=0;startArrow=none;startFill=0;endArrow=none;endFill=0;" parent="1" source="Kz7M87pStebf-G6dgFen-17" target="Kz7M87pStebf-G6dgFen-21" edge="1">
          <mxGeometry relative="1" as="geometry" />
        </mxCell>
        <mxCell id="Kz7M87pStebf-G6dgFen-17" value="Заявка" style="rounded=0;whiteSpace=wrap;html=1;" parent="1" vertex="1">
          <mxGeometry x="399.5" y="560" width="120" height="60" as="geometry" />
        </mxCell>
        <mxCell id="Kz7M87pStebf-G6dgFen-21" value="id" style="ellipse;whiteSpace=wrap;html=1;" parent="1" vertex="1">
          <mxGeometry x="576.5" y="570" width="120" height="40" as="geometry" />
        </mxCell>
        <mxCell id="Kz7M87pStebf-G6dgFen-22" style="edgeStyle=none;rounded=0;html=1;exitX=0;exitY=0.5;exitDx=0;exitDy=0;startArrow=none;startFill=0;endArrow=none;endFill=0;" parent="1" source="Kz7M87pStebf-G6dgFen-23" edge="1">
          <mxGeometry relative="1" as="geometry">
            <mxPoint x="516.5" y="590" as="targetPoint" />
            <Array as="points">
              <mxPoint x="546.5" y="640" />
              <mxPoint x="546.5" y="590" />
            </Array>
          </mxGeometry>
        </mxCell>
        <mxCell id="Kz7M87pStebf-G6dgFen-23" value="id_тунир" style="ellipse;whiteSpace=wrap;html=1;" parent="1" vertex="1">
          <mxGeometry x="576.5" y="620" width="120" height="40" as="geometry" />
        </mxCell>
        <mxCell id="Kz7M87pStebf-G6dgFen-24" style="edgeStyle=none;rounded=0;html=1;exitX=0;exitY=0.5;exitDx=0;exitDy=0;entryX=1;entryY=0.5;entryDx=0;entryDy=0;startArrow=none;startFill=0;endArrow=none;endFill=0;" parent="1" edge="1">
          <mxGeometry relative="1" as="geometry">
            <Array as="points">
              <mxPoint x="546.5" y="700" />
              <mxPoint x="546.5" y="590" />
            </Array>
            <mxPoint x="576.5" y="700" as="sourcePoint" />
            <mxPoint x="519.5" y="590" as="targetPoint" />
          </mxGeometry>
        </mxCell>
        <mxCell id="Kz7M87pStebf-G6dgFen-25" value="id_команда" style="ellipse;whiteSpace=wrap;html=1;" parent="1" vertex="1">
          <mxGeometry x="576.5" y="680" width="120" height="40" as="geometry" />
        </mxCell>
        <mxCell id="Kz7M87pStebf-G6dgFen-26" value="id_пользователь" style="ellipse;whiteSpace=wrap;html=1;" parent="1" vertex="1">
          <mxGeometry x="576.5" y="730" width="120" height="40" as="geometry" />
        </mxCell>
        <mxCell id="Kz7M87pStebf-G6dgFen-27" value="" style="endArrow=none;html=1;rounded=0;exitX=0;exitY=0.5;exitDx=0;exitDy=0;" parent="1" source="Kz7M87pStebf-G6dgFen-26" edge="1">
          <mxGeometry width="50" height="50" relative="1" as="geometry">
            <mxPoint x="456.5" y="850" as="sourcePoint" />
            <mxPoint x="546.5" y="590" as="targetPoint" />
            <Array as="points">
              <mxPoint x="546.5" y="750" />
            </Array>
          </mxGeometry>
        </mxCell>
        <mxCell id="Kz7M87pStebf-G6dgFen-28" value="время создания" style="ellipse;whiteSpace=wrap;html=1;" parent="1" vertex="1">
          <mxGeometry x="576.5" y="780" width="120" height="40" as="geometry" />
        </mxCell>
        <mxCell id="Kz7M87pStebf-G6dgFen-29" value="" style="endArrow=none;html=1;rounded=0;entryX=0;entryY=0.5;entryDx=0;entryDy=0;" parent="1" target="Kz7M87pStebf-G6dgFen-28" edge="1">
          <mxGeometry width="50" height="50" relative="1" as="geometry">
            <mxPoint x="546.5" y="700" as="sourcePoint" />
            <mxPoint x="573.5" y="870" as="targetPoint" />
            <Array as="points">
              <mxPoint x="546.5" y="800" />
            </Array>
          </mxGeometry>
        </mxCell>
      </root>
    </mxGraphModel>
  </diagram>
  <diagram id="aMx6F42v57U8etBiUjTd" name="Use-Case">
    <mxGraphModel dx="1816" dy="514" grid="1" gridSize="10" guides="1" tooltips="1" connect="1" arrows="1" fold="1" page="1" pageScale="1" pageWidth="827" pageHeight="1169" math="0" shadow="0">
      <root>
        <mxCell id="0" />
        <mxCell id="1" parent="0" />
        <mxCell id="2" value="Гость" style="shape=umlActor;verticalLabelPosition=bottom;verticalAlign=top;html=1;outlineConnect=0;" parent="1" vertex="1">
          <mxGeometry x="74" y="430" width="30" height="60" as="geometry" />
        </mxCell>
        <mxCell id="9" value="Просмотр результ.&lt;br&gt;турнирной таблицы" style="ellipse;whiteSpace=wrap;html=1;" parent="1" vertex="1">
          <mxGeometry x="214" y="240" width="160" height="50" as="geometry" />
        </mxCell>
        <mxCell id="10" value="Вход без авторизации" style="ellipse;whiteSpace=wrap;html=1;" parent="1" vertex="1">
          <mxGeometry x="9" y="340" width="160" height="50" as="geometry" />
        </mxCell>
        <mxCell id="11" value="Авторизация" style="ellipse;whiteSpace=wrap;html=1;" parent="1" vertex="1">
          <mxGeometry x="214" y="330" width="160" height="50" as="geometry" />
        </mxCell>
        <mxCell id="sPxRwYfRaEwwGG1qHi4M-24" value="Судья" style="shape=umlActor;verticalLabelPosition=bottom;verticalAlign=top;html=1;outlineConnect=0;" parent="1" vertex="1">
          <mxGeometry x="521.5" y="360" width="30" height="60" as="geometry" />
        </mxCell>
        <mxCell id="sPxRwYfRaEwwGG1qHi4M-25" value="Просмотр информации клубах/турнирах" style="ellipse;whiteSpace=wrap;html=1;" parent="1" vertex="1">
          <mxGeometry x="214" y="605" width="160" height="50" as="geometry" />
        </mxCell>
        <mxCell id="sPxRwYfRaEwwGG1qHi4M-26" value="Выход из аккаунта" style="ellipse;whiteSpace=wrap;html=1;" parent="1" vertex="1">
          <mxGeometry x="658.5" y="370" width="160" height="50" as="geometry" />
        </mxCell>
        <mxCell id="sPxRwYfRaEwwGG1qHi4M-27" value="Просмотр результ.&lt;div&gt;матчей&lt;/div&gt;" style="ellipse;whiteSpace=wrap;html=1;" parent="1" vertex="1">
          <mxGeometry x="214" y="500" width="165" height="60" as="geometry" />
        </mxCell>
        <mxCell id="sPxRwYfRaEwwGG1qHi4M-30" value="Соз//удал турнира" style="ellipse;whiteSpace=wrap;html=1;" parent="1" vertex="1">
          <mxGeometry x="667" y="445" width="160" height="50" as="geometry" />
        </mxCell>
        <mxCell id="xHykTuojy1R_wexFuuKs-26" value="Администратор" style="shape=umlActor;verticalLabelPosition=bottom;verticalAlign=top;html=1;outlineConnect=0;" parent="1" vertex="1">
          <mxGeometry x="521.5" y="490" width="30" height="60" as="geometry" />
        </mxCell>
        <mxCell id="xHykTuojy1R_wexFuuKs-35" value="Ред/удал профилей &lt;br&gt;судей" style="ellipse;whiteSpace=wrap;html=1;" parent="1" vertex="1">
          <mxGeometry x="454" y="680" width="165" height="50" as="geometry" />
        </mxCell>
        <mxCell id="8oivlbm7wHxa7IUNmjgf-21" value="Вход с авторизацией" style="ellipse;whiteSpace=wrap;html=1;" parent="1" vertex="1">
          <mxGeometry x="658.5" y="290" width="160" height="50" as="geometry" />
        </mxCell>
        <mxCell id="8oivlbm7wHxa7IUNmjgf-26" value="Оставить отзыв о тунире&amp;nbsp;" style="ellipse;whiteSpace=wrap;html=1;" parent="1" vertex="1">
          <mxGeometry x="214" y="415" width="160" height="50" as="geometry" />
        </mxCell>
        <mxCell id="8oivlbm7wHxa7IUNmjgf-30" value="" style="endArrow=none;html=1;rounded=0;" parent="1" edge="1">
          <mxGeometry width="50" height="50" relative="1" as="geometry">
            <mxPoint x="511.5" y="580" as="sourcePoint" />
            <mxPoint x="511.5" y="360" as="targetPoint" />
            <Array as="points">
              <mxPoint x="471.5" y="580" />
              <mxPoint x="471.5" y="360" />
            </Array>
          </mxGeometry>
        </mxCell>
        <mxCell id="8oivlbm7wHxa7IUNmjgf-31" value="" style="endArrow=none;html=1;rounded=0;" parent="1" edge="1">
          <mxGeometry width="50" height="50" relative="1" as="geometry">
            <mxPoint x="559" y="580" as="sourcePoint" />
            <mxPoint x="559" y="360" as="targetPoint" />
            <Array as="points">
              <mxPoint x="599" y="580" />
              <mxPoint x="599" y="460" />
              <mxPoint x="599" y="360" />
            </Array>
          </mxGeometry>
        </mxCell>
        <mxCell id="8oivlbm7wHxa7IUNmjgf-32" value="" style="endArrow=classic;html=1;rounded=0;entryX=0.5;entryY=0;entryDx=0;entryDy=0;" parent="1" target="xHykTuojy1R_wexFuuKs-35" edge="1">
          <mxGeometry width="50" height="50" relative="1" as="geometry">
            <mxPoint x="536.5" y="580" as="sourcePoint" />
            <mxPoint x="421.5" y="590" as="targetPoint" />
          </mxGeometry>
        </mxCell>
        <mxCell id="8oivlbm7wHxa7IUNmjgf-33" value="" style="endArrow=none;html=1;rounded=0;" parent="1" edge="1">
          <mxGeometry width="50" height="50" relative="1" as="geometry">
            <mxPoint x="471" y="460" as="sourcePoint" />
            <mxPoint x="471" y="460" as="targetPoint" />
            <Array as="points">
              <mxPoint x="434" y="460" />
            </Array>
          </mxGeometry>
        </mxCell>
        <mxCell id="8oivlbm7wHxa7IUNmjgf-34" value="" style="endArrow=none;html=1;rounded=0;" parent="1" edge="1">
          <mxGeometry width="50" height="50" relative="1" as="geometry">
            <mxPoint x="600" y="470" as="sourcePoint" />
            <mxPoint x="611" y="470" as="targetPoint" />
          </mxGeometry>
        </mxCell>
        <mxCell id="8oivlbm7wHxa7IUNmjgf-36" value="" style="endArrow=classic;html=1;rounded=0;entryX=0.5;entryY=1;entryDx=0;entryDy=0;" parent="1" source="2" target="10" edge="1">
          <mxGeometry width="50" height="50" relative="1" as="geometry">
            <mxPoint x="244" y="550" as="sourcePoint" />
            <mxPoint x="294" y="500" as="targetPoint" />
          </mxGeometry>
        </mxCell>
        <mxCell id="8oivlbm7wHxa7IUNmjgf-39" value="" style="endArrow=classic;html=1;rounded=0;entryX=1;entryY=0.5;entryDx=0;entryDy=0;" parent="1" target="9" edge="1">
          <mxGeometry width="50" height="50" relative="1" as="geometry">
            <mxPoint x="434" y="460" as="sourcePoint" />
            <mxPoint x="524" y="150" as="targetPoint" />
          </mxGeometry>
        </mxCell>
        <mxCell id="8oivlbm7wHxa7IUNmjgf-40" value="" style="endArrow=classic;html=1;rounded=0;entryX=1;entryY=0.5;entryDx=0;entryDy=0;" parent="1" target="11" edge="1">
          <mxGeometry width="50" height="50" relative="1" as="geometry">
            <mxPoint x="434" y="460" as="sourcePoint" />
            <mxPoint x="534" y="160" as="targetPoint" />
          </mxGeometry>
        </mxCell>
        <mxCell id="8oivlbm7wHxa7IUNmjgf-41" value="" style="endArrow=classic;html=1;rounded=0;entryX=1;entryY=0.5;entryDx=0;entryDy=0;" parent="1" target="8oivlbm7wHxa7IUNmjgf-26" edge="1">
          <mxGeometry width="50" height="50" relative="1" as="geometry">
            <mxPoint x="434" y="460" as="sourcePoint" />
            <mxPoint x="544" y="170" as="targetPoint" />
          </mxGeometry>
        </mxCell>
        <mxCell id="8oivlbm7wHxa7IUNmjgf-44" value="" style="endArrow=classic;html=1;rounded=0;entryX=1;entryY=0.5;entryDx=0;entryDy=0;" parent="1" target="sPxRwYfRaEwwGG1qHi4M-27" edge="1">
          <mxGeometry width="50" height="50" relative="1" as="geometry">
            <mxPoint x="434" y="460" as="sourcePoint" />
            <mxPoint x="574" y="200" as="targetPoint" />
          </mxGeometry>
        </mxCell>
        <mxCell id="8oivlbm7wHxa7IUNmjgf-50" value="" style="endArrow=classic;html=1;rounded=0;entryX=1;entryY=0.5;entryDx=0;entryDy=0;" parent="1" target="sPxRwYfRaEwwGG1qHi4M-25" edge="1">
          <mxGeometry width="50" height="50" relative="1" as="geometry">
            <mxPoint x="434" y="460" as="sourcePoint" />
            <mxPoint x="634" y="260" as="targetPoint" />
          </mxGeometry>
        </mxCell>
        <mxCell id="8oivlbm7wHxa7IUNmjgf-52" value="" style="endArrow=classic;html=1;rounded=0;entryX=0;entryY=0.5;entryDx=0;entryDy=0;" parent="1" target="11" edge="1">
          <mxGeometry width="50" height="50" relative="1" as="geometry">
            <mxPoint x="164" y="460" as="sourcePoint" />
            <mxPoint x="644" y="270" as="targetPoint" />
          </mxGeometry>
        </mxCell>
        <mxCell id="8oivlbm7wHxa7IUNmjgf-53" value="" style="endArrow=classic;html=1;rounded=0;entryX=0;entryY=0.5;entryDx=0;entryDy=0;" parent="1" target="8oivlbm7wHxa7IUNmjgf-26" edge="1">
          <mxGeometry width="50" height="50" relative="1" as="geometry">
            <mxPoint x="164" y="460" as="sourcePoint" />
            <mxPoint x="654" y="280" as="targetPoint" />
          </mxGeometry>
        </mxCell>
        <mxCell id="8oivlbm7wHxa7IUNmjgf-55" value="" style="endArrow=classic;html=1;rounded=0;entryX=0;entryY=0.5;entryDx=0;entryDy=0;" parent="1" target="sPxRwYfRaEwwGG1qHi4M-27" edge="1">
          <mxGeometry width="50" height="50" relative="1" as="geometry">
            <mxPoint x="164" y="460" as="sourcePoint" />
            <mxPoint x="674" y="300" as="targetPoint" />
          </mxGeometry>
        </mxCell>
        <mxCell id="8oivlbm7wHxa7IUNmjgf-56" value="" style="endArrow=classic;html=1;rounded=0;entryX=0;entryY=0.5;entryDx=0;entryDy=0;" parent="1" target="sPxRwYfRaEwwGG1qHi4M-25" edge="1">
          <mxGeometry width="50" height="50" relative="1" as="geometry">
            <mxPoint x="164" y="460" as="sourcePoint" />
            <mxPoint x="684" y="310" as="targetPoint" />
          </mxGeometry>
        </mxCell>
        <mxCell id="8oivlbm7wHxa7IUNmjgf-58" value="" style="endArrow=none;html=1;rounded=0;" parent="1" source="2" edge="1">
          <mxGeometry width="50" height="50" relative="1" as="geometry">
            <mxPoint x="384" y="500" as="sourcePoint" />
            <mxPoint x="164" y="460" as="targetPoint" />
          </mxGeometry>
        </mxCell>
        <mxCell id="8oivlbm7wHxa7IUNmjgf-59" value="" style="endArrow=classic;html=1;rounded=0;entryX=0;entryY=0.5;entryDx=0;entryDy=0;" parent="1" target="9" edge="1">
          <mxGeometry width="50" height="50" relative="1" as="geometry">
            <mxPoint x="164" y="460" as="sourcePoint" />
            <mxPoint x="704" y="330" as="targetPoint" />
          </mxGeometry>
        </mxCell>
        <mxCell id="8oivlbm7wHxa7IUNmjgf-62" value="" style="endArrow=classic;html=1;rounded=0;entryX=0;entryY=0.5;entryDx=0;entryDy=0;" parent="1" target="8oivlbm7wHxa7IUNmjgf-21" edge="1">
          <mxGeometry width="50" height="50" relative="1" as="geometry">
            <mxPoint x="611.5" y="470" as="sourcePoint" />
            <mxPoint x="501.5" y="140" as="targetPoint" />
          </mxGeometry>
        </mxCell>
        <mxCell id="8oivlbm7wHxa7IUNmjgf-63" value="" style="endArrow=classic;html=1;rounded=0;entryX=0;entryY=0.5;entryDx=0;entryDy=0;" parent="1" target="sPxRwYfRaEwwGG1qHi4M-26" edge="1">
          <mxGeometry width="50" height="50" relative="1" as="geometry">
            <mxPoint x="611.5" y="470" as="sourcePoint" />
            <mxPoint x="571.5" y="170" as="targetPoint" />
          </mxGeometry>
        </mxCell>
        <mxCell id="8oivlbm7wHxa7IUNmjgf-65" value="" style="endArrow=classic;html=1;rounded=0;entryX=0;entryY=0.5;entryDx=0;entryDy=0;" parent="1" target="sPxRwYfRaEwwGG1qHi4M-30" edge="1">
          <mxGeometry width="50" height="50" relative="1" as="geometry">
            <mxPoint x="611.5" y="470" as="sourcePoint" />
            <mxPoint x="571.5" y="390" as="targetPoint" />
          </mxGeometry>
        </mxCell>
        <mxCell id="eSrBS9QMJhNpbvIOdaj2-12" value="Футболист" style="shape=umlActor;verticalLabelPosition=bottom;verticalAlign=top;html=1;outlineConnect=0;" parent="1" vertex="1">
          <mxGeometry x="-715" y="500" width="30" height="60" as="geometry" />
        </mxCell>
        <mxCell id="eSrBS9QMJhNpbvIOdaj2-53" style="edgeStyle=orthogonalEdgeStyle;rounded=0;orthogonalLoop=1;jettySize=auto;html=1;entryX=0;entryY=0.5;entryDx=0;entryDy=0;" parent="1" source="eSrBS9QMJhNpbvIOdaj2-14" target="eSrBS9QMJhNpbvIOdaj2-50" edge="1">
          <mxGeometry relative="1" as="geometry" />
        </mxCell>
        <mxCell id="eSrBS9QMJhNpbvIOdaj2-14" value="Тренер" style="shape=umlActor;verticalLabelPosition=bottom;verticalAlign=top;html=1;outlineConnect=0;" parent="1" vertex="1">
          <mxGeometry x="-295" y="495" width="30" height="60" as="geometry" />
        </mxCell>
        <mxCell id="eSrBS9QMJhNpbvIOdaj2-17" value="Просмотр результ.&lt;br&gt;турнирной таблицы" style="ellipse;whiteSpace=wrap;html=1;" parent="1" vertex="1">
          <mxGeometry x="-575" y="620" width="160" height="50" as="geometry" />
        </mxCell>
        <mxCell id="eSrBS9QMJhNpbvIOdaj2-18" value="Подача запрос на вступление в команду&amp;nbsp;" style="ellipse;whiteSpace=wrap;html=1;" parent="1" vertex="1">
          <mxGeometry x="-780" y="410" width="160" height="50" as="geometry" />
        </mxCell>
        <mxCell id="eSrBS9QMJhNpbvIOdaj2-20" value="Изменить свои данные" style="ellipse;whiteSpace=wrap;html=1;" parent="1" vertex="1">
          <mxGeometry x="-582" y="555" width="160" height="50" as="geometry" />
        </mxCell>
        <mxCell id="eSrBS9QMJhNpbvIOdaj2-21" value="Просмотр информации о турнирах" style="ellipse;whiteSpace=wrap;html=1;" parent="1" vertex="1">
          <mxGeometry x="-575" y="760" width="160" height="50" as="geometry" />
        </mxCell>
        <mxCell id="eSrBS9QMJhNpbvIOdaj2-25" value="Оставить отзыв о тунире&amp;nbsp;" style="ellipse;whiteSpace=wrap;html=1;" parent="1" vertex="1">
          <mxGeometry x="-573" y="690" width="160" height="50" as="geometry" />
        </mxCell>
        <mxCell id="eSrBS9QMJhNpbvIOdaj2-26" value="" style="endArrow=classic;html=1;rounded=0;entryX=0.5;entryY=1;entryDx=0;entryDy=0;" parent="1" target="eSrBS9QMJhNpbvIOdaj2-18" edge="1">
          <mxGeometry width="50" height="50" relative="1" as="geometry">
            <mxPoint x="-700" y="500" as="sourcePoint" />
            <mxPoint x="-495" y="570" as="targetPoint" />
          </mxGeometry>
        </mxCell>
        <mxCell id="eSrBS9QMJhNpbvIOdaj2-27" value="" style="endArrow=classic;html=1;rounded=0;entryX=1;entryY=0.5;entryDx=0;entryDy=0;" parent="1" target="eSrBS9QMJhNpbvIOdaj2-20" edge="1">
          <mxGeometry width="50" height="50" relative="1" as="geometry">
            <mxPoint x="-355" y="530" as="sourcePoint" />
            <mxPoint x="-435" y="490" as="targetPoint" />
          </mxGeometry>
        </mxCell>
        <mxCell id="eSrBS9QMJhNpbvIOdaj2-28" value="" style="endArrow=classic;html=1;rounded=0;entryX=1;entryY=0.5;entryDx=0;entryDy=0;" parent="1" target="eSrBS9QMJhNpbvIOdaj2-17" edge="1">
          <mxGeometry width="50" height="50" relative="1" as="geometry">
            <mxPoint x="-355" y="530" as="sourcePoint" />
            <mxPoint x="-265" y="220" as="targetPoint" />
          </mxGeometry>
        </mxCell>
        <mxCell id="eSrBS9QMJhNpbvIOdaj2-29" value="" style="endArrow=classic;html=1;rounded=0;entryX=1;entryY=0.5;entryDx=0;entryDy=0;" parent="1" target="eSrBS9QMJhNpbvIOdaj2-46" edge="1">
          <mxGeometry width="50" height="50" relative="1" as="geometry">
            <mxPoint x="-355" y="530" as="sourcePoint" />
            <mxPoint x="-415" y="425" as="targetPoint" />
          </mxGeometry>
        </mxCell>
        <mxCell id="eSrBS9QMJhNpbvIOdaj2-30" value="" style="endArrow=classic;html=1;rounded=0;entryX=1;entryY=0.5;entryDx=0;entryDy=0;" parent="1" target="eSrBS9QMJhNpbvIOdaj2-44" edge="1">
          <mxGeometry width="50" height="50" relative="1" as="geometry">
            <mxPoint x="-355" y="530" as="sourcePoint" />
            <mxPoint x="-415" y="495" as="targetPoint" />
          </mxGeometry>
        </mxCell>
        <mxCell id="eSrBS9QMJhNpbvIOdaj2-31" value="" style="endArrow=classic;html=1;rounded=0;entryX=1;entryY=0.5;entryDx=0;entryDy=0;" parent="1" target="eSrBS9QMJhNpbvIOdaj2-45" edge="1">
          <mxGeometry width="50" height="50" relative="1" as="geometry">
            <mxPoint x="-356" y="530" as="sourcePoint" />
            <mxPoint x="-416.0000000000002" y="565" as="targetPoint" />
          </mxGeometry>
        </mxCell>
        <mxCell id="eSrBS9QMJhNpbvIOdaj2-32" value="" style="endArrow=classic;html=1;rounded=0;entryX=1;entryY=0.5;entryDx=0;entryDy=0;" parent="1" edge="1">
          <mxGeometry width="50" height="50" relative="1" as="geometry">
            <mxPoint x="-355" y="530" as="sourcePoint" />
            <mxPoint x="-415" y="645" as="targetPoint" />
          </mxGeometry>
        </mxCell>
        <mxCell id="eSrBS9QMJhNpbvIOdaj2-33" value="" style="endArrow=classic;html=1;rounded=0;entryX=1;entryY=0.5;entryDx=0;entryDy=0;" parent="1" target="eSrBS9QMJhNpbvIOdaj2-25" edge="1">
          <mxGeometry width="50" height="50" relative="1" as="geometry">
            <mxPoint x="-355" y="530" as="sourcePoint" />
            <mxPoint x="-412.5000000000002" y="710" as="targetPoint" />
          </mxGeometry>
        </mxCell>
        <mxCell id="eSrBS9QMJhNpbvIOdaj2-34" value="" style="endArrow=classic;html=1;rounded=0;entryX=1;entryY=0.5;entryDx=0;entryDy=0;" parent="1" target="eSrBS9QMJhNpbvIOdaj2-21" edge="1">
          <mxGeometry width="50" height="50" relative="1" as="geometry">
            <mxPoint x="-355" y="530" as="sourcePoint" />
            <mxPoint x="-155" y="330" as="targetPoint" />
          </mxGeometry>
        </mxCell>
        <mxCell id="eSrBS9QMJhNpbvIOdaj2-35" value="" style="endArrow=classic;html=1;rounded=0;entryX=0;entryY=0.5;entryDx=0;entryDy=0;" parent="1" target="eSrBS9QMJhNpbvIOdaj2-46" edge="1">
          <mxGeometry width="50" height="50" relative="1" as="geometry">
            <mxPoint x="-625" y="530" as="sourcePoint" />
            <mxPoint x="-575" y="425" as="targetPoint" />
          </mxGeometry>
        </mxCell>
        <mxCell id="eSrBS9QMJhNpbvIOdaj2-36" value="" style="endArrow=classic;html=1;rounded=0;entryX=0;entryY=0.5;entryDx=0;entryDy=0;" parent="1" target="eSrBS9QMJhNpbvIOdaj2-44" edge="1">
          <mxGeometry width="50" height="50" relative="1" as="geometry">
            <mxPoint x="-625" y="530" as="sourcePoint" />
            <mxPoint x="-575" y="495" as="targetPoint" />
          </mxGeometry>
        </mxCell>
        <mxCell id="eSrBS9QMJhNpbvIOdaj2-37" value="" style="endArrow=classic;html=1;rounded=0;entryX=0;entryY=0.5;entryDx=0;entryDy=0;" parent="1" edge="1">
          <mxGeometry width="50" height="50" relative="1" as="geometry">
            <mxPoint x="-625" y="530" as="sourcePoint" />
            <mxPoint x="-575" y="645" as="targetPoint" />
          </mxGeometry>
        </mxCell>
        <mxCell id="eSrBS9QMJhNpbvIOdaj2-38" value="" style="endArrow=classic;html=1;rounded=0;entryX=0;entryY=0.5;entryDx=0;entryDy=0;" parent="1" target="eSrBS9QMJhNpbvIOdaj2-25" edge="1">
          <mxGeometry width="50" height="50" relative="1" as="geometry">
            <mxPoint x="-625" y="530" as="sourcePoint" />
            <mxPoint x="-577.4999999999998" y="710" as="targetPoint" />
          </mxGeometry>
        </mxCell>
        <mxCell id="eSrBS9QMJhNpbvIOdaj2-39" value="" style="endArrow=classic;html=1;rounded=0;entryX=0;entryY=0.5;entryDx=0;entryDy=0;" parent="1" target="eSrBS9QMJhNpbvIOdaj2-21" edge="1">
          <mxGeometry width="50" height="50" relative="1" as="geometry">
            <mxPoint x="-625" y="530" as="sourcePoint" />
            <mxPoint x="-105" y="380" as="targetPoint" />
          </mxGeometry>
        </mxCell>
        <mxCell id="eSrBS9QMJhNpbvIOdaj2-41" value="" style="endArrow=none;html=1;rounded=0;" parent="1" edge="1">
          <mxGeometry width="50" height="50" relative="1" as="geometry">
            <mxPoint x="-685" y="530" as="sourcePoint" />
            <mxPoint x="-625" y="530" as="targetPoint" />
          </mxGeometry>
        </mxCell>
        <mxCell id="eSrBS9QMJhNpbvIOdaj2-42" value="" style="endArrow=classic;html=1;rounded=0;entryX=0;entryY=0.5;entryDx=0;entryDy=0;" parent="1" target="eSrBS9QMJhNpbvIOdaj2-17" edge="1">
          <mxGeometry width="50" height="50" relative="1" as="geometry">
            <mxPoint x="-625" y="530" as="sourcePoint" />
            <mxPoint x="-85" y="400" as="targetPoint" />
          </mxGeometry>
        </mxCell>
        <mxCell id="eSrBS9QMJhNpbvIOdaj2-43" value="" style="endArrow=classic;html=1;rounded=0;entryX=0;entryY=0.5;entryDx=0;entryDy=0;" parent="1" target="eSrBS9QMJhNpbvIOdaj2-20" edge="1">
          <mxGeometry width="50" height="50" relative="1" as="geometry">
            <mxPoint x="-625" y="530" as="sourcePoint" />
            <mxPoint x="-75" y="410" as="targetPoint" />
          </mxGeometry>
        </mxCell>
        <mxCell id="eSrBS9QMJhNpbvIOdaj2-44" value="Выход из аккаунта" style="ellipse;whiteSpace=wrap;html=1;" parent="1" vertex="1">
          <mxGeometry x="-580" y="495" width="160" height="50" as="geometry" />
        </mxCell>
        <mxCell id="eSrBS9QMJhNpbvIOdaj2-45" value="Авторизация" style="ellipse;whiteSpace=wrap;html=1;" parent="1" vertex="1">
          <mxGeometry x="-582" y="365" width="160" height="50" as="geometry" />
        </mxCell>
        <mxCell id="eSrBS9QMJhNpbvIOdaj2-46" value="Вход с авторизацией" style="ellipse;whiteSpace=wrap;html=1;" parent="1" vertex="1">
          <mxGeometry x="-580" y="430" width="160" height="50" as="geometry" />
        </mxCell>
        <mxCell id="eSrBS9QMJhNpbvIOdaj2-49" value="" style="endArrow=classic;html=1;rounded=0;entryX=0;entryY=0.5;entryDx=0;entryDy=0;" parent="1" target="eSrBS9QMJhNpbvIOdaj2-45" edge="1">
          <mxGeometry width="50" height="50" relative="1" as="geometry">
            <mxPoint x="-624" y="530" as="sourcePoint" />
            <mxPoint x="-614" y="460" as="targetPoint" />
          </mxGeometry>
        </mxCell>
        <mxCell id="eSrBS9QMJhNpbvIOdaj2-50" value="Подача запрос на вступление в тунира" style="ellipse;whiteSpace=wrap;html=1;" parent="1" vertex="1">
          <mxGeometry x="-200" y="500" width="160" height="50" as="geometry" />
        </mxCell>
        <mxCell id="eSrBS9QMJhNpbvIOdaj2-51" value="Прием запроса от футболистов" style="ellipse;whiteSpace=wrap;html=1;" parent="1" vertex="1">
          <mxGeometry x="-360" y="400" width="160" height="50" as="geometry" />
        </mxCell>
        <mxCell id="eSrBS9QMJhNpbvIOdaj2-52" value="" style="endArrow=classic;html=1;rounded=0;exitX=0.5;exitY=0;exitDx=0;exitDy=0;exitPerimeter=0;entryX=0.5;entryY=1;entryDx=0;entryDy=0;" parent="1" source="eSrBS9QMJhNpbvIOdaj2-14" target="eSrBS9QMJhNpbvIOdaj2-51" edge="1">
          <mxGeometry width="50" height="50" relative="1" as="geometry">
            <mxPoint x="-395" y="570" as="sourcePoint" />
            <mxPoint x="-345" y="520" as="targetPoint" />
          </mxGeometry>
        </mxCell>
        <mxCell id="eSrBS9QMJhNpbvIOdaj2-55" value="" style="endArrow=none;html=1;rounded=0;" parent="1" edge="1">
          <mxGeometry width="50" height="50" relative="1" as="geometry">
            <mxPoint x="-356" y="529.5" as="sourcePoint" />
            <mxPoint x="-298" y="529.5" as="targetPoint" />
          </mxGeometry>
        </mxCell>
        <mxCell id="eSrBS9QMJhNpbvIOdaj2-60" value="Ввод результата матча" style="ellipse;whiteSpace=wrap;html=1;" parent="1" vertex="1">
          <mxGeometry x="667" y="600" width="160" height="50" as="geometry" />
        </mxCell>
        <mxCell id="eSrBS9QMJhNpbvIOdaj2-61" value="" style="endArrow=classic;html=1;rounded=0;entryX=0;entryY=0.5;entryDx=0;entryDy=0;" parent="1" target="eSrBS9QMJhNpbvIOdaj2-60" edge="1">
          <mxGeometry width="50" height="50" relative="1" as="geometry">
            <mxPoint x="612" y="470" as="sourcePoint" />
            <mxPoint x="762" y="540" as="targetPoint" />
          </mxGeometry>
        </mxCell>
        <mxCell id="VFQLdJ8FpEiMqduoSYhK-12" value="Содание своей команды" style="ellipse;whiteSpace=wrap;html=1;" parent="1" vertex="1">
          <mxGeometry x="-200" y="435" width="160" height="50" as="geometry" />
        </mxCell>
        <mxCell id="VFQLdJ8FpEiMqduoSYhK-13" value="" style="endArrow=classic;html=1;rounded=0;entryX=0;entryY=0.5;entryDx=0;entryDy=0;" parent="1" target="VFQLdJ8FpEiMqduoSYhK-12" edge="1">
          <mxGeometry width="50" height="50" relative="1" as="geometry">
            <mxPoint x="-260" y="510" as="sourcePoint" />
            <mxPoint x="-70" y="480" as="targetPoint" />
          </mxGeometry>
        </mxCell>
        <mxCell id="kK85sslUdwADjX7pmkeb-11" style="edgeStyle=orthogonalEdgeStyle;rounded=0;orthogonalLoop=1;jettySize=auto;html=1;exitX=0.5;exitY=1;exitDx=0;exitDy=0;" parent="1" edge="1">
          <mxGeometry relative="1" as="geometry">
            <mxPoint x="738.5" y="460" as="sourcePoint" />
            <mxPoint x="738.5" y="460" as="targetPoint" />
          </mxGeometry>
        </mxCell>
        <mxCell id="_rG2kF-4C1YLBaucvb5Y-11" value="Соз/обновить матч" style="ellipse;whiteSpace=wrap;html=1;" vertex="1" parent="1">
          <mxGeometry x="667" y="520" width="160" height="50" as="geometry" />
        </mxCell>
        <mxCell id="_rG2kF-4C1YLBaucvb5Y-12" value="" style="endArrow=classic;html=1;rounded=0;entryX=0;entryY=0.5;entryDx=0;entryDy=0;" edge="1" parent="1">
          <mxGeometry width="50" height="50" relative="1" as="geometry">
            <mxPoint x="611" y="470" as="sourcePoint" />
            <mxPoint x="668" y="545.0000000000001" as="targetPoint" />
          </mxGeometry>
        </mxCell>
      </root>
    </mxGraphModel>
  </diagram>
  <diagram id="sy-r8d1R38RQJTDHVyFc" name="ER-Модель в нотации Мартина">
    <mxGraphModel dx="1050" dy="565" grid="1" gridSize="10" guides="1" tooltips="1" connect="1" arrows="1" fold="1" page="1" pageScale="1" pageWidth="827" pageHeight="1169" math="0" shadow="0">
      <root>
        <mxCell id="0" />
        <mxCell id="1" parent="0" />
        <mxCell id="Wem_VNP8cEbjcYmOimlQ-28" value="Users" style="shape=table;startSize=30;container=1;collapsible=1;childLayout=tableLayout;fixedRows=1;rowLines=0;fontStyle=1;align=center;resizeLast=1;html=1;" parent="1" vertex="1">
          <mxGeometry x="890" y="510" width="180" height="270" as="geometry" />
        </mxCell>
        <mxCell id="Wem_VNP8cEbjcYmOimlQ-29" value="" style="shape=tableRow;horizontal=0;startSize=0;swimlaneHead=0;swimlaneBody=0;fillColor=none;collapsible=0;dropTarget=0;points=[[0,0.5],[1,0.5]];portConstraint=eastwest;top=0;left=0;right=0;bottom=1;" parent="Wem_VNP8cEbjcYmOimlQ-28" vertex="1">
          <mxGeometry y="30" width="180" height="30" as="geometry" />
        </mxCell>
        <mxCell id="Wem_VNP8cEbjcYmOimlQ-30" value="PK" style="shape=partialRectangle;connectable=0;fillColor=none;top=0;left=0;bottom=0;right=0;fontStyle=1;overflow=hidden;whiteSpace=wrap;html=1;" parent="Wem_VNP8cEbjcYmOimlQ-29" vertex="1">
          <mxGeometry width="30" height="30" as="geometry">
            <mxRectangle width="30" height="30" as="alternateBounds" />
          </mxGeometry>
        </mxCell>
        <mxCell id="Wem_VNP8cEbjcYmOimlQ-31" value="Id: serial" style="shape=partialRectangle;connectable=0;fillColor=none;top=0;left=0;bottom=0;right=0;align=left;spacingLeft=6;fontStyle=5;overflow=hidden;whiteSpace=wrap;html=1;" parent="Wem_VNP8cEbjcYmOimlQ-29" vertex="1">
          <mxGeometry x="30" width="150" height="30" as="geometry">
            <mxRectangle width="150" height="30" as="alternateBounds" />
          </mxGeometry>
        </mxCell>
        <mxCell id="Wem_VNP8cEbjcYmOimlQ-32" value="" style="shape=tableRow;horizontal=0;startSize=0;swimlaneHead=0;swimlaneBody=0;fillColor=none;collapsible=0;dropTarget=0;points=[[0,0.5],[1,0.5]];portConstraint=eastwest;top=0;left=0;right=0;bottom=0;" parent="Wem_VNP8cEbjcYmOimlQ-28" vertex="1">
          <mxGeometry y="60" width="180" height="30" as="geometry" />
        </mxCell>
        <mxCell id="Wem_VNP8cEbjcYmOimlQ-33" value="" style="shape=partialRectangle;connectable=0;fillColor=none;top=0;left=0;bottom=0;right=0;editable=1;overflow=hidden;whiteSpace=wrap;html=1;" parent="Wem_VNP8cEbjcYmOimlQ-32" vertex="1">
          <mxGeometry width="30" height="30" as="geometry">
            <mxRectangle width="30" height="30" as="alternateBounds" />
          </mxGeometry>
        </mxCell>
        <mxCell id="Wem_VNP8cEbjcYmOimlQ-34" value="Login: varchar(64)" style="shape=partialRectangle;connectable=0;fillColor=none;top=0;left=0;bottom=0;right=0;align=left;spacingLeft=6;overflow=hidden;whiteSpace=wrap;html=1;" parent="Wem_VNP8cEbjcYmOimlQ-32" vertex="1">
          <mxGeometry x="30" width="150" height="30" as="geometry">
            <mxRectangle width="150" height="30" as="alternateBounds" />
          </mxGeometry>
        </mxCell>
        <mxCell id="Wem_VNP8cEbjcYmOimlQ-35" value="" style="shape=tableRow;horizontal=0;startSize=0;swimlaneHead=0;swimlaneBody=0;fillColor=none;collapsible=0;dropTarget=0;points=[[0,0.5],[1,0.5]];portConstraint=eastwest;top=0;left=0;right=0;bottom=0;" parent="Wem_VNP8cEbjcYmOimlQ-28" vertex="1">
          <mxGeometry y="90" width="180" height="30" as="geometry" />
        </mxCell>
        <mxCell id="Wem_VNP8cEbjcYmOimlQ-36" value="" style="shape=partialRectangle;connectable=0;fillColor=none;top=0;left=0;bottom=0;right=0;editable=1;overflow=hidden;whiteSpace=wrap;html=1;" parent="Wem_VNP8cEbjcYmOimlQ-35" vertex="1">
          <mxGeometry width="30" height="30" as="geometry">
            <mxRectangle width="30" height="30" as="alternateBounds" />
          </mxGeometry>
        </mxCell>
        <mxCell id="Wem_VNP8cEbjcYmOimlQ-37" value="Password: varchar(64)" style="shape=partialRectangle;connectable=0;fillColor=none;top=0;left=0;bottom=0;right=0;align=left;spacingLeft=6;overflow=hidden;whiteSpace=wrap;html=1;" parent="Wem_VNP8cEbjcYmOimlQ-35" vertex="1">
          <mxGeometry x="30" width="150" height="30" as="geometry">
            <mxRectangle width="150" height="30" as="alternateBounds" />
          </mxGeometry>
        </mxCell>
        <mxCell id="Wem_VNP8cEbjcYmOimlQ-38" value="" style="shape=tableRow;horizontal=0;startSize=0;swimlaneHead=0;swimlaneBody=0;fillColor=none;collapsible=0;dropTarget=0;points=[[0,0.5],[1,0.5]];portConstraint=eastwest;top=0;left=0;right=0;bottom=0;" parent="Wem_VNP8cEbjcYmOimlQ-28" vertex="1">
          <mxGeometry y="120" width="180" height="30" as="geometry" />
        </mxCell>
        <mxCell id="Wem_VNP8cEbjcYmOimlQ-39" value="" style="shape=partialRectangle;connectable=0;fillColor=none;top=0;left=0;bottom=0;right=0;editable=1;overflow=hidden;whiteSpace=wrap;html=1;" parent="Wem_VNP8cEbjcYmOimlQ-38" vertex="1">
          <mxGeometry width="30" height="30" as="geometry">
            <mxRectangle width="30" height="30" as="alternateBounds" />
          </mxGeometry>
        </mxCell>
        <mxCell id="Wem_VNP8cEbjcYmOimlQ-40" value="Role: varchar(64)" style="shape=partialRectangle;connectable=0;fillColor=none;top=0;left=0;bottom=0;right=0;align=left;spacingLeft=6;overflow=hidden;whiteSpace=wrap;html=1;" parent="Wem_VNP8cEbjcYmOimlQ-38" vertex="1">
          <mxGeometry x="30" width="150" height="30" as="geometry">
            <mxRectangle width="150" height="30" as="alternateBounds" />
          </mxGeometry>
        </mxCell>
        <mxCell id="Wem_VNP8cEbjcYmOimlQ-41" value="" style="shape=tableRow;horizontal=0;startSize=0;swimlaneHead=0;swimlaneBody=0;fillColor=none;collapsible=0;dropTarget=0;points=[[0,0.5],[1,0.5]];portConstraint=eastwest;top=0;left=0;right=0;bottom=0;" parent="Wem_VNP8cEbjcYmOimlQ-28" vertex="1">
          <mxGeometry y="150" width="180" height="30" as="geometry" />
        </mxCell>
        <mxCell id="Wem_VNP8cEbjcYmOimlQ-42" value="" style="shape=partialRectangle;connectable=0;fillColor=none;top=0;left=0;bottom=0;right=0;editable=1;overflow=hidden;whiteSpace=wrap;html=1;" parent="Wem_VNP8cEbjcYmOimlQ-41" vertex="1">
          <mxGeometry width="30" height="30" as="geometry">
            <mxRectangle width="30" height="30" as="alternateBounds" />
          </mxGeometry>
        </mxCell>
        <mxCell id="Wem_VNP8cEbjcYmOimlQ-43" value="FirstName: varchar(32)" style="shape=partialRectangle;connectable=0;fillColor=none;top=0;left=0;bottom=0;right=0;align=left;spacingLeft=6;overflow=hidden;whiteSpace=wrap;html=1;" parent="Wem_VNP8cEbjcYmOimlQ-41" vertex="1">
          <mxGeometry x="30" width="150" height="30" as="geometry">
            <mxRectangle width="150" height="30" as="alternateBounds" />
          </mxGeometry>
        </mxCell>
        <mxCell id="Wem_VNP8cEbjcYmOimlQ-44" value="" style="shape=tableRow;horizontal=0;startSize=0;swimlaneHead=0;swimlaneBody=0;fillColor=none;collapsible=0;dropTarget=0;points=[[0,0.5],[1,0.5]];portConstraint=eastwest;top=0;left=0;right=0;bottom=0;" parent="Wem_VNP8cEbjcYmOimlQ-28" vertex="1">
          <mxGeometry y="180" width="180" height="30" as="geometry" />
        </mxCell>
        <mxCell id="Wem_VNP8cEbjcYmOimlQ-45" value="" style="shape=partialRectangle;connectable=0;fillColor=none;top=0;left=0;bottom=0;right=0;editable=1;overflow=hidden;whiteSpace=wrap;html=1;" parent="Wem_VNP8cEbjcYmOimlQ-44" vertex="1">
          <mxGeometry width="30" height="30" as="geometry">
            <mxRectangle width="30" height="30" as="alternateBounds" />
          </mxGeometry>
        </mxCell>
        <mxCell id="Wem_VNP8cEbjcYmOimlQ-46" value="LastName: varchar(32)" style="shape=partialRectangle;connectable=0;fillColor=none;top=0;left=0;bottom=0;right=0;align=left;spacingLeft=6;overflow=hidden;whiteSpace=wrap;html=1;" parent="Wem_VNP8cEbjcYmOimlQ-44" vertex="1">
          <mxGeometry x="30" width="150" height="30" as="geometry">
            <mxRectangle width="150" height="30" as="alternateBounds" />
          </mxGeometry>
        </mxCell>
        <mxCell id="Wem_VNP8cEbjcYmOimlQ-47" value="" style="shape=tableRow;horizontal=0;startSize=0;swimlaneHead=0;swimlaneBody=0;fillColor=none;collapsible=0;dropTarget=0;points=[[0,0.5],[1,0.5]];portConstraint=eastwest;top=0;left=0;right=0;bottom=0;" parent="Wem_VNP8cEbjcYmOimlQ-28" vertex="1">
          <mxGeometry y="210" width="180" height="30" as="geometry" />
        </mxCell>
        <mxCell id="Wem_VNP8cEbjcYmOimlQ-48" value="" style="shape=partialRectangle;connectable=0;fillColor=none;top=0;left=0;bottom=0;right=0;editable=1;overflow=hidden;whiteSpace=wrap;html=1;" parent="Wem_VNP8cEbjcYmOimlQ-47" vertex="1">
          <mxGeometry width="30" height="30" as="geometry">
            <mxRectangle width="30" height="30" as="alternateBounds" />
          </mxGeometry>
        </mxCell>
        <mxCell id="Wem_VNP8cEbjcYmOimlQ-49" value="Age: int" style="shape=partialRectangle;connectable=0;fillColor=none;top=0;left=0;bottom=0;right=0;align=left;spacingLeft=6;overflow=hidden;whiteSpace=wrap;html=1;" parent="Wem_VNP8cEbjcYmOimlQ-47" vertex="1">
          <mxGeometry x="30" width="150" height="30" as="geometry">
            <mxRectangle width="150" height="30" as="alternateBounds" />
          </mxGeometry>
        </mxCell>
        <mxCell id="r1NIfst5Ad4VSNgofK6q-6" value="" style="shape=tableRow;horizontal=0;startSize=0;swimlaneHead=0;swimlaneBody=0;fillColor=none;collapsible=0;dropTarget=0;points=[[0,0.5],[1,0.5]];portConstraint=eastwest;top=0;left=0;right=0;bottom=0;" parent="Wem_VNP8cEbjcYmOimlQ-28" vertex="1">
          <mxGeometry y="240" width="180" height="30" as="geometry" />
        </mxCell>
        <mxCell id="r1NIfst5Ad4VSNgofK6q-7" value="" style="shape=partialRectangle;connectable=0;fillColor=none;top=0;left=0;bottom=0;right=0;editable=1;overflow=hidden;whiteSpace=wrap;html=1;" parent="r1NIfst5Ad4VSNgofK6q-6" vertex="1">
          <mxGeometry width="30" height="30" as="geometry">
            <mxRectangle width="30" height="30" as="alternateBounds" />
          </mxGeometry>
        </mxCell>
        <mxCell id="r1NIfst5Ad4VSNgofK6q-8" value="idClub: int" style="shape=partialRectangle;connectable=0;fillColor=none;top=0;left=0;bottom=0;right=0;align=left;spacingLeft=6;overflow=hidden;whiteSpace=wrap;html=1;" parent="r1NIfst5Ad4VSNgofK6q-6" vertex="1">
          <mxGeometry x="30" width="150" height="30" as="geometry">
            <mxRectangle width="150" height="30" as="alternateBounds" />
          </mxGeometry>
        </mxCell>
        <mxCell id="Wem_VNP8cEbjcYmOimlQ-50" value="Stadiums" style="shape=table;startSize=30;container=1;collapsible=1;childLayout=tableLayout;fixedRows=1;rowLines=0;fontStyle=1;align=center;resizeLast=1;html=1;" parent="1" vertex="1">
          <mxGeometry x="250" y="350" width="180" height="150" as="geometry" />
        </mxCell>
        <mxCell id="Wem_VNP8cEbjcYmOimlQ-51" value="" style="shape=tableRow;horizontal=0;startSize=0;swimlaneHead=0;swimlaneBody=0;fillColor=none;collapsible=0;dropTarget=0;points=[[0,0.5],[1,0.5]];portConstraint=eastwest;top=0;left=0;right=0;bottom=1;" parent="Wem_VNP8cEbjcYmOimlQ-50" vertex="1">
          <mxGeometry y="30" width="180" height="30" as="geometry" />
        </mxCell>
        <mxCell id="Wem_VNP8cEbjcYmOimlQ-52" value="PK" style="shape=partialRectangle;connectable=0;fillColor=none;top=0;left=0;bottom=0;right=0;fontStyle=1;overflow=hidden;whiteSpace=wrap;html=1;" parent="Wem_VNP8cEbjcYmOimlQ-51" vertex="1">
          <mxGeometry width="30" height="30" as="geometry">
            <mxRectangle width="30" height="30" as="alternateBounds" />
          </mxGeometry>
        </mxCell>
        <mxCell id="Wem_VNP8cEbjcYmOimlQ-53" value="Id: serial" style="shape=partialRectangle;connectable=0;fillColor=none;top=0;left=0;bottom=0;right=0;align=left;spacingLeft=6;fontStyle=5;overflow=hidden;whiteSpace=wrap;html=1;" parent="Wem_VNP8cEbjcYmOimlQ-51" vertex="1">
          <mxGeometry x="30" width="150" height="30" as="geometry">
            <mxRectangle width="150" height="30" as="alternateBounds" />
          </mxGeometry>
        </mxCell>
        <mxCell id="Wem_VNP8cEbjcYmOimlQ-54" value="" style="shape=tableRow;horizontal=0;startSize=0;swimlaneHead=0;swimlaneBody=0;fillColor=none;collapsible=0;dropTarget=0;points=[[0,0.5],[1,0.5]];portConstraint=eastwest;top=0;left=0;right=0;bottom=0;" parent="Wem_VNP8cEbjcYmOimlQ-50" vertex="1">
          <mxGeometry y="60" width="180" height="30" as="geometry" />
        </mxCell>
        <mxCell id="Wem_VNP8cEbjcYmOimlQ-55" value="" style="shape=partialRectangle;connectable=0;fillColor=none;top=0;left=0;bottom=0;right=0;editable=1;overflow=hidden;whiteSpace=wrap;html=1;" parent="Wem_VNP8cEbjcYmOimlQ-54" vertex="1">
          <mxGeometry width="30" height="30" as="geometry">
            <mxRectangle width="30" height="30" as="alternateBounds" />
          </mxGeometry>
        </mxCell>
        <mxCell id="Wem_VNP8cEbjcYmOimlQ-56" value="Name: varchar(64)" style="shape=partialRectangle;connectable=0;fillColor=none;top=0;left=0;bottom=0;right=0;align=left;spacingLeft=6;overflow=hidden;whiteSpace=wrap;html=1;" parent="Wem_VNP8cEbjcYmOimlQ-54" vertex="1">
          <mxGeometry x="30" width="150" height="30" as="geometry">
            <mxRectangle width="150" height="30" as="alternateBounds" />
          </mxGeometry>
        </mxCell>
        <mxCell id="Wem_VNP8cEbjcYmOimlQ-57" value="" style="shape=tableRow;horizontal=0;startSize=0;swimlaneHead=0;swimlaneBody=0;fillColor=none;collapsible=0;dropTarget=0;points=[[0,0.5],[1,0.5]];portConstraint=eastwest;top=0;left=0;right=0;bottom=0;" parent="Wem_VNP8cEbjcYmOimlQ-50" vertex="1">
          <mxGeometry y="90" width="180" height="30" as="geometry" />
        </mxCell>
        <mxCell id="Wem_VNP8cEbjcYmOimlQ-58" value="" style="shape=partialRectangle;connectable=0;fillColor=none;top=0;left=0;bottom=0;right=0;editable=1;overflow=hidden;whiteSpace=wrap;html=1;" parent="Wem_VNP8cEbjcYmOimlQ-57" vertex="1">
          <mxGeometry width="30" height="30" as="geometry">
            <mxRectangle width="30" height="30" as="alternateBounds" />
          </mxGeometry>
        </mxCell>
        <mxCell id="Wem_VNP8cEbjcYmOimlQ-59" value="Capacity: int" style="shape=partialRectangle;connectable=0;fillColor=none;top=0;left=0;bottom=0;right=0;align=left;spacingLeft=6;overflow=hidden;whiteSpace=wrap;html=1;" parent="Wem_VNP8cEbjcYmOimlQ-57" vertex="1">
          <mxGeometry x="30" width="150" height="30" as="geometry">
            <mxRectangle width="150" height="30" as="alternateBounds" />
          </mxGeometry>
        </mxCell>
        <mxCell id="Wem_VNP8cEbjcYmOimlQ-60" value="" style="shape=tableRow;horizontal=0;startSize=0;swimlaneHead=0;swimlaneBody=0;fillColor=none;collapsible=0;dropTarget=0;points=[[0,0.5],[1,0.5]];portConstraint=eastwest;top=0;left=0;right=0;bottom=0;" parent="Wem_VNP8cEbjcYmOimlQ-50" vertex="1">
          <mxGeometry y="120" width="180" height="30" as="geometry" />
        </mxCell>
        <mxCell id="Wem_VNP8cEbjcYmOimlQ-61" value="FK" style="shape=partialRectangle;connectable=0;fillColor=none;top=0;left=0;bottom=0;right=0;editable=1;overflow=hidden;whiteSpace=wrap;html=1;" parent="Wem_VNP8cEbjcYmOimlQ-60" vertex="1">
          <mxGeometry width="30" height="30" as="geometry">
            <mxRectangle width="30" height="30" as="alternateBounds" />
          </mxGeometry>
        </mxCell>
        <mxCell id="Wem_VNP8cEbjcYmOimlQ-62" value="IdCountry: int" style="shape=partialRectangle;connectable=0;fillColor=none;top=0;left=0;bottom=0;right=0;align=left;spacingLeft=6;overflow=hidden;whiteSpace=wrap;html=1;" parent="Wem_VNP8cEbjcYmOimlQ-60" vertex="1">
          <mxGeometry x="30" width="150" height="30" as="geometry">
            <mxRectangle width="150" height="30" as="alternateBounds" />
          </mxGeometry>
        </mxCell>
        <mxCell id="Wem_VNP8cEbjcYmOimlQ-66" value="Matches" style="shape=table;startSize=30;container=1;collapsible=1;childLayout=tableLayout;fixedRows=1;rowLines=0;fontStyle=1;align=center;resizeLast=1;html=1;" parent="1" vertex="1">
          <mxGeometry x="280" y="790" width="180" height="300" as="geometry" />
        </mxCell>
        <mxCell id="Wem_VNP8cEbjcYmOimlQ-67" value="" style="shape=tableRow;horizontal=0;startSize=0;swimlaneHead=0;swimlaneBody=0;fillColor=none;collapsible=0;dropTarget=0;points=[[0,0.5],[1,0.5]];portConstraint=eastwest;top=0;left=0;right=0;bottom=1;" parent="Wem_VNP8cEbjcYmOimlQ-66" vertex="1">
          <mxGeometry y="30" width="180" height="30" as="geometry" />
        </mxCell>
        <mxCell id="Wem_VNP8cEbjcYmOimlQ-68" value="PK" style="shape=partialRectangle;connectable=0;fillColor=none;top=0;left=0;bottom=0;right=0;fontStyle=1;overflow=hidden;whiteSpace=wrap;html=1;" parent="Wem_VNP8cEbjcYmOimlQ-67" vertex="1">
          <mxGeometry width="30" height="30" as="geometry">
            <mxRectangle width="30" height="30" as="alternateBounds" />
          </mxGeometry>
        </mxCell>
        <mxCell id="Wem_VNP8cEbjcYmOimlQ-69" value="Id: serial" style="shape=partialRectangle;connectable=0;fillColor=none;top=0;left=0;bottom=0;right=0;align=left;spacingLeft=6;fontStyle=5;overflow=hidden;whiteSpace=wrap;html=1;" parent="Wem_VNP8cEbjcYmOimlQ-67" vertex="1">
          <mxGeometry x="30" width="150" height="30" as="geometry">
            <mxRectangle width="150" height="30" as="alternateBounds" />
          </mxGeometry>
        </mxCell>
        <mxCell id="Wem_VNP8cEbjcYmOimlQ-70" value="" style="shape=tableRow;horizontal=0;startSize=0;swimlaneHead=0;swimlaneBody=0;fillColor=none;collapsible=0;dropTarget=0;points=[[0,0.5],[1,0.5]];portConstraint=eastwest;top=0;left=0;right=0;bottom=0;" parent="Wem_VNP8cEbjcYmOimlQ-66" vertex="1">
          <mxGeometry y="60" width="180" height="30" as="geometry" />
        </mxCell>
        <mxCell id="Wem_VNP8cEbjcYmOimlQ-71" value="" style="shape=partialRectangle;connectable=0;fillColor=none;top=0;left=0;bottom=0;right=0;editable=1;overflow=hidden;whiteSpace=wrap;html=1;" parent="Wem_VNP8cEbjcYmOimlQ-70" vertex="1">
          <mxGeometry width="30" height="30" as="geometry">
            <mxRectangle width="30" height="30" as="alternateBounds" />
          </mxGeometry>
        </mxCell>
        <mxCell id="Wem_VNP8cEbjcYmOimlQ-72" value="GoalHomeTeam: int" style="shape=partialRectangle;connectable=0;fillColor=none;top=0;left=0;bottom=0;right=0;align=left;spacingLeft=6;overflow=hidden;whiteSpace=wrap;html=1;" parent="Wem_VNP8cEbjcYmOimlQ-70" vertex="1">
          <mxGeometry x="30" width="150" height="30" as="geometry">
            <mxRectangle width="150" height="30" as="alternateBounds" />
          </mxGeometry>
        </mxCell>
        <mxCell id="Wem_VNP8cEbjcYmOimlQ-73" value="" style="shape=tableRow;horizontal=0;startSize=0;swimlaneHead=0;swimlaneBody=0;fillColor=none;collapsible=0;dropTarget=0;points=[[0,0.5],[1,0.5]];portConstraint=eastwest;top=0;left=0;right=0;bottom=0;" parent="Wem_VNP8cEbjcYmOimlQ-66" vertex="1">
          <mxGeometry y="90" width="180" height="30" as="geometry" />
        </mxCell>
        <mxCell id="Wem_VNP8cEbjcYmOimlQ-74" value="" style="shape=partialRectangle;connectable=0;fillColor=none;top=0;left=0;bottom=0;right=0;editable=1;overflow=hidden;whiteSpace=wrap;html=1;" parent="Wem_VNP8cEbjcYmOimlQ-73" vertex="1">
          <mxGeometry width="30" height="30" as="geometry">
            <mxRectangle width="30" height="30" as="alternateBounds" />
          </mxGeometry>
        </mxCell>
        <mxCell id="Wem_VNP8cEbjcYmOimlQ-75" value="GoalGuessTeam: int" style="shape=partialRectangle;connectable=0;fillColor=none;top=0;left=0;bottom=0;right=0;align=left;spacingLeft=6;overflow=hidden;whiteSpace=wrap;html=1;" parent="Wem_VNP8cEbjcYmOimlQ-73" vertex="1">
          <mxGeometry x="30" width="150" height="30" as="geometry">
            <mxRectangle width="150" height="30" as="alternateBounds" />
          </mxGeometry>
        </mxCell>
        <mxCell id="Wem_VNP8cEbjcYmOimlQ-76" value="" style="shape=tableRow;horizontal=0;startSize=0;swimlaneHead=0;swimlaneBody=0;fillColor=none;collapsible=0;dropTarget=0;points=[[0,0.5],[1,0.5]];portConstraint=eastwest;top=0;left=0;right=0;bottom=0;" parent="Wem_VNP8cEbjcYmOimlQ-66" vertex="1">
          <mxGeometry y="120" width="180" height="30" as="geometry" />
        </mxCell>
        <mxCell id="Wem_VNP8cEbjcYmOimlQ-77" value="FK" style="shape=partialRectangle;connectable=0;fillColor=none;top=0;left=0;bottom=0;right=0;editable=1;overflow=hidden;whiteSpace=wrap;html=1;" parent="Wem_VNP8cEbjcYmOimlQ-76" vertex="1">
          <mxGeometry width="30" height="30" as="geometry">
            <mxRectangle width="30" height="30" as="alternateBounds" />
          </mxGeometry>
        </mxCell>
        <mxCell id="Wem_VNP8cEbjcYmOimlQ-78" value="IdLeague: int" style="shape=partialRectangle;connectable=0;fillColor=none;top=0;left=0;bottom=0;right=0;align=left;spacingLeft=6;overflow=hidden;whiteSpace=wrap;html=1;" parent="Wem_VNP8cEbjcYmOimlQ-76" vertex="1">
          <mxGeometry x="30" width="150" height="30" as="geometry">
            <mxRectangle width="150" height="30" as="alternateBounds" />
          </mxGeometry>
        </mxCell>
        <mxCell id="Wem_VNP8cEbjcYmOimlQ-79" value="" style="shape=tableRow;horizontal=0;startSize=0;swimlaneHead=0;swimlaneBody=0;fillColor=none;collapsible=0;dropTarget=0;points=[[0,0.5],[1,0.5]];portConstraint=eastwest;top=0;left=0;right=0;bottom=0;" parent="Wem_VNP8cEbjcYmOimlQ-66" vertex="1">
          <mxGeometry y="150" width="180" height="30" as="geometry" />
        </mxCell>
        <mxCell id="Wem_VNP8cEbjcYmOimlQ-80" value="FK" style="shape=partialRectangle;connectable=0;fillColor=none;top=0;left=0;bottom=0;right=0;editable=1;overflow=hidden;whiteSpace=wrap;html=1;" parent="Wem_VNP8cEbjcYmOimlQ-79" vertex="1">
          <mxGeometry width="30" height="30" as="geometry">
            <mxRectangle width="30" height="30" as="alternateBounds" />
          </mxGeometry>
        </mxCell>
        <mxCell id="Wem_VNP8cEbjcYmOimlQ-81" value="IdStadium: int" style="shape=partialRectangle;connectable=0;fillColor=none;top=0;left=0;bottom=0;right=0;align=left;spacingLeft=6;overflow=hidden;whiteSpace=wrap;html=1;" parent="Wem_VNP8cEbjcYmOimlQ-79" vertex="1">
          <mxGeometry x="30" width="150" height="30" as="geometry">
            <mxRectangle width="150" height="30" as="alternateBounds" />
          </mxGeometry>
        </mxCell>
        <mxCell id="Wem_VNP8cEbjcYmOimlQ-98" value="" style="shape=tableRow;horizontal=0;startSize=0;swimlaneHead=0;swimlaneBody=0;fillColor=none;collapsible=0;dropTarget=0;points=[[0,0.5],[1,0.5]];portConstraint=eastwest;top=0;left=0;right=0;bottom=0;" parent="Wem_VNP8cEbjcYmOimlQ-66" vertex="1">
          <mxGeometry y="180" width="180" height="30" as="geometry" />
        </mxCell>
        <mxCell id="Wem_VNP8cEbjcYmOimlQ-99" value="FK" style="shape=partialRectangle;connectable=0;fillColor=none;top=0;left=0;bottom=0;right=0;editable=1;overflow=hidden;whiteSpace=wrap;html=1;" parent="Wem_VNP8cEbjcYmOimlQ-98" vertex="1">
          <mxGeometry width="30" height="30" as="geometry">
            <mxRectangle width="30" height="30" as="alternateBounds" />
          </mxGeometry>
        </mxCell>
        <mxCell id="Wem_VNP8cEbjcYmOimlQ-100" value="IdHomeTeam: int" style="shape=partialRectangle;connectable=0;fillColor=none;top=0;left=0;bottom=0;right=0;align=left;spacingLeft=6;overflow=hidden;whiteSpace=wrap;html=1;" parent="Wem_VNP8cEbjcYmOimlQ-98" vertex="1">
          <mxGeometry x="30" width="150" height="30" as="geometry">
            <mxRectangle width="150" height="30" as="alternateBounds" />
          </mxGeometry>
        </mxCell>
        <mxCell id="Wem_VNP8cEbjcYmOimlQ-101" value="" style="shape=tableRow;horizontal=0;startSize=0;swimlaneHead=0;swimlaneBody=0;fillColor=none;collapsible=0;dropTarget=0;points=[[0,0.5],[1,0.5]];portConstraint=eastwest;top=0;left=0;right=0;bottom=0;" parent="Wem_VNP8cEbjcYmOimlQ-66" vertex="1">
          <mxGeometry y="210" width="180" height="30" as="geometry" />
        </mxCell>
        <mxCell id="Wem_VNP8cEbjcYmOimlQ-102" value="FK" style="shape=partialRectangle;connectable=0;fillColor=none;top=0;left=0;bottom=0;right=0;editable=1;overflow=hidden;whiteSpace=wrap;html=1;" parent="Wem_VNP8cEbjcYmOimlQ-101" vertex="1">
          <mxGeometry width="30" height="30" as="geometry">
            <mxRectangle width="30" height="30" as="alternateBounds" />
          </mxGeometry>
        </mxCell>
        <mxCell id="Wem_VNP8cEbjcYmOimlQ-103" value="IdGuessTeam: int" style="shape=partialRectangle;connectable=0;fillColor=none;top=0;left=0;bottom=0;right=0;align=left;spacingLeft=6;overflow=hidden;whiteSpace=wrap;html=1;" parent="Wem_VNP8cEbjcYmOimlQ-101" vertex="1">
          <mxGeometry x="30" width="150" height="30" as="geometry">
            <mxRectangle width="150" height="30" as="alternateBounds" />
          </mxGeometry>
        </mxCell>
        <mxCell id="z0nNyD0C92ORL5Wl-oYR-33" value="" style="shape=tableRow;horizontal=0;startSize=0;swimlaneHead=0;swimlaneBody=0;fillColor=none;collapsible=0;dropTarget=0;points=[[0,0.5],[1,0.5]];portConstraint=eastwest;top=0;left=0;right=0;bottom=0;" parent="Wem_VNP8cEbjcYmOimlQ-66" vertex="1">
          <mxGeometry y="240" width="180" height="30" as="geometry" />
        </mxCell>
        <mxCell id="z0nNyD0C92ORL5Wl-oYR-34" value="" style="shape=partialRectangle;connectable=0;fillColor=none;top=0;left=0;bottom=0;right=0;editable=1;overflow=hidden;whiteSpace=wrap;html=1;" parent="z0nNyD0C92ORL5Wl-oYR-33" vertex="1">
          <mxGeometry width="30" height="30" as="geometry">
            <mxRectangle width="30" height="30" as="alternateBounds" />
          </mxGeometry>
        </mxCell>
        <mxCell id="z0nNyD0C92ORL5Wl-oYR-35" value="TimeStart: varchar(64)" style="shape=partialRectangle;connectable=0;fillColor=none;top=0;left=0;bottom=0;right=0;align=left;spacingLeft=6;overflow=hidden;whiteSpace=wrap;html=1;" parent="z0nNyD0C92ORL5Wl-oYR-33" vertex="1">
          <mxGeometry x="30" width="150" height="30" as="geometry">
            <mxRectangle width="150" height="30" as="alternateBounds" />
          </mxGeometry>
        </mxCell>
        <mxCell id="z0nNyD0C92ORL5Wl-oYR-36" value="" style="shape=tableRow;horizontal=0;startSize=0;swimlaneHead=0;swimlaneBody=0;fillColor=none;collapsible=0;dropTarget=0;points=[[0,0.5],[1,0.5]];portConstraint=eastwest;top=0;left=0;right=0;bottom=0;" parent="Wem_VNP8cEbjcYmOimlQ-66" vertex="1">
          <mxGeometry y="270" width="180" height="30" as="geometry" />
        </mxCell>
        <mxCell id="z0nNyD0C92ORL5Wl-oYR-37" value="" style="shape=partialRectangle;connectable=0;fillColor=none;top=0;left=0;bottom=0;right=0;editable=1;overflow=hidden;whiteSpace=wrap;html=1;" parent="z0nNyD0C92ORL5Wl-oYR-36" vertex="1">
          <mxGeometry width="30" height="30" as="geometry">
            <mxRectangle width="30" height="30" as="alternateBounds" />
          </mxGeometry>
        </mxCell>
        <mxCell id="z0nNyD0C92ORL5Wl-oYR-38" value="Week : int" style="shape=partialRectangle;connectable=0;fillColor=none;top=0;left=0;bottom=0;right=0;align=left;spacingLeft=6;overflow=hidden;whiteSpace=wrap;html=1;" parent="z0nNyD0C92ORL5Wl-oYR-36" vertex="1">
          <mxGeometry x="30" width="150" height="30" as="geometry">
            <mxRectangle width="150" height="30" as="alternateBounds" />
          </mxGeometry>
        </mxCell>
        <mxCell id="Wem_VNP8cEbjcYmOimlQ-104" value="Leagues" style="shape=table;startSize=30;container=1;collapsible=1;childLayout=tableLayout;fixedRows=1;rowLines=0;fontStyle=1;align=center;resizeLast=1;html=1;" parent="1" vertex="1">
          <mxGeometry x="590" y="540" width="180" height="180" as="geometry" />
        </mxCell>
        <mxCell id="Wem_VNP8cEbjcYmOimlQ-105" value="" style="shape=tableRow;horizontal=0;startSize=0;swimlaneHead=0;swimlaneBody=0;fillColor=none;collapsible=0;dropTarget=0;points=[[0,0.5],[1,0.5]];portConstraint=eastwest;top=0;left=0;right=0;bottom=1;" parent="Wem_VNP8cEbjcYmOimlQ-104" vertex="1">
          <mxGeometry y="30" width="180" height="30" as="geometry" />
        </mxCell>
        <mxCell id="Wem_VNP8cEbjcYmOimlQ-106" value="PK" style="shape=partialRectangle;connectable=0;fillColor=none;top=0;left=0;bottom=0;right=0;fontStyle=1;overflow=hidden;whiteSpace=wrap;html=1;" parent="Wem_VNP8cEbjcYmOimlQ-105" vertex="1">
          <mxGeometry width="30" height="30" as="geometry">
            <mxRectangle width="30" height="30" as="alternateBounds" />
          </mxGeometry>
        </mxCell>
        <mxCell id="Wem_VNP8cEbjcYmOimlQ-107" value="Id: serial" style="shape=partialRectangle;connectable=0;fillColor=none;top=0;left=0;bottom=0;right=0;align=left;spacingLeft=6;fontStyle=5;overflow=hidden;whiteSpace=wrap;html=1;" parent="Wem_VNP8cEbjcYmOimlQ-105" vertex="1">
          <mxGeometry x="30" width="150" height="30" as="geometry">
            <mxRectangle width="150" height="30" as="alternateBounds" />
          </mxGeometry>
        </mxCell>
        <mxCell id="Wem_VNP8cEbjcYmOimlQ-108" value="" style="shape=tableRow;horizontal=0;startSize=0;swimlaneHead=0;swimlaneBody=0;fillColor=none;collapsible=0;dropTarget=0;points=[[0,0.5],[1,0.5]];portConstraint=eastwest;top=0;left=0;right=0;bottom=0;" parent="Wem_VNP8cEbjcYmOimlQ-104" vertex="1">
          <mxGeometry y="60" width="180" height="30" as="geometry" />
        </mxCell>
        <mxCell id="Wem_VNP8cEbjcYmOimlQ-109" value="" style="shape=partialRectangle;connectable=0;fillColor=none;top=0;left=0;bottom=0;right=0;editable=1;overflow=hidden;whiteSpace=wrap;html=1;" parent="Wem_VNP8cEbjcYmOimlQ-108" vertex="1">
          <mxGeometry width="30" height="30" as="geometry">
            <mxRectangle width="30" height="30" as="alternateBounds" />
          </mxGeometry>
        </mxCell>
        <mxCell id="Wem_VNP8cEbjcYmOimlQ-110" value="Name: varchar(64)" style="shape=partialRectangle;connectable=0;fillColor=none;top=0;left=0;bottom=0;right=0;align=left;spacingLeft=6;overflow=hidden;whiteSpace=wrap;html=1;" parent="Wem_VNP8cEbjcYmOimlQ-108" vertex="1">
          <mxGeometry x="30" width="150" height="30" as="geometry">
            <mxRectangle width="150" height="30" as="alternateBounds" />
          </mxGeometry>
        </mxCell>
        <mxCell id="Wem_VNP8cEbjcYmOimlQ-111" value="" style="shape=tableRow;horizontal=0;startSize=0;swimlaneHead=0;swimlaneBody=0;fillColor=none;collapsible=0;dropTarget=0;points=[[0,0.5],[1,0.5]];portConstraint=eastwest;top=0;left=0;right=0;bottom=0;" parent="Wem_VNP8cEbjcYmOimlQ-104" vertex="1">
          <mxGeometry y="90" width="180" height="30" as="geometry" />
        </mxCell>
        <mxCell id="Wem_VNP8cEbjcYmOimlQ-112" value="" style="shape=partialRectangle;connectable=0;fillColor=none;top=0;left=0;bottom=0;right=0;editable=1;overflow=hidden;whiteSpace=wrap;html=1;" parent="Wem_VNP8cEbjcYmOimlQ-111" vertex="1">
          <mxGeometry width="30" height="30" as="geometry">
            <mxRectangle width="30" height="30" as="alternateBounds" />
          </mxGeometry>
        </mxCell>
        <mxCell id="Wem_VNP8cEbjcYmOimlQ-113" value="Rating: double" style="shape=partialRectangle;connectable=0;fillColor=none;top=0;left=0;bottom=0;right=0;align=left;spacingLeft=6;overflow=hidden;whiteSpace=wrap;html=1;" parent="Wem_VNP8cEbjcYmOimlQ-111" vertex="1">
          <mxGeometry x="30" width="150" height="30" as="geometry">
            <mxRectangle width="150" height="30" as="alternateBounds" />
          </mxGeometry>
        </mxCell>
        <mxCell id="Wem_VNP8cEbjcYmOimlQ-114" value="" style="shape=tableRow;horizontal=0;startSize=0;swimlaneHead=0;swimlaneBody=0;fillColor=none;collapsible=0;dropTarget=0;points=[[0,0.5],[1,0.5]];portConstraint=eastwest;top=0;left=0;right=0;bottom=0;" parent="Wem_VNP8cEbjcYmOimlQ-104" vertex="1">
          <mxGeometry y="120" width="180" height="30" as="geometry" />
        </mxCell>
        <mxCell id="Wem_VNP8cEbjcYmOimlQ-115" value="FK" style="shape=partialRectangle;connectable=0;fillColor=none;top=0;left=0;bottom=0;right=0;editable=1;overflow=hidden;whiteSpace=wrap;html=1;" parent="Wem_VNP8cEbjcYmOimlQ-114" vertex="1">
          <mxGeometry width="30" height="30" as="geometry">
            <mxRectangle width="30" height="30" as="alternateBounds" />
          </mxGeometry>
        </mxCell>
        <mxCell id="Wem_VNP8cEbjcYmOimlQ-116" value="IdUser: int" style="shape=partialRectangle;connectable=0;fillColor=none;top=0;left=0;bottom=0;right=0;align=left;spacingLeft=6;overflow=hidden;whiteSpace=wrap;html=1;" parent="Wem_VNP8cEbjcYmOimlQ-114" vertex="1">
          <mxGeometry x="30" width="150" height="30" as="geometry">
            <mxRectangle width="150" height="30" as="alternateBounds" />
          </mxGeometry>
        </mxCell>
        <mxCell id="Wem_VNP8cEbjcYmOimlQ-117" value="" style="shape=tableRow;horizontal=0;startSize=0;swimlaneHead=0;swimlaneBody=0;fillColor=none;collapsible=0;dropTarget=0;points=[[0,0.5],[1,0.5]];portConstraint=eastwest;top=0;left=0;right=0;bottom=0;" parent="Wem_VNP8cEbjcYmOimlQ-104" vertex="1">
          <mxGeometry y="150" width="180" height="30" as="geometry" />
        </mxCell>
        <mxCell id="Wem_VNP8cEbjcYmOimlQ-118" value="FK" style="shape=partialRectangle;connectable=0;fillColor=none;top=0;left=0;bottom=0;right=0;editable=1;overflow=hidden;whiteSpace=wrap;html=1;" parent="Wem_VNP8cEbjcYmOimlQ-117" vertex="1">
          <mxGeometry width="30" height="30" as="geometry">
            <mxRectangle width="30" height="30" as="alternateBounds" />
          </mxGeometry>
        </mxCell>
        <mxCell id="Wem_VNP8cEbjcYmOimlQ-119" value="IdCountry: int" style="shape=partialRectangle;connectable=0;fillColor=none;top=0;left=0;bottom=0;right=0;align=left;spacingLeft=6;overflow=hidden;whiteSpace=wrap;html=1;" parent="Wem_VNP8cEbjcYmOimlQ-117" vertex="1">
          <mxGeometry x="30" width="150" height="30" as="geometry">
            <mxRectangle width="150" height="30" as="alternateBounds" />
          </mxGeometry>
        </mxCell>
        <mxCell id="Wem_VNP8cEbjcYmOimlQ-120" value="Feedbacks" style="shape=table;startSize=30;container=1;collapsible=1;childLayout=tableLayout;fixedRows=1;rowLines=0;fontStyle=1;align=center;resizeLast=1;html=1;" parent="1" vertex="1">
          <mxGeometry x="900" y="800" width="180" height="150" as="geometry" />
        </mxCell>
        <mxCell id="Wem_VNP8cEbjcYmOimlQ-121" value="" style="shape=tableRow;horizontal=0;startSize=0;swimlaneHead=0;swimlaneBody=0;fillColor=none;collapsible=0;dropTarget=0;points=[[0,0.5],[1,0.5]];portConstraint=eastwest;top=0;left=0;right=0;bottom=1;" parent="Wem_VNP8cEbjcYmOimlQ-120" vertex="1">
          <mxGeometry y="30" width="180" height="30" as="geometry" />
        </mxCell>
        <mxCell id="Wem_VNP8cEbjcYmOimlQ-122" value="PK" style="shape=partialRectangle;connectable=0;fillColor=none;top=0;left=0;bottom=0;right=0;fontStyle=1;overflow=hidden;whiteSpace=wrap;html=1;" parent="Wem_VNP8cEbjcYmOimlQ-121" vertex="1">
          <mxGeometry width="30" height="30" as="geometry">
            <mxRectangle width="30" height="30" as="alternateBounds" />
          </mxGeometry>
        </mxCell>
        <mxCell id="Wem_VNP8cEbjcYmOimlQ-123" value="Id: serial" style="shape=partialRectangle;connectable=0;fillColor=none;top=0;left=0;bottom=0;right=0;align=left;spacingLeft=6;fontStyle=5;overflow=hidden;whiteSpace=wrap;html=1;" parent="Wem_VNP8cEbjcYmOimlQ-121" vertex="1">
          <mxGeometry x="30" width="150" height="30" as="geometry">
            <mxRectangle width="150" height="30" as="alternateBounds" />
          </mxGeometry>
        </mxCell>
        <mxCell id="Wem_VNP8cEbjcYmOimlQ-127" value="" style="shape=tableRow;horizontal=0;startSize=0;swimlaneHead=0;swimlaneBody=0;fillColor=none;collapsible=0;dropTarget=0;points=[[0,0.5],[1,0.5]];portConstraint=eastwest;top=0;left=0;right=0;bottom=0;" parent="Wem_VNP8cEbjcYmOimlQ-120" vertex="1">
          <mxGeometry y="60" width="180" height="30" as="geometry" />
        </mxCell>
        <mxCell id="Wem_VNP8cEbjcYmOimlQ-128" value="" style="shape=partialRectangle;connectable=0;fillColor=none;top=0;left=0;bottom=0;right=0;editable=1;overflow=hidden;whiteSpace=wrap;html=1;" parent="Wem_VNP8cEbjcYmOimlQ-127" vertex="1">
          <mxGeometry width="30" height="30" as="geometry">
            <mxRectangle width="30" height="30" as="alternateBounds" />
          </mxGeometry>
        </mxCell>
        <mxCell id="Wem_VNP8cEbjcYmOimlQ-129" value="Mark:&amp;nbsp; int" style="shape=partialRectangle;connectable=0;fillColor=none;top=0;left=0;bottom=0;right=0;align=left;spacingLeft=6;overflow=hidden;whiteSpace=wrap;html=1;" parent="Wem_VNP8cEbjcYmOimlQ-127" vertex="1">
          <mxGeometry x="30" width="150" height="30" as="geometry">
            <mxRectangle width="150" height="30" as="alternateBounds" />
          </mxGeometry>
        </mxCell>
        <mxCell id="Wem_VNP8cEbjcYmOimlQ-130" value="" style="shape=tableRow;horizontal=0;startSize=0;swimlaneHead=0;swimlaneBody=0;fillColor=none;collapsible=0;dropTarget=0;points=[[0,0.5],[1,0.5]];portConstraint=eastwest;top=0;left=0;right=0;bottom=0;" parent="Wem_VNP8cEbjcYmOimlQ-120" vertex="1">
          <mxGeometry y="90" width="180" height="30" as="geometry" />
        </mxCell>
        <mxCell id="Wem_VNP8cEbjcYmOimlQ-131" value="FK" style="shape=partialRectangle;connectable=0;fillColor=none;top=0;left=0;bottom=0;right=0;editable=1;overflow=hidden;whiteSpace=wrap;html=1;" parent="Wem_VNP8cEbjcYmOimlQ-130" vertex="1">
          <mxGeometry width="30" height="30" as="geometry">
            <mxRectangle width="30" height="30" as="alternateBounds" />
          </mxGeometry>
        </mxCell>
        <mxCell id="Wem_VNP8cEbjcYmOimlQ-132" value="IdUser: int" style="shape=partialRectangle;connectable=0;fillColor=none;top=0;left=0;bottom=0;right=0;align=left;spacingLeft=6;overflow=hidden;whiteSpace=wrap;html=1;" parent="Wem_VNP8cEbjcYmOimlQ-130" vertex="1">
          <mxGeometry x="30" width="150" height="30" as="geometry">
            <mxRectangle width="150" height="30" as="alternateBounds" />
          </mxGeometry>
        </mxCell>
        <mxCell id="Wem_VNP8cEbjcYmOimlQ-133" value="" style="shape=tableRow;horizontal=0;startSize=0;swimlaneHead=0;swimlaneBody=0;fillColor=none;collapsible=0;dropTarget=0;points=[[0,0.5],[1,0.5]];portConstraint=eastwest;top=0;left=0;right=0;bottom=0;" parent="Wem_VNP8cEbjcYmOimlQ-120" vertex="1">
          <mxGeometry y="120" width="180" height="30" as="geometry" />
        </mxCell>
        <mxCell id="Wem_VNP8cEbjcYmOimlQ-134" value="FK" style="shape=partialRectangle;connectable=0;fillColor=none;top=0;left=0;bottom=0;right=0;editable=1;overflow=hidden;whiteSpace=wrap;html=1;" parent="Wem_VNP8cEbjcYmOimlQ-133" vertex="1">
          <mxGeometry width="30" height="30" as="geometry">
            <mxRectangle width="30" height="30" as="alternateBounds" />
          </mxGeometry>
        </mxCell>
        <mxCell id="Wem_VNP8cEbjcYmOimlQ-135" value="IdLeague: int" style="shape=partialRectangle;connectable=0;fillColor=none;top=0;left=0;bottom=0;right=0;align=left;spacingLeft=6;overflow=hidden;whiteSpace=wrap;html=1;" parent="Wem_VNP8cEbjcYmOimlQ-133" vertex="1">
          <mxGeometry x="30" width="150" height="30" as="geometry">
            <mxRectangle width="150" height="30" as="alternateBounds" />
          </mxGeometry>
        </mxCell>
        <mxCell id="Wem_VNP8cEbjcYmOimlQ-149" value="Countries" style="shape=table;startSize=30;container=1;collapsible=1;childLayout=tableLayout;fixedRows=1;rowLines=0;fontStyle=1;align=center;resizeLast=1;html=1;" parent="1" vertex="1">
          <mxGeometry x="250" y="540" width="180" height="140" as="geometry" />
        </mxCell>
        <mxCell id="Wem_VNP8cEbjcYmOimlQ-150" value="" style="shape=tableRow;horizontal=0;startSize=0;swimlaneHead=0;swimlaneBody=0;fillColor=none;collapsible=0;dropTarget=0;points=[[0,0.5],[1,0.5]];portConstraint=eastwest;top=0;left=0;right=0;bottom=1;" parent="Wem_VNP8cEbjcYmOimlQ-149" vertex="1">
          <mxGeometry y="30" width="180" height="30" as="geometry" />
        </mxCell>
        <mxCell id="Wem_VNP8cEbjcYmOimlQ-151" value="PK" style="shape=partialRectangle;connectable=0;fillColor=none;top=0;left=0;bottom=0;right=0;fontStyle=1;overflow=hidden;whiteSpace=wrap;html=1;" parent="Wem_VNP8cEbjcYmOimlQ-150" vertex="1">
          <mxGeometry width="30" height="30" as="geometry">
            <mxRectangle width="30" height="30" as="alternateBounds" />
          </mxGeometry>
        </mxCell>
        <mxCell id="Wem_VNP8cEbjcYmOimlQ-152" value="Id: serial" style="shape=partialRectangle;connectable=0;fillColor=none;top=0;left=0;bottom=0;right=0;align=left;spacingLeft=6;fontStyle=5;overflow=hidden;whiteSpace=wrap;html=1;" parent="Wem_VNP8cEbjcYmOimlQ-150" vertex="1">
          <mxGeometry x="30" width="150" height="30" as="geometry">
            <mxRectangle width="150" height="30" as="alternateBounds" />
          </mxGeometry>
        </mxCell>
        <mxCell id="Wem_VNP8cEbjcYmOimlQ-153" value="" style="shape=tableRow;horizontal=0;startSize=0;swimlaneHead=0;swimlaneBody=0;fillColor=none;collapsible=0;dropTarget=0;points=[[0,0.5],[1,0.5]];portConstraint=eastwest;top=0;left=0;right=0;bottom=0;" parent="Wem_VNP8cEbjcYmOimlQ-149" vertex="1">
          <mxGeometry y="60" width="180" height="30" as="geometry" />
        </mxCell>
        <mxCell id="Wem_VNP8cEbjcYmOimlQ-154" value="" style="shape=partialRectangle;connectable=0;fillColor=none;top=0;left=0;bottom=0;right=0;editable=1;overflow=hidden;whiteSpace=wrap;html=1;" parent="Wem_VNP8cEbjcYmOimlQ-153" vertex="1">
          <mxGeometry width="30" height="30" as="geometry">
            <mxRectangle width="30" height="30" as="alternateBounds" />
          </mxGeometry>
        </mxCell>
        <mxCell id="Wem_VNP8cEbjcYmOimlQ-155" value="Name: varchar(64)" style="shape=partialRectangle;connectable=0;fillColor=none;top=0;left=0;bottom=0;right=0;align=left;spacingLeft=6;overflow=hidden;whiteSpace=wrap;html=1;" parent="Wem_VNP8cEbjcYmOimlQ-153" vertex="1">
          <mxGeometry x="30" width="150" height="30" as="geometry">
            <mxRectangle width="150" height="30" as="alternateBounds" />
          </mxGeometry>
        </mxCell>
        <mxCell id="Wem_VNP8cEbjcYmOimlQ-156" value="" style="shape=tableRow;horizontal=0;startSize=0;swimlaneHead=0;swimlaneBody=0;fillColor=none;collapsible=0;dropTarget=0;points=[[0,0.5],[1,0.5]];portConstraint=eastwest;top=0;left=0;right=0;bottom=0;" parent="Wem_VNP8cEbjcYmOimlQ-149" vertex="1">
          <mxGeometry y="90" width="180" height="30" as="geometry" />
        </mxCell>
        <mxCell id="Wem_VNP8cEbjcYmOimlQ-157" value="" style="shape=partialRectangle;connectable=0;fillColor=none;top=0;left=0;bottom=0;right=0;editable=1;overflow=hidden;whiteSpace=wrap;html=1;" parent="Wem_VNP8cEbjcYmOimlQ-156" vertex="1">
          <mxGeometry width="30" height="30" as="geometry">
            <mxRectangle width="30" height="30" as="alternateBounds" />
          </mxGeometry>
        </mxCell>
        <mxCell id="Wem_VNP8cEbjcYmOimlQ-158" value="Continent: varchar(64)" style="shape=partialRectangle;connectable=0;fillColor=none;top=0;left=0;bottom=0;right=0;align=left;spacingLeft=6;overflow=hidden;whiteSpace=wrap;html=1;" parent="Wem_VNP8cEbjcYmOimlQ-156" vertex="1">
          <mxGeometry x="30" width="150" height="30" as="geometry">
            <mxRectangle width="150" height="30" as="alternateBounds" />
          </mxGeometry>
        </mxCell>
        <mxCell id="Wem_VNP8cEbjcYmOimlQ-159" value="" style="shape=tableRow;horizontal=0;startSize=0;swimlaneHead=0;swimlaneBody=0;fillColor=none;collapsible=0;dropTarget=0;points=[[0,0.5],[1,0.5]];portConstraint=eastwest;top=0;left=0;right=0;bottom=0;" parent="Wem_VNP8cEbjcYmOimlQ-149" vertex="1">
          <mxGeometry y="120" width="180" height="20" as="geometry" />
        </mxCell>
        <mxCell id="Wem_VNP8cEbjcYmOimlQ-160" value="" style="shape=partialRectangle;connectable=0;fillColor=none;top=0;left=0;bottom=0;right=0;editable=1;overflow=hidden;whiteSpace=wrap;html=1;" parent="Wem_VNP8cEbjcYmOimlQ-159" vertex="1">
          <mxGeometry width="30" height="20" as="geometry">
            <mxRectangle width="30" height="20" as="alternateBounds" />
          </mxGeometry>
        </mxCell>
        <mxCell id="Wem_VNP8cEbjcYmOimlQ-161" value="" style="shape=partialRectangle;connectable=0;fillColor=none;top=0;left=0;bottom=0;right=0;align=left;spacingLeft=6;overflow=hidden;whiteSpace=wrap;html=1;" parent="Wem_VNP8cEbjcYmOimlQ-159" vertex="1">
          <mxGeometry x="30" width="150" height="20" as="geometry">
            <mxRectangle width="150" height="20" as="alternateBounds" />
          </mxGeometry>
        </mxCell>
        <mxCell id="Wem_VNP8cEbjcYmOimlQ-162" value="Clubs" style="shape=table;startSize=30;container=1;collapsible=1;childLayout=tableLayout;fixedRows=1;rowLines=0;fontStyle=1;align=center;resizeLast=1;html=1;" parent="1" vertex="1">
          <mxGeometry x="580" y="310" width="180" height="150" as="geometry" />
        </mxCell>
        <mxCell id="Wem_VNP8cEbjcYmOimlQ-163" value="" style="shape=tableRow;horizontal=0;startSize=0;swimlaneHead=0;swimlaneBody=0;fillColor=none;collapsible=0;dropTarget=0;points=[[0,0.5],[1,0.5]];portConstraint=eastwest;top=0;left=0;right=0;bottom=1;" parent="Wem_VNP8cEbjcYmOimlQ-162" vertex="1">
          <mxGeometry y="30" width="180" height="30" as="geometry" />
        </mxCell>
        <mxCell id="Wem_VNP8cEbjcYmOimlQ-164" value="PK" style="shape=partialRectangle;connectable=0;fillColor=none;top=0;left=0;bottom=0;right=0;fontStyle=1;overflow=hidden;whiteSpace=wrap;html=1;" parent="Wem_VNP8cEbjcYmOimlQ-163" vertex="1">
          <mxGeometry width="30" height="30" as="geometry">
            <mxRectangle width="30" height="30" as="alternateBounds" />
          </mxGeometry>
        </mxCell>
        <mxCell id="Wem_VNP8cEbjcYmOimlQ-165" value="Id: serial" style="shape=partialRectangle;connectable=0;fillColor=none;top=0;left=0;bottom=0;right=0;align=left;spacingLeft=6;fontStyle=5;overflow=hidden;whiteSpace=wrap;html=1;" parent="Wem_VNP8cEbjcYmOimlQ-163" vertex="1">
          <mxGeometry x="30" width="150" height="30" as="geometry">
            <mxRectangle width="150" height="30" as="alternateBounds" />
          </mxGeometry>
        </mxCell>
        <mxCell id="Wem_VNP8cEbjcYmOimlQ-166" value="" style="shape=tableRow;horizontal=0;startSize=0;swimlaneHead=0;swimlaneBody=0;fillColor=none;collapsible=0;dropTarget=0;points=[[0,0.5],[1,0.5]];portConstraint=eastwest;top=0;left=0;right=0;bottom=0;" parent="Wem_VNP8cEbjcYmOimlQ-162" vertex="1">
          <mxGeometry y="60" width="180" height="30" as="geometry" />
        </mxCell>
        <mxCell id="Wem_VNP8cEbjcYmOimlQ-167" value="" style="shape=partialRectangle;connectable=0;fillColor=none;top=0;left=0;bottom=0;right=0;editable=1;overflow=hidden;whiteSpace=wrap;html=1;" parent="Wem_VNP8cEbjcYmOimlQ-166" vertex="1">
          <mxGeometry width="30" height="30" as="geometry">
            <mxRectangle width="30" height="30" as="alternateBounds" />
          </mxGeometry>
        </mxCell>
        <mxCell id="Wem_VNP8cEbjcYmOimlQ-168" value="Name: varchar(64)" style="shape=partialRectangle;connectable=0;fillColor=none;top=0;left=0;bottom=0;right=0;align=left;spacingLeft=6;overflow=hidden;whiteSpace=wrap;html=1;" parent="Wem_VNP8cEbjcYmOimlQ-166" vertex="1">
          <mxGeometry x="30" width="150" height="30" as="geometry">
            <mxRectangle width="150" height="30" as="alternateBounds" />
          </mxGeometry>
        </mxCell>
        <mxCell id="Wem_VNP8cEbjcYmOimlQ-169" value="" style="shape=tableRow;horizontal=0;startSize=0;swimlaneHead=0;swimlaneBody=0;fillColor=none;collapsible=0;dropTarget=0;points=[[0,0.5],[1,0.5]];portConstraint=eastwest;top=0;left=0;right=0;bottom=0;" parent="Wem_VNP8cEbjcYmOimlQ-162" vertex="1">
          <mxGeometry y="90" width="180" height="30" as="geometry" />
        </mxCell>
        <mxCell id="Wem_VNP8cEbjcYmOimlQ-170" value="FK" style="shape=partialRectangle;connectable=0;fillColor=none;top=0;left=0;bottom=0;right=0;editable=1;overflow=hidden;whiteSpace=wrap;html=1;" parent="Wem_VNP8cEbjcYmOimlQ-169" vertex="1">
          <mxGeometry width="30" height="30" as="geometry">
            <mxRectangle width="30" height="30" as="alternateBounds" />
          </mxGeometry>
        </mxCell>
        <mxCell id="Wem_VNP8cEbjcYmOimlQ-171" value="IdStadium: int" style="shape=partialRectangle;connectable=0;fillColor=none;top=0;left=0;bottom=0;right=0;align=left;spacingLeft=6;overflow=hidden;whiteSpace=wrap;html=1;" parent="Wem_VNP8cEbjcYmOimlQ-169" vertex="1">
          <mxGeometry x="30" width="150" height="30" as="geometry">
            <mxRectangle width="150" height="30" as="alternateBounds" />
          </mxGeometry>
        </mxCell>
        <mxCell id="Wem_VNP8cEbjcYmOimlQ-172" value="" style="shape=tableRow;horizontal=0;startSize=0;swimlaneHead=0;swimlaneBody=0;fillColor=none;collapsible=0;dropTarget=0;points=[[0,0.5],[1,0.5]];portConstraint=eastwest;top=0;left=0;right=0;bottom=0;" parent="Wem_VNP8cEbjcYmOimlQ-162" vertex="1">
          <mxGeometry y="120" width="180" height="30" as="geometry" />
        </mxCell>
        <mxCell id="Wem_VNP8cEbjcYmOimlQ-173" value="FK" style="shape=partialRectangle;connectable=0;fillColor=none;top=0;left=0;bottom=0;right=0;editable=1;overflow=hidden;whiteSpace=wrap;html=1;" parent="Wem_VNP8cEbjcYmOimlQ-172" vertex="1">
          <mxGeometry width="30" height="30" as="geometry">
            <mxRectangle width="30" height="30" as="alternateBounds" />
          </mxGeometry>
        </mxCell>
        <mxCell id="Wem_VNP8cEbjcYmOimlQ-174" value="IdCountry: int" style="shape=partialRectangle;connectable=0;fillColor=none;top=0;left=0;bottom=0;right=0;align=left;spacingLeft=6;overflow=hidden;whiteSpace=wrap;html=1;" parent="Wem_VNP8cEbjcYmOimlQ-172" vertex="1">
          <mxGeometry x="30" width="150" height="30" as="geometry">
            <mxRectangle width="150" height="30" as="alternateBounds" />
          </mxGeometry>
        </mxCell>
        <mxCell id="Wem_VNP8cEbjcYmOimlQ-178" value="Requests" style="shape=table;startSize=30;container=1;collapsible=1;childLayout=tableLayout;fixedRows=1;rowLines=0;fontStyle=1;align=center;resizeLast=1;html=1;" parent="1" vertex="1">
          <mxGeometry x="610" y="800" width="180" height="180" as="geometry" />
        </mxCell>
        <mxCell id="Wem_VNP8cEbjcYmOimlQ-179" value="" style="shape=tableRow;horizontal=0;startSize=0;swimlaneHead=0;swimlaneBody=0;fillColor=none;collapsible=0;dropTarget=0;points=[[0,0.5],[1,0.5]];portConstraint=eastwest;top=0;left=0;right=0;bottom=1;" parent="Wem_VNP8cEbjcYmOimlQ-178" vertex="1">
          <mxGeometry y="30" width="180" height="30" as="geometry" />
        </mxCell>
        <mxCell id="Wem_VNP8cEbjcYmOimlQ-180" value="PK" style="shape=partialRectangle;connectable=0;fillColor=none;top=0;left=0;bottom=0;right=0;fontStyle=1;overflow=hidden;whiteSpace=wrap;html=1;" parent="Wem_VNP8cEbjcYmOimlQ-179" vertex="1">
          <mxGeometry width="30" height="30" as="geometry">
            <mxRectangle width="30" height="30" as="alternateBounds" />
          </mxGeometry>
        </mxCell>
        <mxCell id="Wem_VNP8cEbjcYmOimlQ-181" value="Id: serial" style="shape=partialRectangle;connectable=0;fillColor=none;top=0;left=0;bottom=0;right=0;align=left;spacingLeft=6;fontStyle=5;overflow=hidden;whiteSpace=wrap;html=1;" parent="Wem_VNP8cEbjcYmOimlQ-179" vertex="1">
          <mxGeometry x="30" width="150" height="30" as="geometry">
            <mxRectangle width="150" height="30" as="alternateBounds" />
          </mxGeometry>
        </mxCell>
        <mxCell id="Wem_VNP8cEbjcYmOimlQ-182" value="" style="shape=tableRow;horizontal=0;startSize=0;swimlaneHead=0;swimlaneBody=0;fillColor=none;collapsible=0;dropTarget=0;points=[[0,0.5],[1,0.5]];portConstraint=eastwest;top=0;left=0;right=0;bottom=0;" parent="Wem_VNP8cEbjcYmOimlQ-178" vertex="1">
          <mxGeometry y="60" width="180" height="30" as="geometry" />
        </mxCell>
        <mxCell id="Wem_VNP8cEbjcYmOimlQ-183" value="" style="shape=partialRectangle;connectable=0;fillColor=none;top=0;left=0;bottom=0;right=0;editable=1;overflow=hidden;whiteSpace=wrap;html=1;" parent="Wem_VNP8cEbjcYmOimlQ-182" vertex="1">
          <mxGeometry width="30" height="30" as="geometry">
            <mxRectangle width="30" height="30" as="alternateBounds" />
          </mxGeometry>
        </mxCell>
        <mxCell id="Wem_VNP8cEbjcYmOimlQ-184" value="Time: DateTime" style="shape=partialRectangle;connectable=0;fillColor=none;top=0;left=0;bottom=0;right=0;align=left;spacingLeft=6;overflow=hidden;whiteSpace=wrap;html=1;" parent="Wem_VNP8cEbjcYmOimlQ-182" vertex="1">
          <mxGeometry x="30" width="150" height="30" as="geometry">
            <mxRectangle width="150" height="30" as="alternateBounds" />
          </mxGeometry>
        </mxCell>
        <mxCell id="Wem_VNP8cEbjcYmOimlQ-185" value="" style="shape=tableRow;horizontal=0;startSize=0;swimlaneHead=0;swimlaneBody=0;fillColor=none;collapsible=0;dropTarget=0;points=[[0,0.5],[1,0.5]];portConstraint=eastwest;top=0;left=0;right=0;bottom=0;" parent="Wem_VNP8cEbjcYmOimlQ-178" vertex="1">
          <mxGeometry y="90" width="180" height="30" as="geometry" />
        </mxCell>
        <mxCell id="Wem_VNP8cEbjcYmOimlQ-186" value="" style="shape=partialRectangle;connectable=0;fillColor=none;top=0;left=0;bottom=0;right=0;editable=1;overflow=hidden;whiteSpace=wrap;html=1;" parent="Wem_VNP8cEbjcYmOimlQ-185" vertex="1">
          <mxGeometry width="30" height="30" as="geometry">
            <mxRectangle width="30" height="30" as="alternateBounds" />
          </mxGeometry>
        </mxCell>
        <mxCell id="Wem_VNP8cEbjcYmOimlQ-187" value="IdLeague: int" style="shape=partialRectangle;connectable=0;fillColor=none;top=0;left=0;bottom=0;right=0;align=left;spacingLeft=6;overflow=hidden;whiteSpace=wrap;html=1;" parent="Wem_VNP8cEbjcYmOimlQ-185" vertex="1">
          <mxGeometry x="30" width="150" height="30" as="geometry">
            <mxRectangle width="150" height="30" as="alternateBounds" />
          </mxGeometry>
        </mxCell>
        <mxCell id="Wem_VNP8cEbjcYmOimlQ-188" value="" style="shape=tableRow;horizontal=0;startSize=0;swimlaneHead=0;swimlaneBody=0;fillColor=none;collapsible=0;dropTarget=0;points=[[0,0.5],[1,0.5]];portConstraint=eastwest;top=0;left=0;right=0;bottom=0;" parent="Wem_VNP8cEbjcYmOimlQ-178" vertex="1">
          <mxGeometry y="120" width="180" height="30" as="geometry" />
        </mxCell>
        <mxCell id="Wem_VNP8cEbjcYmOimlQ-189" value="FK" style="shape=partialRectangle;connectable=0;fillColor=none;top=0;left=0;bottom=0;right=0;editable=1;overflow=hidden;whiteSpace=wrap;html=1;" parent="Wem_VNP8cEbjcYmOimlQ-188" vertex="1">
          <mxGeometry width="30" height="30" as="geometry">
            <mxRectangle width="30" height="30" as="alternateBounds" />
          </mxGeometry>
        </mxCell>
        <mxCell id="Wem_VNP8cEbjcYmOimlQ-190" value="IdClub: int" style="shape=partialRectangle;connectable=0;fillColor=none;top=0;left=0;bottom=0;right=0;align=left;spacingLeft=6;overflow=hidden;whiteSpace=wrap;html=1;" parent="Wem_VNP8cEbjcYmOimlQ-188" vertex="1">
          <mxGeometry x="30" width="150" height="30" as="geometry">
            <mxRectangle width="150" height="30" as="alternateBounds" />
          </mxGeometry>
        </mxCell>
        <mxCell id="Wem_VNP8cEbjcYmOimlQ-191" value="" style="shape=tableRow;horizontal=0;startSize=0;swimlaneHead=0;swimlaneBody=0;fillColor=none;collapsible=0;dropTarget=0;points=[[0,0.5],[1,0.5]];portConstraint=eastwest;top=0;left=0;right=0;bottom=0;" parent="Wem_VNP8cEbjcYmOimlQ-178" vertex="1">
          <mxGeometry y="150" width="180" height="30" as="geometry" />
        </mxCell>
        <mxCell id="Wem_VNP8cEbjcYmOimlQ-192" value="FK" style="shape=partialRectangle;connectable=0;fillColor=none;top=0;left=0;bottom=0;right=0;editable=1;overflow=hidden;whiteSpace=wrap;html=1;" parent="Wem_VNP8cEbjcYmOimlQ-191" vertex="1">
          <mxGeometry width="30" height="30" as="geometry">
            <mxRectangle width="30" height="30" as="alternateBounds" />
          </mxGeometry>
        </mxCell>
        <mxCell id="Wem_VNP8cEbjcYmOimlQ-193" value="IdUser: int" style="shape=partialRectangle;connectable=0;fillColor=none;top=0;left=0;bottom=0;right=0;align=left;spacingLeft=6;overflow=hidden;whiteSpace=wrap;html=1;" parent="Wem_VNP8cEbjcYmOimlQ-191" vertex="1">
          <mxGeometry x="30" width="150" height="30" as="geometry">
            <mxRectangle width="150" height="30" as="alternateBounds" />
          </mxGeometry>
        </mxCell>
        <mxCell id="Wem_VNP8cEbjcYmOimlQ-194" value="LeagueClub" style="shape=table;startSize=30;container=1;collapsible=1;childLayout=tableLayout;fixedRows=1;rowLines=0;fontStyle=1;align=center;resizeLast=1;html=1;" parent="1" vertex="1">
          <mxGeometry x="880" y="310" width="180" height="140" as="geometry" />
        </mxCell>
        <mxCell id="Wem_VNP8cEbjcYmOimlQ-195" value="" style="shape=tableRow;horizontal=0;startSize=0;swimlaneHead=0;swimlaneBody=0;fillColor=none;collapsible=0;dropTarget=0;points=[[0,0.5],[1,0.5]];portConstraint=eastwest;top=0;left=0;right=0;bottom=1;" parent="Wem_VNP8cEbjcYmOimlQ-194" vertex="1">
          <mxGeometry y="30" width="180" height="30" as="geometry" />
        </mxCell>
        <mxCell id="Wem_VNP8cEbjcYmOimlQ-196" value="PK" style="shape=partialRectangle;connectable=0;fillColor=none;top=0;left=0;bottom=0;right=0;fontStyle=1;overflow=hidden;whiteSpace=wrap;html=1;" parent="Wem_VNP8cEbjcYmOimlQ-195" vertex="1">
          <mxGeometry width="30" height="30" as="geometry">
            <mxRectangle width="30" height="30" as="alternateBounds" />
          </mxGeometry>
        </mxCell>
        <mxCell id="Wem_VNP8cEbjcYmOimlQ-197" value="Id: serial" style="shape=partialRectangle;connectable=0;fillColor=none;top=0;left=0;bottom=0;right=0;align=left;spacingLeft=6;fontStyle=5;overflow=hidden;whiteSpace=wrap;html=1;" parent="Wem_VNP8cEbjcYmOimlQ-195" vertex="1">
          <mxGeometry x="30" width="150" height="30" as="geometry">
            <mxRectangle width="150" height="30" as="alternateBounds" />
          </mxGeometry>
        </mxCell>
        <mxCell id="Wem_VNP8cEbjcYmOimlQ-198" value="" style="shape=tableRow;horizontal=0;startSize=0;swimlaneHead=0;swimlaneBody=0;fillColor=none;collapsible=0;dropTarget=0;points=[[0,0.5],[1,0.5]];portConstraint=eastwest;top=0;left=0;right=0;bottom=0;" parent="Wem_VNP8cEbjcYmOimlQ-194" vertex="1">
          <mxGeometry y="60" width="180" height="30" as="geometry" />
        </mxCell>
        <mxCell id="Wem_VNP8cEbjcYmOimlQ-199" value="FK" style="shape=partialRectangle;connectable=0;fillColor=none;top=0;left=0;bottom=0;right=0;editable=1;overflow=hidden;whiteSpace=wrap;html=1;" parent="Wem_VNP8cEbjcYmOimlQ-198" vertex="1">
          <mxGeometry width="30" height="30" as="geometry">
            <mxRectangle width="30" height="30" as="alternateBounds" />
          </mxGeometry>
        </mxCell>
        <mxCell id="Wem_VNP8cEbjcYmOimlQ-200" value="IdLeague: int" style="shape=partialRectangle;connectable=0;fillColor=none;top=0;left=0;bottom=0;right=0;align=left;spacingLeft=6;overflow=hidden;whiteSpace=wrap;html=1;" parent="Wem_VNP8cEbjcYmOimlQ-198" vertex="1">
          <mxGeometry x="30" width="150" height="30" as="geometry">
            <mxRectangle width="150" height="30" as="alternateBounds" />
          </mxGeometry>
        </mxCell>
        <mxCell id="Wem_VNP8cEbjcYmOimlQ-201" value="" style="shape=tableRow;horizontal=0;startSize=0;swimlaneHead=0;swimlaneBody=0;fillColor=none;collapsible=0;dropTarget=0;points=[[0,0.5],[1,0.5]];portConstraint=eastwest;top=0;left=0;right=0;bottom=0;" parent="Wem_VNP8cEbjcYmOimlQ-194" vertex="1">
          <mxGeometry y="90" width="180" height="30" as="geometry" />
        </mxCell>
        <mxCell id="Wem_VNP8cEbjcYmOimlQ-202" value="FK" style="shape=partialRectangle;connectable=0;fillColor=none;top=0;left=0;bottom=0;right=0;editable=1;overflow=hidden;whiteSpace=wrap;html=1;" parent="Wem_VNP8cEbjcYmOimlQ-201" vertex="1">
          <mxGeometry width="30" height="30" as="geometry">
            <mxRectangle width="30" height="30" as="alternateBounds" />
          </mxGeometry>
        </mxCell>
        <mxCell id="Wem_VNP8cEbjcYmOimlQ-203" value="IdClub: int" style="shape=partialRectangle;connectable=0;fillColor=none;top=0;left=0;bottom=0;right=0;align=left;spacingLeft=6;overflow=hidden;whiteSpace=wrap;html=1;" parent="Wem_VNP8cEbjcYmOimlQ-201" vertex="1">
          <mxGeometry x="30" width="150" height="30" as="geometry">
            <mxRectangle width="150" height="30" as="alternateBounds" />
          </mxGeometry>
        </mxCell>
        <mxCell id="Wem_VNP8cEbjcYmOimlQ-204" value="" style="shape=tableRow;horizontal=0;startSize=0;swimlaneHead=0;swimlaneBody=0;fillColor=none;collapsible=0;dropTarget=0;points=[[0,0.5],[1,0.5]];portConstraint=eastwest;top=0;left=0;right=0;bottom=0;" parent="Wem_VNP8cEbjcYmOimlQ-194" vertex="1">
          <mxGeometry y="120" width="180" height="20" as="geometry" />
        </mxCell>
        <mxCell id="Wem_VNP8cEbjcYmOimlQ-205" value="" style="shape=partialRectangle;connectable=0;fillColor=none;top=0;left=0;bottom=0;right=0;editable=1;overflow=hidden;whiteSpace=wrap;html=1;" parent="Wem_VNP8cEbjcYmOimlQ-204" vertex="1">
          <mxGeometry width="30" height="20" as="geometry">
            <mxRectangle width="30" height="20" as="alternateBounds" />
          </mxGeometry>
        </mxCell>
        <mxCell id="Wem_VNP8cEbjcYmOimlQ-206" value="" style="shape=partialRectangle;connectable=0;fillColor=none;top=0;left=0;bottom=0;right=0;align=left;spacingLeft=6;overflow=hidden;whiteSpace=wrap;html=1;" parent="Wem_VNP8cEbjcYmOimlQ-204" vertex="1">
          <mxGeometry x="30" width="150" height="20" as="geometry">
            <mxRectangle width="150" height="20" as="alternateBounds" />
          </mxGeometry>
        </mxCell>
        <mxCell id="Wem_VNP8cEbjcYmOimlQ-215" value="" style="edgeStyle=orthogonalEdgeStyle;fontSize=12;html=1;endArrow=ERmany;rounded=0;" parent="1" source="Wem_VNP8cEbjcYmOimlQ-105" target="Wem_VNP8cEbjcYmOimlQ-76" edge="1">
          <mxGeometry width="100" height="100" relative="1" as="geometry">
            <mxPoint x="640" y="510" as="sourcePoint" />
            <mxPoint x="740" y="410" as="targetPoint" />
          </mxGeometry>
        </mxCell>
        <mxCell id="Wem_VNP8cEbjcYmOimlQ-217" value="" style="edgeStyle=orthogonalEdgeStyle;fontSize=12;html=1;endArrow=ERmany;rounded=0;" parent="1" source="Wem_VNP8cEbjcYmOimlQ-51" target="Wem_VNP8cEbjcYmOimlQ-79" edge="1">
          <mxGeometry width="100" height="100" relative="1" as="geometry">
            <mxPoint x="640" y="510" as="sourcePoint" />
            <mxPoint x="740" y="410" as="targetPoint" />
            <Array as="points">
              <mxPoint x="180" y="395" />
              <mxPoint x="180" y="955" />
            </Array>
          </mxGeometry>
        </mxCell>
        <mxCell id="Wem_VNP8cEbjcYmOimlQ-218" value="" style="edgeStyle=orthogonalEdgeStyle;fontSize=12;html=1;endArrow=ERmany;rounded=0;" parent="1" source="Wem_VNP8cEbjcYmOimlQ-163" target="Wem_VNP8cEbjcYmOimlQ-98" edge="1">
          <mxGeometry width="100" height="100" relative="1" as="geometry">
            <mxPoint x="640" y="510" as="sourcePoint" />
            <mxPoint x="740" y="410" as="targetPoint" />
            <Array as="points">
              <mxPoint x="810" y="355" />
              <mxPoint x="810" y="290" />
              <mxPoint x="1160" y="290" />
              <mxPoint x="1160" y="1110" />
              <mxPoint x="220" y="1110" />
              <mxPoint x="220" y="980" />
            </Array>
          </mxGeometry>
        </mxCell>
        <mxCell id="Wem_VNP8cEbjcYmOimlQ-219" value="" style="edgeStyle=orthogonalEdgeStyle;fontSize=12;html=1;endArrow=ERmany;rounded=0;exitX=1;exitY=0.5;exitDx=0;exitDy=0;" parent="1" source="Wem_VNP8cEbjcYmOimlQ-163" target="Wem_VNP8cEbjcYmOimlQ-101" edge="1">
          <mxGeometry width="100" height="100" relative="1" as="geometry">
            <mxPoint x="640" y="510" as="sourcePoint" />
            <mxPoint x="740" y="410" as="targetPoint" />
            <Array as="points">
              <mxPoint x="810" y="355" />
              <mxPoint x="810" y="290" />
              <mxPoint x="1160" y="290" />
              <mxPoint x="1160" y="1110" />
              <mxPoint x="260" y="1110" />
              <mxPoint x="260" y="1015" />
            </Array>
          </mxGeometry>
        </mxCell>
        <mxCell id="Wem_VNP8cEbjcYmOimlQ-220" value="" style="edgeStyle=orthogonalEdgeStyle;fontSize=12;html=1;endArrow=ERmany;rounded=0;" parent="1" source="Wem_VNP8cEbjcYmOimlQ-29" target="Wem_VNP8cEbjcYmOimlQ-130" edge="1">
          <mxGeometry width="100" height="100" relative="1" as="geometry">
            <mxPoint x="640" y="710" as="sourcePoint" />
            <mxPoint x="740" y="610" as="targetPoint" />
            <Array as="points">
              <mxPoint x="1130" y="555" />
              <mxPoint x="1130" y="910" />
            </Array>
          </mxGeometry>
        </mxCell>
        <mxCell id="Wem_VNP8cEbjcYmOimlQ-221" value="" style="edgeStyle=orthogonalEdgeStyle;fontSize=12;html=1;endArrow=ERmany;rounded=0;" parent="1" source="Wem_VNP8cEbjcYmOimlQ-105" target="Wem_VNP8cEbjcYmOimlQ-133" edge="1">
          <mxGeometry width="100" height="100" relative="1" as="geometry">
            <mxPoint x="640" y="710" as="sourcePoint" />
            <mxPoint x="740" y="610" as="targetPoint" />
            <Array as="points">
              <mxPoint x="850" y="585" />
              <mxPoint x="850" y="935" />
            </Array>
          </mxGeometry>
        </mxCell>
        <mxCell id="Wem_VNP8cEbjcYmOimlQ-222" value="" style="edgeStyle=orthogonalEdgeStyle;fontSize=12;html=1;endArrow=ERmany;rounded=0;" parent="1" source="Wem_VNP8cEbjcYmOimlQ-105" target="Wem_VNP8cEbjcYmOimlQ-185" edge="1">
          <mxGeometry width="100" height="100" relative="1" as="geometry">
            <mxPoint x="610" y="710" as="sourcePoint" />
            <mxPoint x="710" y="610" as="targetPoint" />
            <Array as="points">
              <mxPoint x="570" y="585" />
              <mxPoint x="570" y="905" />
            </Array>
          </mxGeometry>
        </mxCell>
        <mxCell id="Wem_VNP8cEbjcYmOimlQ-223" value="" style="edgeStyle=orthogonalEdgeStyle;fontSize=12;html=1;endArrow=ERmany;rounded=0;" parent="1" source="Wem_VNP8cEbjcYmOimlQ-163" target="Wem_VNP8cEbjcYmOimlQ-188" edge="1">
          <mxGeometry width="100" height="100" relative="1" as="geometry">
            <mxPoint x="610" y="710" as="sourcePoint" />
            <mxPoint x="710" y="610" as="targetPoint" />
            <Array as="points">
              <mxPoint x="810" y="355" />
              <mxPoint x="810" y="290" />
              <mxPoint x="1160" y="290" />
              <mxPoint x="1160" y="1020" />
              <mxPoint x="560" y="1020" />
              <mxPoint x="560" y="935" />
            </Array>
          </mxGeometry>
        </mxCell>
        <mxCell id="Wem_VNP8cEbjcYmOimlQ-224" value="" style="edgeStyle=orthogonalEdgeStyle;fontSize=12;html=1;endArrow=ERmany;rounded=0;" parent="1" source="Wem_VNP8cEbjcYmOimlQ-29" target="Wem_VNP8cEbjcYmOimlQ-191" edge="1">
          <mxGeometry width="100" height="100" relative="1" as="geometry">
            <mxPoint x="610" y="810" as="sourcePoint" />
            <mxPoint x="710" y="710" as="targetPoint" />
            <Array as="points">
              <mxPoint x="1130" y="555" />
              <mxPoint x="1130" y="1000" />
              <mxPoint x="580" y="1000" />
              <mxPoint x="580" y="965" />
            </Array>
          </mxGeometry>
        </mxCell>
        <mxCell id="Wem_VNP8cEbjcYmOimlQ-225" value="" style="edgeStyle=orthogonalEdgeStyle;fontSize=12;html=1;endArrow=ERmany;rounded=0;" parent="1" source="Wem_VNP8cEbjcYmOimlQ-105" target="Wem_VNP8cEbjcYmOimlQ-198" edge="1">
          <mxGeometry width="100" height="100" relative="1" as="geometry">
            <mxPoint x="610" y="710" as="sourcePoint" />
            <mxPoint x="720" y="670" as="targetPoint" />
            <Array as="points">
              <mxPoint x="850" y="585" />
              <mxPoint x="850" y="790" />
              <mxPoint x="1110" y="790" />
              <mxPoint x="1110" y="395" />
            </Array>
          </mxGeometry>
        </mxCell>
        <mxCell id="Wem_VNP8cEbjcYmOimlQ-226" value="" style="edgeStyle=orthogonalEdgeStyle;fontSize=12;html=1;endArrow=ERmany;rounded=0;" parent="1" source="Wem_VNP8cEbjcYmOimlQ-163" target="Wem_VNP8cEbjcYmOimlQ-201" edge="1">
          <mxGeometry width="100" height="100" relative="1" as="geometry">
            <mxPoint x="610" y="510" as="sourcePoint" />
            <mxPoint x="710" y="410" as="targetPoint" />
            <Array as="points">
              <mxPoint x="810" y="355" />
              <mxPoint x="810" y="290" />
              <mxPoint x="1160" y="290" />
              <mxPoint x="1160" y="425" />
            </Array>
          </mxGeometry>
        </mxCell>
        <mxCell id="Wem_VNP8cEbjcYmOimlQ-227" value="" style="edgeStyle=orthogonalEdgeStyle;fontSize=12;html=1;endArrow=ERmany;rounded=0;" parent="1" source="Wem_VNP8cEbjcYmOimlQ-51" edge="1">
          <mxGeometry width="100" height="100" relative="1" as="geometry">
            <mxPoint x="610" y="510" as="sourcePoint" />
            <mxPoint x="580" y="410" as="targetPoint" />
            <Array as="points">
              <mxPoint x="505" y="400" />
              <mxPoint x="505" y="410" />
            </Array>
          </mxGeometry>
        </mxCell>
        <mxCell id="Wem_VNP8cEbjcYmOimlQ-229" value="" style="edgeStyle=orthogonalEdgeStyle;fontSize=12;html=1;endArrow=ERmany;rounded=0;entryX=0;entryY=0.5;entryDx=0;entryDy=0;" parent="1" source="Wem_VNP8cEbjcYmOimlQ-150" target="Wem_VNP8cEbjcYmOimlQ-172" edge="1">
          <mxGeometry width="100" height="100" relative="1" as="geometry">
            <mxPoint x="610" y="610" as="sourcePoint" />
            <mxPoint x="710" y="510" as="targetPoint" />
            <Array as="points">
              <mxPoint x="510" y="585" />
              <mxPoint x="510" y="445" />
            </Array>
          </mxGeometry>
        </mxCell>
        <mxCell id="Wem_VNP8cEbjcYmOimlQ-230" value="" style="edgeStyle=orthogonalEdgeStyle;fontSize=12;html=1;endArrow=ERmany;rounded=0;" parent="1" source="Wem_VNP8cEbjcYmOimlQ-29" target="Wem_VNP8cEbjcYmOimlQ-114" edge="1">
          <mxGeometry width="100" height="100" relative="1" as="geometry">
            <mxPoint x="610" y="510" as="sourcePoint" />
            <mxPoint x="710" y="410" as="targetPoint" />
            <Array as="points">
              <mxPoint x="1130" y="555" />
              <mxPoint x="1130" y="1000" />
              <mxPoint x="820" y="1000" />
              <mxPoint x="820" y="675" />
            </Array>
          </mxGeometry>
        </mxCell>
        <mxCell id="Wem_VNP8cEbjcYmOimlQ-231" value="" style="edgeStyle=orthogonalEdgeStyle;fontSize=12;html=1;endArrow=ERmany;rounded=0;" parent="1" source="Wem_VNP8cEbjcYmOimlQ-150" target="Wem_VNP8cEbjcYmOimlQ-117" edge="1">
          <mxGeometry width="100" height="100" relative="1" as="geometry">
            <mxPoint x="610" y="510" as="sourcePoint" />
            <mxPoint x="710" y="410" as="targetPoint" />
            <Array as="points">
              <mxPoint x="510" y="585" />
              <mxPoint x="510" y="705" />
            </Array>
          </mxGeometry>
        </mxCell>
        <mxCell id="Wem_VNP8cEbjcYmOimlQ-232" value="" style="edgeStyle=orthogonalEdgeStyle;fontSize=12;html=1;endArrow=ERmany;rounded=0;" parent="1" source="Wem_VNP8cEbjcYmOimlQ-150" target="Wem_VNP8cEbjcYmOimlQ-60" edge="1">
          <mxGeometry width="100" height="100" relative="1" as="geometry">
            <mxPoint x="610" y="610" as="sourcePoint" />
            <mxPoint x="710" y="510" as="targetPoint" />
            <Array as="points">
              <mxPoint x="510" y="585" />
              <mxPoint x="510" y="485" />
            </Array>
          </mxGeometry>
        </mxCell>
        <mxCell id="z0nNyD0C92ORL5Wl-oYR-1" value="" style="edgeStyle=orthogonalEdgeStyle;fontSize=12;html=1;endArrow=ERmany;rounded=0;entryX=0;entryY=0.5;entryDx=0;entryDy=0;exitX=1;exitY=0.5;exitDx=0;exitDy=0;" parent="1" source="Wem_VNP8cEbjcYmOimlQ-163" target="r1NIfst5Ad4VSNgofK6q-6" edge="1">
          <mxGeometry width="100" height="100" relative="1" as="geometry">
            <mxPoint x="800" y="510" as="sourcePoint" />
            <mxPoint x="650" y="510" as="targetPoint" />
            <Array as="points">
              <mxPoint x="860" y="355" />
              <mxPoint x="860" y="765" />
            </Array>
          </mxGeometry>
        </mxCell>
      </root>
    </mxGraphModel>
  </diagram>
  <diagram id="eCORgdi-jtxeOb1_C-ba" name="Algorithm">
    <mxGraphModel dx="1050" dy="565" grid="1" gridSize="10" guides="1" tooltips="1" connect="1" arrows="1" fold="1" page="1" pageScale="1" pageWidth="827" pageHeight="1169" math="0" shadow="0">
      <root>
        <mxCell id="0" />
        <mxCell id="1" parent="0" />
        <mxCell id="thPz8DvRdL-e7K8508kK-18" value="" style="edgeStyle=orthogonalEdgeStyle;rounded=0;orthogonalLoop=1;jettySize=auto;html=1;entryX=0.5;entryY=0;entryDx=0;entryDy=0;strokeWidth=1;" parent="1" source="thPz8DvRdL-e7K8508kK-12" target="thPz8DvRdL-e7K8508kK-19" edge="1">
          <mxGeometry relative="1" as="geometry">
            <mxPoint x="205" y="294" as="targetPoint" />
          </mxGeometry>
        </mxCell>
        <mxCell id="thPz8DvRdL-e7K8508kK-12" value="Начало" style="strokeWidth=1;html=1;shape=mxgraph.flowchart.terminator;whiteSpace=wrap;rounded=0;" parent="1" vertex="1">
          <mxGeometry x="120" y="169" width="170" height="50" as="geometry" />
        </mxCell>
        <mxCell id="thPz8DvRdL-e7K8508kK-13" value="Конец" style="strokeWidth=1;html=1;shape=mxgraph.flowchart.terminator;whiteSpace=wrap;rounded=0;strokeColor=default;align=center;verticalAlign=middle;fontFamily=Helvetica;fontSize=12;fontColor=default;fillColor=default;" parent="1" vertex="1">
          <mxGeometry x="440" y="710" width="170" height="50" as="geometry" />
        </mxCell>
        <mxCell id="thPz8DvRdL-e7K8508kK-14" value="&lt;div&gt;&lt;font style=&quot;font-size: 12px;&quot;&gt;&lt;span style=&quot;&quot;&gt;Алгоритм составления расписания турнира.&lt;/span&gt;&lt;/font&gt;&lt;/div&gt;&lt;font style=&quot;font-size: 12px;&quot;&gt;&lt;span style=&quot;&quot;&gt;Вход: индентификатор турнира id_league&lt;/span&gt;&lt;span style=&quot;&quot;&gt;.&lt;/span&gt;&lt;/font&gt;&lt;div&gt;&lt;span style=&quot;font-size: 12px;&quot;&gt;Выход: Набор матчей с известными времени проведения.&lt;/span&gt;&lt;/div&gt;" style="text;html=1;strokeColor=none;fillColor=none;align=left;verticalAlign=middle;whiteSpace=wrap;rounded=0;fontSize=14;strokeWidth=1;" parent="1" vertex="1">
          <mxGeometry x="309" y="164" width="256" height="60" as="geometry" />
        </mxCell>
        <mxCell id="thPz8DvRdL-e7K8508kK-15" value="" style="endArrow=none;dashed=1;html=1;dashPattern=1 3;strokeWidth=1;rounded=0;fontSize=14;exitX=1;exitY=0.5;exitDx=0;exitDy=0;exitPerimeter=0;entryX=0;entryY=0.5;entryDx=0;entryDy=0;entryPerimeter=0;" parent="1" source="thPz8DvRdL-e7K8508kK-12" edge="1">
          <mxGeometry width="50" height="50" relative="1" as="geometry">
            <mxPoint x="655" y="529" as="sourcePoint" />
            <mxPoint x="309" y="194" as="targetPoint" />
          </mxGeometry>
        </mxCell>
        <mxCell id="thPz8DvRdL-e7K8508kK-16" value="" style="strokeWidth=1;html=1;shape=mxgraph.flowchart.annotation_1;align=left;pointerEvents=1;" parent="1" vertex="1">
          <mxGeometry x="309" y="159" width="70" height="70" as="geometry" />
        </mxCell>
        <mxCell id="thPz8DvRdL-e7K8508kK-27" style="edgeStyle=orthogonalEdgeStyle;rounded=0;orthogonalLoop=1;jettySize=auto;html=1;entryX=0.5;entryY=0;entryDx=0;entryDy=0;strokeWidth=1;" parent="1" source="thPz8DvRdL-e7K8508kK-19" target="thPz8DvRdL-e7K8508kK-24" edge="1">
          <mxGeometry relative="1" as="geometry" />
        </mxCell>
        <mxCell id="thPz8DvRdL-e7K8508kK-19" value="По id_league найти все команды full_id" style="shape=process;whiteSpace=wrap;html=1;backgroundOutline=1;strokeWidth=1;rounded=0;strokeColor=default;align=center;verticalAlign=middle;fontFamily=Helvetica;fontSize=12;fontColor=default;fillColor=default;" parent="1" vertex="1">
          <mxGeometry x="120" y="240" width="170" height="50" as="geometry" />
        </mxCell>
        <mxCell id="thPz8DvRdL-e7K8508kK-29" style="edgeStyle=orthogonalEdgeStyle;rounded=0;orthogonalLoop=1;jettySize=auto;html=1;entryX=0.5;entryY=0;entryDx=0;entryDy=0;strokeWidth=1;" parent="1" source="thPz8DvRdL-e7K8508kK-20" target="thPz8DvRdL-e7K8508kK-22" edge="1">
          <mxGeometry relative="1" as="geometry" />
        </mxCell>
        <mxCell id="thPz8DvRdL-e7K8508kK-20" value="Инициация startFirstLeg" style="whiteSpace=wrap;html=1;strokeWidth=1;rounded=0;strokeColor=default;align=center;verticalAlign=middle;fontFamily=Helvetica;fontSize=12;fontColor=default;fillColor=default;" parent="1" vertex="1">
          <mxGeometry x="120" y="389" width="170" height="50" as="geometry" />
        </mxCell>
        <mxCell id="thPz8DvRdL-e7K8508kK-61" style="edgeStyle=orthogonalEdgeStyle;rounded=0;orthogonalLoop=1;jettySize=auto;html=1;entryX=0.5;entryY=0;entryDx=0;entryDy=0;" parent="1" source="thPz8DvRdL-e7K8508kK-22" target="thPz8DvRdL-e7K8508kK-33" edge="1">
          <mxGeometry relative="1" as="geometry" />
        </mxCell>
        <mxCell id="thPz8DvRdL-e7K8508kK-22" value="startSecondLeg = startFirstLeg.AddDays(7 * (size - 1))" style="whiteSpace=wrap;html=1;strokeWidth=1;rounded=0;strokeColor=default;align=center;verticalAlign=middle;fontFamily=Helvetica;fontSize=12;fontColor=default;fillColor=default;" parent="1" vertex="1">
          <mxGeometry x="120" y="470" width="170" height="50" as="geometry" />
        </mxCell>
        <mxCell id="thPz8DvRdL-e7K8508kK-28" style="edgeStyle=orthogonalEdgeStyle;rounded=0;orthogonalLoop=1;jettySize=auto;html=1;entryX=0.5;entryY=0;entryDx=0;entryDy=0;strokeWidth=1;" parent="1" source="thPz8DvRdL-e7K8508kK-24" target="thPz8DvRdL-e7K8508kK-20" edge="1">
          <mxGeometry relative="1" as="geometry" />
        </mxCell>
        <mxCell id="thPz8DvRdL-e7K8508kK-24" value="int size = full_id.size()&amp;nbsp;" style="whiteSpace=wrap;html=1;strokeWidth=1;rounded=0;strokeColor=default;align=center;verticalAlign=middle;fontFamily=Helvetica;fontSize=12;fontColor=default;fillColor=default;" parent="1" vertex="1">
          <mxGeometry x="120" y="310" width="170" height="50" as="geometry" />
        </mxCell>
        <mxCell id="thPz8DvRdL-e7K8508kK-62" style="edgeStyle=orthogonalEdgeStyle;rounded=0;orthogonalLoop=1;jettySize=auto;html=1;entryX=0.5;entryY=0;entryDx=0;entryDy=0;" parent="1" source="thPz8DvRdL-e7K8508kK-32" target="thPz8DvRdL-e7K8508kK-44" edge="1">
          <mxGeometry relative="1" as="geometry" />
        </mxCell>
        <mxCell id="thPz8DvRdL-e7K8508kK-32" value="Создать 2 матча двух команд full_id[0], full_id[1]" style="shape=process;whiteSpace=wrap;html=1;backgroundOutline=1;strokeWidth=1;rounded=0;strokeColor=default;align=center;verticalAlign=middle;fontFamily=Helvetica;fontSize=12;fontColor=default;fillColor=default;" parent="1" vertex="1">
          <mxGeometry x="120" y="630" width="170" height="50" as="geometry" />
        </mxCell>
        <mxCell id="thPz8DvRdL-e7K8508kK-37" style="edgeStyle=orthogonalEdgeStyle;rounded=0;orthogonalLoop=1;jettySize=auto;html=1;strokeWidth=1;" parent="1" source="thPz8DvRdL-e7K8508kK-33" target="thPz8DvRdL-e7K8508kK-32" edge="1">
          <mxGeometry relative="1" as="geometry" />
        </mxCell>
        <mxCell id="thPz8DvRdL-e7K8508kK-33" value="Цикл week от 0&lt;br style=&quot;border-color: var(--border-color);&quot;&gt;до size - 1" style="shape=loopLimit;whiteSpace=wrap;html=1;strokeWidth=1;rounded=0;strokeColor=default;align=center;verticalAlign=middle;fontFamily=Helvetica;fontSize=12;fontColor=default;fillColor=default;" parent="1" vertex="1">
          <mxGeometry x="120" y="549" width="170" height="50" as="geometry" />
        </mxCell>
        <mxCell id="thPz8DvRdL-e7K8508kK-49" value="" style="edgeStyle=orthogonalEdgeStyle;rounded=0;orthogonalLoop=1;jettySize=auto;html=1;strokeWidth=1;" parent="1" source="thPz8DvRdL-e7K8508kK-34" target="thPz8DvRdL-e7K8508kK-48" edge="1">
          <mxGeometry relative="1" as="geometry" />
        </mxCell>
        <mxCell id="thPz8DvRdL-e7K8508kK-34" value="Цикл i от 0&lt;br style=&quot;border-color: var(--border-color);&quot;&gt;до size / 2 - 1" style="shape=loopLimit;whiteSpace=wrap;html=1;direction=west;strokeWidth=1;rounded=0;strokeColor=default;align=center;verticalAlign=middle;fontFamily=Helvetica;fontSize=12;fontColor=default;fillColor=default;" parent="1" vertex="1">
          <mxGeometry x="120" y="870" width="170" height="50" as="geometry" />
        </mxCell>
        <mxCell id="thPz8DvRdL-e7K8508kK-46" style="edgeStyle=orthogonalEdgeStyle;rounded=0;orthogonalLoop=1;jettySize=auto;html=1;entryX=0.5;entryY=0;entryDx=0;entryDy=0;strokeWidth=1;" parent="1" source="thPz8DvRdL-e7K8508kK-44" target="thPz8DvRdL-e7K8508kK-45" edge="1">
          <mxGeometry relative="1" as="geometry" />
        </mxCell>
        <mxCell id="thPz8DvRdL-e7K8508kK-44" value="Цикл i от 0&lt;br style=&quot;border-color: var(--border-color);&quot;&gt;до size / 2 - 1" style="shape=loopLimit;whiteSpace=wrap;html=1;strokeWidth=1;rounded=0;strokeColor=default;align=center;verticalAlign=middle;fontFamily=Helvetica;fontSize=12;fontColor=default;fillColor=default;" parent="1" vertex="1">
          <mxGeometry x="120" y="710" width="170" height="50" as="geometry" />
        </mxCell>
        <mxCell id="thPz8DvRdL-e7K8508kK-47" style="edgeStyle=orthogonalEdgeStyle;rounded=0;orthogonalLoop=1;jettySize=auto;html=1;entryX=0.5;entryY=1;entryDx=0;entryDy=0;strokeWidth=1;" parent="1" source="thPz8DvRdL-e7K8508kK-45" target="thPz8DvRdL-e7K8508kK-34" edge="1">
          <mxGeometry relative="1" as="geometry" />
        </mxCell>
        <mxCell id="thPz8DvRdL-e7K8508kK-45" value="Создать 2 матча двух команд full_id[2 + i], full_id[size - 1 -i]" style="shape=process;whiteSpace=wrap;html=1;backgroundOutline=1;strokeWidth=1;rounded=0;strokeColor=default;align=center;verticalAlign=middle;fontFamily=Helvetica;fontSize=12;fontColor=default;fillColor=default;" parent="1" vertex="1">
          <mxGeometry x="120" y="789" width="170" height="50" as="geometry" />
        </mxCell>
        <mxCell id="thPz8DvRdL-e7K8508kK-48" value="A" style="ellipse;whiteSpace=wrap;html=1;strokeWidth=1;" parent="1" vertex="1">
          <mxGeometry x="180" y="950" width="50" height="50" as="geometry" />
        </mxCell>
        <mxCell id="thPz8DvRdL-e7K8508kK-56" style="edgeStyle=orthogonalEdgeStyle;rounded=0;orthogonalLoop=1;jettySize=auto;html=1;entryX=0.5;entryY=0;entryDx=0;entryDy=0;strokeWidth=1;" parent="1" source="thPz8DvRdL-e7K8508kK-51" target="thPz8DvRdL-e7K8508kK-55" edge="1">
          <mxGeometry relative="1" as="geometry" />
        </mxCell>
        <mxCell id="thPz8DvRdL-e7K8508kK-51" value="startFirstLeg.AddDays(7)" style="whiteSpace=wrap;html=1;strokeWidth=1;rounded=0;strokeColor=default;align=center;verticalAlign=middle;fontFamily=Helvetica;fontSize=12;fontColor=default;fillColor=default;" parent="1" vertex="1">
          <mxGeometry x="440" y="470" width="170" height="50" as="geometry" />
        </mxCell>
        <mxCell id="thPz8DvRdL-e7K8508kK-59" style="edgeStyle=orthogonalEdgeStyle;rounded=0;orthogonalLoop=1;jettySize=auto;html=1;entryX=0.5;entryY=1;entryDx=0;entryDy=0;strokeWidth=1;" parent="1" source="thPz8DvRdL-e7K8508kK-55" target="thPz8DvRdL-e7K8508kK-58" edge="1">
          <mxGeometry relative="1" as="geometry" />
        </mxCell>
        <mxCell id="thPz8DvRdL-e7K8508kK-55" value="startSecondLeg.AddDays(7)" style="whiteSpace=wrap;html=1;strokeWidth=1;rounded=0;strokeColor=default;align=center;verticalAlign=middle;fontFamily=Helvetica;fontSize=12;fontColor=default;fillColor=default;" parent="1" vertex="1">
          <mxGeometry x="440" y="549" width="170" height="50" as="geometry" />
        </mxCell>
        <mxCell id="thPz8DvRdL-e7K8508kK-65" style="edgeStyle=orthogonalEdgeStyle;rounded=0;orthogonalLoop=1;jettySize=auto;html=1;entryX=0.5;entryY=0;entryDx=0;entryDy=0;" parent="1" source="thPz8DvRdL-e7K8508kK-57" target="thPz8DvRdL-e7K8508kK-51" edge="1">
          <mxGeometry relative="1" as="geometry" />
        </mxCell>
        <mxCell id="thPz8DvRdL-e7K8508kK-57" value="rotate()" style="shape=process;whiteSpace=wrap;html=1;backgroundOutline=1;strokeWidth=1;rounded=0;strokeColor=default;align=center;verticalAlign=middle;fontFamily=Helvetica;fontSize=12;fontColor=default;fillColor=default;" parent="1" vertex="1">
          <mxGeometry x="440" y="389" width="170" height="50" as="geometry" />
        </mxCell>
        <mxCell id="thPz8DvRdL-e7K8508kK-58" value="Цикл week от 0&lt;br style=&quot;border-color: var(--border-color);&quot;&gt;до size - 1" style="shape=loopLimit;whiteSpace=wrap;html=1;direction=west;strokeWidth=1;rounded=0;strokeColor=default;align=center;verticalAlign=middle;fontFamily=Helvetica;fontSize=12;fontColor=default;fillColor=default;" parent="1" vertex="1">
          <mxGeometry x="440" y="630" width="170" height="50" as="geometry" />
        </mxCell>
        <mxCell id="thPz8DvRdL-e7K8508kK-60" style="edgeStyle=orthogonalEdgeStyle;rounded=0;orthogonalLoop=1;jettySize=auto;html=1;entryX=0.5;entryY=0;entryDx=0;entryDy=0;entryPerimeter=0;strokeWidth=1;" parent="1" source="thPz8DvRdL-e7K8508kK-58" target="thPz8DvRdL-e7K8508kK-13" edge="1">
          <mxGeometry relative="1" as="geometry" />
        </mxCell>
        <mxCell id="thPz8DvRdL-e7K8508kK-64" style="edgeStyle=orthogonalEdgeStyle;rounded=0;orthogonalLoop=1;jettySize=auto;html=1;entryX=0.5;entryY=0;entryDx=0;entryDy=0;" parent="1" source="thPz8DvRdL-e7K8508kK-63" target="thPz8DvRdL-e7K8508kK-57" edge="1">
          <mxGeometry relative="1" as="geometry" />
        </mxCell>
        <mxCell id="thPz8DvRdL-e7K8508kK-63" value="A" style="ellipse;whiteSpace=wrap;html=1;strokeWidth=1;" parent="1" vertex="1">
          <mxGeometry x="500" y="310" width="50" height="50" as="geometry" />
        </mxCell>
      </root>
    </mxGraphModel>
  </diagram>
  <diagram id="HuNqNQHb-RztGuNka0r5" name="Trigger">
    <mxGraphModel dx="1050" dy="565" grid="1" gridSize="10" guides="1" tooltips="1" connect="1" arrows="1" fold="1" page="1" pageScale="1" pageWidth="827" pageHeight="1169" math="0" shadow="0">
      <root>
        <mxCell id="0" />
        <mxCell id="1" parent="0" />
        <mxCell id="nkE2ZDygiy_imMztK-Tm-6" style="edgeStyle=orthogonalEdgeStyle;rounded=0;orthogonalLoop=1;jettySize=auto;html=1;entryX=0.5;entryY=0;entryDx=0;entryDy=0;" parent="1" source="nkE2ZDygiy_imMztK-Tm-1" target="nkE2ZDygiy_imMztK-Tm-3" edge="1">
          <mxGeometry relative="1" as="geometry" />
        </mxCell>
        <mxCell id="nkE2ZDygiy_imMztK-Tm-1" value="Начало" style="strokeWidth=1;html=1;shape=mxgraph.flowchart.terminator;whiteSpace=wrap;rounded=0;" parent="1" vertex="1">
          <mxGeometry x="120" y="169" width="170" height="50" as="geometry" />
        </mxCell>
        <mxCell id="nkE2ZDygiy_imMztK-Tm-2" value="Конец" style="strokeWidth=1;html=1;shape=mxgraph.flowchart.terminator;whiteSpace=wrap;rounded=0;" parent="1" vertex="1">
          <mxGeometry x="120" y="540" width="170" height="50" as="geometry" />
        </mxCell>
        <mxCell id="nkE2ZDygiy_imMztK-Tm-7" style="edgeStyle=orthogonalEdgeStyle;rounded=0;orthogonalLoop=1;jettySize=auto;html=1;entryX=0.5;entryY=0;entryDx=0;entryDy=0;" parent="1" source="nkE2ZDygiy_imMztK-Tm-3" target="nkE2ZDygiy_imMztK-Tm-4" edge="1">
          <mxGeometry relative="1" as="geometry" />
        </mxCell>
        <mxCell id="nkE2ZDygiy_imMztK-Tm-3" value="Вычислить сумму баллов турнира в таблице feedbacks f где&amp;nbsp; f.id_league = new.id_league" style="shape=process;whiteSpace=wrap;html=1;backgroundOutline=1;" parent="1" vertex="1">
          <mxGeometry x="92.5" y="250" width="225" height="60" as="geometry" />
        </mxCell>
        <mxCell id="nkE2ZDygiy_imMztK-Tm-8" style="edgeStyle=orthogonalEdgeStyle;rounded=0;orthogonalLoop=1;jettySize=auto;html=1;entryX=0.5;entryY=0;entryDx=0;entryDy=0;" parent="1" source="nkE2ZDygiy_imMztK-Tm-4" target="nkE2ZDygiy_imMztK-Tm-5" edge="1">
          <mxGeometry relative="1" as="geometry" />
        </mxCell>
        <mxCell id="nkE2ZDygiy_imMztK-Tm-4" value="Вычислить количество отзывов в таблице feedbacks f где&amp;nbsp; f.id_league = new.id_league" style="shape=process;whiteSpace=wrap;html=1;backgroundOutline=1;" parent="1" vertex="1">
          <mxGeometry x="92.5" y="350" width="225" height="60" as="geometry" />
        </mxCell>
        <mxCell id="nkE2ZDygiy_imMztK-Tm-5" value="Обновить в таблице leagues l поле rating = sum / count где&amp;nbsp; l.id_league = new.id_league" style="shape=process;whiteSpace=wrap;html=1;backgroundOutline=1;" parent="1" vertex="1">
          <mxGeometry x="92.5" y="440" width="225" height="60" as="geometry" />
        </mxCell>
        <mxCell id="nkE2ZDygiy_imMztK-Tm-9" style="edgeStyle=orthogonalEdgeStyle;rounded=0;orthogonalLoop=1;jettySize=auto;html=1;entryX=0.5;entryY=0;entryDx=0;entryDy=0;entryPerimeter=0;" parent="1" source="nkE2ZDygiy_imMztK-Tm-5" target="nkE2ZDygiy_imMztK-Tm-2" edge="1">
          <mxGeometry relative="1" as="geometry" />
        </mxCell>
      </root>
    </mxGraphModel>
  </diagram>
  <diagram id="ArS58cshhaJuwnLDYhyi" name="Page-6">
    <mxGraphModel dx="819" dy="426" grid="1" gridSize="10" guides="1" tooltips="1" connect="1" arrows="1" fold="1" page="1" pageScale="1" pageWidth="827" pageHeight="1169" math="0" shadow="0">
      <root>
        <mxCell id="0" />
        <mxCell id="1" parent="0" />
        <mxCell id="pcczJ9cFOa_iSeTZ6tYJ-1" value="Гость" style="shape=umlActor;verticalLabelPosition=bottom;verticalAlign=top;html=1;outlineConnect=0;" vertex="1" parent="1">
          <mxGeometry x="74" y="430" width="30" height="60" as="geometry" />
        </mxCell>
        <mxCell id="pcczJ9cFOa_iSeTZ6tYJ-2" value="Просмотр результ.&lt;br&gt;турнирной таблицы" style="ellipse;whiteSpace=wrap;html=1;" vertex="1" parent="1">
          <mxGeometry x="214" y="260" width="160" height="50" as="geometry" />
        </mxCell>
        <mxCell id="pcczJ9cFOa_iSeTZ6tYJ-3" value="Вход без авторизации" style="ellipse;whiteSpace=wrap;html=1;" vertex="1" parent="1">
          <mxGeometry x="9" y="340" width="160" height="50" as="geometry" />
        </mxCell>
        <mxCell id="pcczJ9cFOa_iSeTZ6tYJ-4" value="Авторизация" style="ellipse;whiteSpace=wrap;html=1;" vertex="1" parent="1">
          <mxGeometry x="214" y="330" width="160" height="50" as="geometry" />
        </mxCell>
        <mxCell id="pcczJ9cFOa_iSeTZ6tYJ-5" value="Судья" style="shape=umlActor;verticalLabelPosition=bottom;verticalAlign=top;html=1;outlineConnect=0;" vertex="1" parent="1">
          <mxGeometry x="521.5" y="360" width="30" height="60" as="geometry" />
        </mxCell>
        <mxCell id="pcczJ9cFOa_iSeTZ6tYJ-6" value="Просмотр информации о турнирах" style="ellipse;whiteSpace=wrap;html=1;" vertex="1" parent="1">
          <mxGeometry x="214" y="630" width="160" height="50" as="geometry" />
        </mxCell>
        <mxCell id="pcczJ9cFOa_iSeTZ6tYJ-7" value="Выход из аккаунта" style="ellipse;whiteSpace=wrap;html=1;" vertex="1" parent="1">
          <mxGeometry x="658.5" y="340" width="160" height="50" as="geometry" />
        </mxCell>
        <mxCell id="pcczJ9cFOa_iSeTZ6tYJ-8" value="Просмотр результ.&lt;div&gt;матчей&lt;/div&gt;" style="ellipse;whiteSpace=wrap;html=1;" vertex="1" parent="1">
          <mxGeometry x="214" y="545" width="165" height="60" as="geometry" />
        </mxCell>
        <mxCell id="pcczJ9cFOa_iSeTZ6tYJ-9" value="Соз//удал турнира" style="ellipse;whiteSpace=wrap;html=1;" vertex="1" parent="1">
          <mxGeometry x="658.5" y="495" width="160" height="50" as="geometry" />
        </mxCell>
        <mxCell id="pcczJ9cFOa_iSeTZ6tYJ-10" value="Создание расписания&lt;br&gt;тунира" style="ellipse;whiteSpace=wrap;html=1;" vertex="1" parent="1">
          <mxGeometry x="658.5" y="420" width="160" height="40" as="geometry" />
        </mxCell>
        <mxCell id="pcczJ9cFOa_iSeTZ6tYJ-11" value="Администратор" style="shape=umlActor;verticalLabelPosition=bottom;verticalAlign=top;html=1;outlineConnect=0;" vertex="1" parent="1">
          <mxGeometry x="521.5" y="490" width="30" height="60" as="geometry" />
        </mxCell>
        <mxCell id="pcczJ9cFOa_iSeTZ6tYJ-12" value="Ред/удал профилей &lt;br&gt;судей" style="ellipse;whiteSpace=wrap;html=1;" vertex="1" parent="1">
          <mxGeometry x="454" y="680" width="165" height="50" as="geometry" />
        </mxCell>
        <mxCell id="pcczJ9cFOa_iSeTZ6tYJ-13" value="Вход с авторизацией" style="ellipse;whiteSpace=wrap;html=1;" vertex="1" parent="1">
          <mxGeometry x="658.5" y="270" width="160" height="50" as="geometry" />
        </mxCell>
        <mxCell id="pcczJ9cFOa_iSeTZ6tYJ-14" value="Оставить отзыв о тунире&amp;nbsp;" style="ellipse;whiteSpace=wrap;html=1;" vertex="1" parent="1">
          <mxGeometry x="214" y="400" width="160" height="50" as="geometry" />
        </mxCell>
        <mxCell id="pcczJ9cFOa_iSeTZ6tYJ-15" value="Просмотр расписания турнира" style="ellipse;whiteSpace=wrap;html=1;" vertex="1" parent="1">
          <mxGeometry x="214" y="470" width="160" height="50" as="geometry" />
        </mxCell>
        <mxCell id="pcczJ9cFOa_iSeTZ6tYJ-16" value="" style="endArrow=none;html=1;rounded=0;" edge="1" parent="1">
          <mxGeometry width="50" height="50" relative="1" as="geometry">
            <mxPoint x="511.5" y="580" as="sourcePoint" />
            <mxPoint x="511.5" y="360" as="targetPoint" />
            <Array as="points">
              <mxPoint x="471.5" y="580" />
              <mxPoint x="471.5" y="360" />
            </Array>
          </mxGeometry>
        </mxCell>
        <mxCell id="pcczJ9cFOa_iSeTZ6tYJ-17" value="" style="endArrow=none;html=1;rounded=0;" edge="1" parent="1">
          <mxGeometry width="50" height="50" relative="1" as="geometry">
            <mxPoint x="559" y="580" as="sourcePoint" />
            <mxPoint x="559" y="360" as="targetPoint" />
            <Array as="points">
              <mxPoint x="599" y="580" />
              <mxPoint x="599" y="460" />
              <mxPoint x="599" y="360" />
            </Array>
          </mxGeometry>
        </mxCell>
        <mxCell id="pcczJ9cFOa_iSeTZ6tYJ-18" value="" style="endArrow=classic;html=1;rounded=0;entryX=0.5;entryY=0;entryDx=0;entryDy=0;" edge="1" parent="1" target="pcczJ9cFOa_iSeTZ6tYJ-12">
          <mxGeometry width="50" height="50" relative="1" as="geometry">
            <mxPoint x="536.5" y="580" as="sourcePoint" />
            <mxPoint x="421.5" y="590" as="targetPoint" />
          </mxGeometry>
        </mxCell>
        <mxCell id="pcczJ9cFOa_iSeTZ6tYJ-19" value="" style="endArrow=none;html=1;rounded=0;" edge="1" parent="1">
          <mxGeometry width="50" height="50" relative="1" as="geometry">
            <mxPoint x="471" y="460" as="sourcePoint" />
            <mxPoint x="471" y="460" as="targetPoint" />
            <Array as="points">
              <mxPoint x="434" y="460" />
            </Array>
          </mxGeometry>
        </mxCell>
        <mxCell id="pcczJ9cFOa_iSeTZ6tYJ-20" value="" style="endArrow=none;html=1;rounded=0;" edge="1" parent="1">
          <mxGeometry width="50" height="50" relative="1" as="geometry">
            <mxPoint x="600" y="470" as="sourcePoint" />
            <mxPoint x="611" y="470" as="targetPoint" />
          </mxGeometry>
        </mxCell>
        <mxCell id="pcczJ9cFOa_iSeTZ6tYJ-21" value="" style="endArrow=classic;html=1;rounded=0;entryX=0.5;entryY=1;entryDx=0;entryDy=0;" edge="1" parent="1" source="pcczJ9cFOa_iSeTZ6tYJ-1" target="pcczJ9cFOa_iSeTZ6tYJ-3">
          <mxGeometry width="50" height="50" relative="1" as="geometry">
            <mxPoint x="244" y="550" as="sourcePoint" />
            <mxPoint x="294" y="500" as="targetPoint" />
          </mxGeometry>
        </mxCell>
        <mxCell id="pcczJ9cFOa_iSeTZ6tYJ-22" value="" style="endArrow=classic;html=1;rounded=0;entryX=1;entryY=0.5;entryDx=0;entryDy=0;" edge="1" parent="1" target="pcczJ9cFOa_iSeTZ6tYJ-2">
          <mxGeometry width="50" height="50" relative="1" as="geometry">
            <mxPoint x="434" y="460" as="sourcePoint" />
            <mxPoint x="524" y="150" as="targetPoint" />
          </mxGeometry>
        </mxCell>
        <mxCell id="pcczJ9cFOa_iSeTZ6tYJ-23" value="" style="endArrow=classic;html=1;rounded=0;entryX=1;entryY=0.5;entryDx=0;entryDy=0;" edge="1" parent="1" target="pcczJ9cFOa_iSeTZ6tYJ-4">
          <mxGeometry width="50" height="50" relative="1" as="geometry">
            <mxPoint x="434" y="460" as="sourcePoint" />
            <mxPoint x="534" y="160" as="targetPoint" />
          </mxGeometry>
        </mxCell>
        <mxCell id="pcczJ9cFOa_iSeTZ6tYJ-24" value="" style="endArrow=classic;html=1;rounded=0;entryX=1;entryY=0.5;entryDx=0;entryDy=0;" edge="1" parent="1" target="pcczJ9cFOa_iSeTZ6tYJ-14">
          <mxGeometry width="50" height="50" relative="1" as="geometry">
            <mxPoint x="434" y="460" as="sourcePoint" />
            <mxPoint x="544" y="170" as="targetPoint" />
          </mxGeometry>
        </mxCell>
        <mxCell id="pcczJ9cFOa_iSeTZ6tYJ-25" value="" style="endArrow=classic;html=1;rounded=0;entryX=1;entryY=0.5;entryDx=0;entryDy=0;" edge="1" parent="1">
          <mxGeometry width="50" height="50" relative="1" as="geometry">
            <mxPoint x="433" y="460" as="sourcePoint" />
            <mxPoint x="372.9999999999998" y="495" as="targetPoint" />
          </mxGeometry>
        </mxCell>
        <mxCell id="pcczJ9cFOa_iSeTZ6tYJ-26" value="" style="endArrow=classic;html=1;rounded=0;entryX=1;entryY=0.5;entryDx=0;entryDy=0;" edge="1" parent="1" target="pcczJ9cFOa_iSeTZ6tYJ-8">
          <mxGeometry width="50" height="50" relative="1" as="geometry">
            <mxPoint x="434" y="460" as="sourcePoint" />
            <mxPoint x="574" y="200" as="targetPoint" />
          </mxGeometry>
        </mxCell>
        <mxCell id="pcczJ9cFOa_iSeTZ6tYJ-27" value="" style="endArrow=classic;html=1;rounded=0;entryX=1;entryY=0.5;entryDx=0;entryDy=0;" edge="1" parent="1" target="pcczJ9cFOa_iSeTZ6tYJ-6">
          <mxGeometry width="50" height="50" relative="1" as="geometry">
            <mxPoint x="434" y="460" as="sourcePoint" />
            <mxPoint x="634" y="260" as="targetPoint" />
          </mxGeometry>
        </mxCell>
        <mxCell id="pcczJ9cFOa_iSeTZ6tYJ-28" value="" style="endArrow=classic;html=1;rounded=0;entryX=0;entryY=0.5;entryDx=0;entryDy=0;" edge="1" parent="1" target="pcczJ9cFOa_iSeTZ6tYJ-4">
          <mxGeometry width="50" height="50" relative="1" as="geometry">
            <mxPoint x="164" y="460" as="sourcePoint" />
            <mxPoint x="644" y="270" as="targetPoint" />
          </mxGeometry>
        </mxCell>
        <mxCell id="pcczJ9cFOa_iSeTZ6tYJ-29" value="" style="endArrow=classic;html=1;rounded=0;entryX=0;entryY=0.5;entryDx=0;entryDy=0;" edge="1" parent="1" target="pcczJ9cFOa_iSeTZ6tYJ-14">
          <mxGeometry width="50" height="50" relative="1" as="geometry">
            <mxPoint x="164" y="460" as="sourcePoint" />
            <mxPoint x="654" y="280" as="targetPoint" />
          </mxGeometry>
        </mxCell>
        <mxCell id="pcczJ9cFOa_iSeTZ6tYJ-30" value="" style="endArrow=classic;html=1;rounded=0;entryX=0;entryY=0.5;entryDx=0;entryDy=0;" edge="1" parent="1" target="pcczJ9cFOa_iSeTZ6tYJ-8">
          <mxGeometry width="50" height="50" relative="1" as="geometry">
            <mxPoint x="164" y="460" as="sourcePoint" />
            <mxPoint x="674" y="300" as="targetPoint" />
          </mxGeometry>
        </mxCell>
        <mxCell id="pcczJ9cFOa_iSeTZ6tYJ-31" value="" style="endArrow=classic;html=1;rounded=0;entryX=0;entryY=0.5;entryDx=0;entryDy=0;" edge="1" parent="1" target="pcczJ9cFOa_iSeTZ6tYJ-6">
          <mxGeometry width="50" height="50" relative="1" as="geometry">
            <mxPoint x="164" y="460" as="sourcePoint" />
            <mxPoint x="684" y="310" as="targetPoint" />
          </mxGeometry>
        </mxCell>
        <mxCell id="pcczJ9cFOa_iSeTZ6tYJ-32" value="" style="endArrow=classic;html=1;rounded=0;entryX=0;entryY=0.5;entryDx=0;entryDy=0;" edge="1" parent="1" target="pcczJ9cFOa_iSeTZ6tYJ-15">
          <mxGeometry width="50" height="50" relative="1" as="geometry">
            <mxPoint x="164" y="460" as="sourcePoint" />
            <mxPoint x="694" y="320" as="targetPoint" />
          </mxGeometry>
        </mxCell>
        <mxCell id="pcczJ9cFOa_iSeTZ6tYJ-33" value="" style="endArrow=none;html=1;rounded=0;" edge="1" parent="1" source="pcczJ9cFOa_iSeTZ6tYJ-1">
          <mxGeometry width="50" height="50" relative="1" as="geometry">
            <mxPoint x="384" y="500" as="sourcePoint" />
            <mxPoint x="164" y="460" as="targetPoint" />
          </mxGeometry>
        </mxCell>
        <mxCell id="pcczJ9cFOa_iSeTZ6tYJ-34" value="" style="endArrow=classic;html=1;rounded=0;entryX=0;entryY=0.5;entryDx=0;entryDy=0;" edge="1" parent="1" target="pcczJ9cFOa_iSeTZ6tYJ-2">
          <mxGeometry width="50" height="50" relative="1" as="geometry">
            <mxPoint x="164" y="460" as="sourcePoint" />
            <mxPoint x="704" y="330" as="targetPoint" />
          </mxGeometry>
        </mxCell>
        <mxCell id="pcczJ9cFOa_iSeTZ6tYJ-35" value="" style="endArrow=classic;html=1;rounded=0;entryX=0;entryY=0.5;entryDx=0;entryDy=0;" edge="1" parent="1" target="pcczJ9cFOa_iSeTZ6tYJ-13">
          <mxGeometry width="50" height="50" relative="1" as="geometry">
            <mxPoint x="611.5" y="470" as="sourcePoint" />
            <mxPoint x="501.5" y="140" as="targetPoint" />
          </mxGeometry>
        </mxCell>
        <mxCell id="pcczJ9cFOa_iSeTZ6tYJ-36" value="" style="endArrow=classic;html=1;rounded=0;entryX=0;entryY=0.5;entryDx=0;entryDy=0;" edge="1" parent="1" target="pcczJ9cFOa_iSeTZ6tYJ-7">
          <mxGeometry width="50" height="50" relative="1" as="geometry">
            <mxPoint x="611.5" y="470" as="sourcePoint" />
            <mxPoint x="571.5" y="170" as="targetPoint" />
          </mxGeometry>
        </mxCell>
        <mxCell id="pcczJ9cFOa_iSeTZ6tYJ-37" value="" style="endArrow=classic;html=1;rounded=0;entryX=0;entryY=0.5;entryDx=0;entryDy=0;" edge="1" parent="1" target="pcczJ9cFOa_iSeTZ6tYJ-10">
          <mxGeometry width="50" height="50" relative="1" as="geometry">
            <mxPoint x="611.5" y="470" as="sourcePoint" />
            <mxPoint x="561.5" y="380" as="targetPoint" />
          </mxGeometry>
        </mxCell>
        <mxCell id="pcczJ9cFOa_iSeTZ6tYJ-38" value="" style="endArrow=classic;html=1;rounded=0;entryX=0;entryY=0.5;entryDx=0;entryDy=0;" edge="1" parent="1" target="pcczJ9cFOa_iSeTZ6tYJ-9">
          <mxGeometry width="50" height="50" relative="1" as="geometry">
            <mxPoint x="611.5" y="470" as="sourcePoint" />
            <mxPoint x="571.5" y="390" as="targetPoint" />
          </mxGeometry>
        </mxCell>
        <mxCell id="pcczJ9cFOa_iSeTZ6tYJ-39" value="Ввод результата матча" style="ellipse;whiteSpace=wrap;html=1;" vertex="1" parent="1">
          <mxGeometry x="658.5" y="570" width="160" height="50" as="geometry" />
        </mxCell>
        <mxCell id="pcczJ9cFOa_iSeTZ6tYJ-40" value="" style="endArrow=classic;html=1;rounded=0;entryX=0;entryY=0.5;entryDx=0;entryDy=0;" edge="1" parent="1" target="pcczJ9cFOa_iSeTZ6tYJ-39">
          <mxGeometry width="50" height="50" relative="1" as="geometry">
            <mxPoint x="612" y="470" as="sourcePoint" />
            <mxPoint x="762" y="540" as="targetPoint" />
          </mxGeometry>
        </mxCell>
        <mxCell id="pcczJ9cFOa_iSeTZ6tYJ-41" style="edgeStyle=orthogonalEdgeStyle;rounded=0;orthogonalLoop=1;jettySize=auto;html=1;exitX=0.5;exitY=1;exitDx=0;exitDy=0;" edge="1" parent="1" source="pcczJ9cFOa_iSeTZ6tYJ-10" target="pcczJ9cFOa_iSeTZ6tYJ-10">
          <mxGeometry relative="1" as="geometry" />
        </mxCell>
      </root>
    </mxGraphModel>
  </diagram>
</mxfile>
